<?xml version="1.0" encoding="UTF-8" standalone="no"?>
<!-- Uploaded to: SVG Repo, www.svgrepo.com, Transformed by: SVG Repo Mixer Tools -->

<svg width="32" height="32" viewBox="0 0 12 12" fill="none" version="1.1" id="svg145" sodipodi:docname="dark-mode-moon.svg" inkscape:version="1.2.2 (732a01da63, 2022-12-09)" xmlns:inkscape="http://www.inkscape.org/namespaces/inkscape" xmlns:sodipodi="http://sodipodi.sourceforge.net/DTD/sodipodi-0.dtd" xmlns="http://www.w3.org/2000/svg" xmlns:svg="http://www.w3.org/2000/svg">
  <defs id="defs149" />
  <sodipodi:namedview id="namedview147" pagecolor="#505050" bordercolor="#eeeeee" borderopacity="1" inkscape:showpageshadow="0" inkscape:pageopacity="0" inkscape:pagecheckerboard="0" inkscape:deskcolor="#505050" showgrid="false" inkscape:zoom="3.28125" inkscape:cx="21.638095" inkscape:cy="49.828571" inkscape:window-width="1920" inkscape:window-height="1001" inkscape:window-x="-9" inkscape:window-y="-9" inkscape:window-maximized="1" inkscape:current-layer="svg145" />
  <g id="SVGRepo_bgCarrier" stroke-width="0" />
  <g id="SVGRepo_tracerCarrier" stroke-linecap="round" stroke-linejoin="round" />
  <g id="SVGRepo_iconCarrier" transform="matrix(0.56248875,0,0,0.56248875,-0.749865,-0.7499775)" style="stroke-width:1.77781">
    <path opacity="0.5" fill-rule="evenodd" clip-rule="evenodd" d="m 22,12.0004 c 0,5.5228 -4.4772,10 -10,10 -1.1642,0 -2.28199,-0.199 -3.32113,-0.5647 C 8.24138,20.3772 8,19.217 8,18.0004 c 0,-2.2212 0.80467,-4.2545 2.1384,-5.8242 1.1716,1.7056 3.136,2.8242 5.3616,2.8242 2.3615,0 4.4289,-1.2594 5.5672,-3.1432 C 21.3065,11.4612 22,11.5377 22,12.0004 Z" fill="#1c274c" id="path140" style="stroke-width:3.16062" />
    <path d="m 2,12 c 0,4.3586 2.78852,8.0659 6.67887,9.4353 C 8.24138,20.3768 8,19.2166 8,18 8,15.7788 8.80467,13.7455 10.1384,12.1758 9.42027,11.1303 9,9.86422 9,8.5 9,6.13845 10.2594,4.07105 12.1432,2.93276 12.5392,2.69347 12.4627,2 12,2 6.47715,2 2,6.47715 2,12 Z" fill="#1c274c" id="path142" style="stroke-width:3.16062" />
  </g>
</svg>
