<svg width="30" height="30" viewBox="0 0 30 30" fill="none" xmlns="http://www.w3.org/2000/svg">
<path opacity="0.5" fill-rule="evenodd" clip-rule="evenodd" d="M29.9997 15.0003C29.9997 23.2843 23.284 30 15 30C13.2537 30 11.5771 29.7015 10.0184 29.153C9.36219 27.5652 9.00012 25.825 9.00012 24.0001C9.00012 20.6684 10.2071 17.6185 12.2077 15.264C13.965 17.8223 16.9116 19.5002 20.2499 19.5002C23.7921 19.5002 26.8931 17.6111 28.6005 14.7855C28.9595 14.1915 29.9997 14.3062 29.9997 15.0003Z" fill="#BEBEBE"/>
<path d="M0.000244141 14.9997C0.000244141 21.5375 4.18294 27.0983 10.0183 29.1524C9.36213 27.5647 9.00006 25.8244 9.00006 23.9995C9.00006 20.6678 10.207 17.6179 12.2076 15.2634C11.1304 13.6952 10.5 11.7961 10.5 9.74981C10.5 6.20755 12.3891 3.10651 15.2147 1.39911C15.8087 1.04018 15.694 0 14.9999 0C6.71584 0 0.000244141 6.71559 0.000244141 14.9997Z" fill="#BEBEBE"/>
</svg>
