<svg width="30" height="30" viewBox="0 0 30 30" fill="none" xmlns="http://www.w3.org/2000/svg">
<path d="M23.3721 15C23.3721 19.6238 19.6238 23.3721 15 23.3721C10.3762 23.3721 6.62793 19.6238 6.62793 15C6.62793 10.3762 10.3762 6.6279 15 6.6279C19.6238 6.6279 23.3721 10.3762 23.3721 15Z" fill="#414141"/>
<path fill-rule="evenodd" clip-rule="evenodd" d="M15 0C15.578 0 16.0465 0.468544 16.0465 1.04651V2.44186C16.0465 3.01983 15.578 3.48837 15 3.48837C14.422 3.48837 13.9535 3.01983 13.9535 2.44186V1.04651C13.9535 0.468544 14.422 0 15 0ZM0 15C0 14.422 0.468544 13.9535 1.04651 13.9535H2.44186C3.01983 13.9535 3.48837 14.422 3.48837 15C3.48837 15.578 3.01983 16.0465 2.44186 16.0465H1.04651C0.468544 16.0465 0 15.578 0 15ZM26.5116 15C26.5116 14.422 26.9802 13.9535 27.5581 13.9535H28.9535C29.5314 13.9535 30 14.422 30 15C30 15.578 29.5314 16.0465 28.9535 16.0465H27.5581C26.9802 16.0465 26.5116 15.578 26.5116 15ZM15 26.5116C15.578 26.5116 16.0465 26.9802 16.0465 27.5581V28.9535C16.0465 29.5314 15.578 30 15 30C14.422 30 13.9535 29.5314 13.9535 28.9535V27.5581C13.9535 26.9802 14.422 26.5116 15 26.5116Z" fill="#414141"/>
<g opacity="0.5">
<path d="M4.39306 4.39309C4.80174 3.98441 5.46437 3.98441 5.87305 4.39309L6.4212 4.94124C6.82988 5.34992 6.82988 6.01253 6.4212 6.42123C6.0125 6.82991 5.34989 6.82991 4.94121 6.42123L4.39306 5.87308C3.98438 5.4644 3.98438 4.80177 4.39306 4.39309Z" fill="#414141"/>
<path d="M25.6059 4.39346C26.0146 4.80214 26.0146 5.46476 25.6059 5.87345L25.0578 6.4216C24.6491 6.83028 23.9865 6.83028 23.5778 6.4216C23.1691 6.0129 23.1691 5.35029 23.5778 4.94161L24.1259 4.39346C24.5346 3.98477 25.1972 3.98477 25.6059 4.39346Z" fill="#414141"/>
<path d="M23.5778 23.5778C23.9865 23.1691 24.6491 23.1691 25.0578 23.5778L25.6059 24.1259C26.0146 24.5346 26.0146 25.1972 25.6059 25.6059C25.1972 26.0146 24.5346 26.0146 24.1259 25.6059L23.5778 25.0578C23.1691 24.6491 23.1691 23.9865 23.5778 23.5778Z" fill="#414141"/>
<path d="M6.4212 23.5782C6.82988 23.9869 6.82988 24.6494 6.4212 25.0581L5.87305 25.6063C5.46437 26.015 4.80174 26.015 4.39306 25.6063C3.98438 25.1976 3.98438 24.535 4.39306 24.1263L4.94121 23.5782C5.34989 23.1695 6.0125 23.1695 6.4212 23.5782Z" fill="#414141"/>
</g>
</svg>
