<?xml version="1.0" encoding="UTF-8" standalone="no"?>
<!-- Uploaded to: SVG Repo, www.svgrepo.com, Transformed by: SVG Repo Mixer Tools -->

<svg fill="#000000" width="51.193001" height="41" viewBox="0 0 19.197375 15.375" role="img" version="1.1" id="svg7" sodipodi:docname="bootstrap-light-mode.svg" inkscape:version="1.2.2 (732a01da63, 2022-12-09)" xmlns:inkscape="http://www.inkscape.org/namespaces/inkscape" xmlns:sodipodi="http://sodipodi.sourceforge.net/DTD/sodipodi-0.dtd" xmlns="http://www.w3.org/2000/svg" xmlns:svg="http://www.w3.org/2000/svg">
  <defs id="defs11" />
  <sodipodi:namedview id="namedview9" pagecolor="#505050" bordercolor="#eeeeee" borderopacity="1" inkscape:showpageshadow="0" inkscape:pageopacity="0" inkscape:pagecheckerboard="0" inkscape:deskcolor="#505050" showgrid="false" inkscape:zoom="9.2807765" inkscape:cx="7.7579715" inkscape:cy="37.227488" inkscape:window-width="1920" inkscape:window-height="1001" inkscape:window-x="-9" inkscape:window-y="-9" inkscape:window-maximized="1" inkscape:current-layer="SVGRepo_iconCarrier" />
  <g id="SVGRepo_bgCarrier" stroke-width="0" />
  <g id="SVGRepo_tracerCarrier" stroke-linecap="round" stroke-linejoin="round" />
  <g id="SVGRepo_iconCarrier">
    <path d="m 9.4183046,7.0922369 h -1.42267 V 4.7096164 h 1.687755 c 0.9175974,0 1.4383544,0.4093904 1.4383544,1.1497435 0,0.790547 -0.606243,1.232877 -1.7050074,1.232877 z m 0.254105,0.945833 h -1.675991 v 2.6257451 h 1.749712 c 1.1442544,0 1.7504974,-0.4588 1.7504974,-1.3215001 0,-0.8627 -0.623497,-1.304245 -1.8242184,-1.304245 z M 19.00996,7.2098779 v 0.955244 c -0.884659,0.0847 -1.425024,0.740354 -1.745792,1.778731 -0.319199,1.0344551 -0.363118,2.3034091 -0.329394,3.2829651 0.03529,1.019555 -0.759175,1.960682 -1.832845,1.960682 H 4.0970146 c -1.0744536,0 -1.8689219,-0.941127 -1.8328453,-1.960682 0.033724,-0.979556 -0.010196,-2.24851 -0.3293946,-3.2829651 -0.3215518,-1.038377 -0.8627,-1.694029 -1.74735963,-1.778731 V 7.2098779 C 1.0720747,7.1251769 1.6140072,6.4695249 1.9339904,5.4311473 2.2539737,4.3966916 2.297893,3.1277383 2.263385,2.1481817 2.2280927,1.1286272 3.022561,0.18749994 4.0970146,0.18749994 H 15.101929 c 1.074453,0 1.868137,0.94112726 1.832845,1.96068176 -0.03372,0.9795566 0.01019,2.2485099 0.329394,3.2829656 0.320768,1.0383766 0.861133,1.6940296 1.745792,1.7787306 z m -6.216929,2.209296 c 0,-1.061905 -0.747411,-1.829708 -1.857157,-1.95127 v -0.0447 c 0.815643,-0.132542 1.45561,-0.89015 1.45561,-1.735596 0,-1.205427 -0.951323,-1.990484 -2.4014444,-1.990484 H 6.7274653 V 11.674747 H 10.00651 c 1.739516,0 2.786519,-0.851721 2.78652,-2.2555691 z" id="path4" style="fill:#363636;fill-opacity:1;stroke-width:1" />
  </g>
</svg>
