<?xml version="1.0" encoding="UTF-8" standalone="no"?>
<svg width="53" height="22" version="1.1" id="svg67" sodipodi:docname="flask-m-light-mode.svg" inkscape:version="1.2.2 (732a01da63, 2022-12-09)" xmlns:inkscape="http://www.inkscape.org/namespaces/inkscape" xmlns:sodipodi="http://sodipodi.sourceforge.net/DTD/sodipodi-0.dtd" xmlns:xlink="http://www.w3.org/1999/xlink" xmlns="http://www.w3.org/2000/svg" xmlns:svg="http://www.w3.org/2000/svg">
  <sodipodi:namedview id="namedview69" pagecolor="#505050" bordercolor="#eeeeee" borderopacity="1" inkscape:showpageshadow="0" inkscape:pageopacity="0" inkscape:pagecheckerboard="0" inkscape:deskcolor="#505050" showgrid="false" inkscape:zoom="5.1875" inkscape:cx="111.03614" inkscape:cy="50.60241" inkscape:window-width="1920" inkscape:window-height="1001" inkscape:window-x="-9" inkscape:window-y="-9" inkscape:window-maximized="1" inkscape:current-layer="svg67" />
  <g transform="matrix(0.11728457,0,0,0.11728457,-3.77525,-2.5404203)" id="g58" style="stroke-width:4.99906;fill:#363636;fill-opacity:1">
    <path d="m 96.945,182.034 c -7.282,-5.728 -15.05,-11.22 -20.36,-18.952 -11.17,-13.637 -19.77,-29.425 -25.65,-46.017 -3.554,-10.8 -4.77,-22.355 -9.352,-32.727 -4.792,-7.533 0.82,-15.768 9.073,-18.162 3.674,-0.705 10.133,-4.17 2.336,-1.694 -7,5.13 -7.667,-4.656 -0.5,-5.275 4.892,-0.65 6.693,-4.655 5.02,-8.26 -5.25,-3.424 12.734,-7.188 3.684,-12.298 -9.427,-10.17 13.186,-12.13 7.607,-0.578 -1.335,8.882 15.8,-1.628 11.825,8.63 4.04,4.926 15.134,1.12 14.858,8.03 5.887,0.405 7.908,5.358 13.434,5.738 5.728,2.587 16.1,4.625 18.06,11.08 -5.682,4.5 -18.84,-9.293 -19.473,3.16 1.717,18.396 1.28,37.346 8,54.865 3.184,10.608 10.9,18.958 17.87,27.22 6.67,8.1 15.702,13.787 24.9,18.583 8.076,3.8 16.784,6.335 25.586,7.92 3.57,-2.73 9.873,-12.883 15.442,-8.602 0.264,4.8 -11.054,10.055 -0.532,9.523 6.178,-1.864 10.463,4.778 15.55,-1.213 4.687,5.552 19.482,-3.547 16.147,7.8 -4.5,2.9 -11.087,1.15 -15.604,5.154 -7.448,-3.72 -13.377,3.328 -21.622,2.437 -9.156,1.64 -18.472,2.302 -27.755,2.316 -15.23,-1.203 -30.782,-1.7 -45.27,-7.013 -8.162,-2.372 -16.126,-7.02 -23.3,-11.668 z m 12.862,5.573 c 7.97,3.447 15.762,7.08 24.497,8.175 13.857,1.927 28.167,4.892 42.073,2.188 -6.294,-2.842 -12.8,1.107 -19.07,-2.032 -7.52,1.618 -15.6,-0.412 -23.236,-1.412 -8.694,-3.873 -18.076,-6.535 -26.218,-11.562 -10.173,-3.716 5.26,4.765 8,5.452 6.36,3.6 -6.993,-1.85 -8.876,-3.35 -5.326,-2.988 -6.005,-2.364 -0.527,0.67 1.103,0.646 2.194,1.322 3.35,1.872 z M 94.642,176.9 c 7.723,2.86 -0.034,-5.43 -3.573,-4.95 -1.568,-2.72 -6,-4.44 -2.87,-5.9 -5.612,1.948 -5.878,-7.408 -8.516,-6.07 -5.937,-1.875 -2.3,-8.515 -9.382,-12.593 -0.645,-4.297 -7.026,-8.024 -9.06,-14.505 -0.9,-3.318 -7.208,-12.848 -3.332,-3.98 3.3,8.537 9.107,15.85 13.94,23.152 3.752,6.953 8.182,14.22 15.016,18.558 2.303,2.2 4.527,5.595 7.78,6.288 z M 72.394,152.474 c 0.27,-1.166 1.412,2.524 0,0 z M 103.9,180.33 c 1.7,-0.766 -2.46,-0.965 0,0 z m 4.192,1.53 c -0.434,-2.112 -1.914,1.18 0,0 z m 5.247,2.2 c 2.498,-2.38 -3.85,-1.5 0,0 z m 8.994,5.013 c 1.518,-2.244 -4.86,-0.847 0,0 z M 105.054,177 c 3.88,-2.5 -5.012,-0.035 0,0 z m 3.937,1.963 c -0.1,-1.327 -1.403,0.594 0,0 z m 19.675,12.28 c 3.163,1.996 18.47,4.375 8.885,0.818 -1.604,0.338 -17.773,-4.573 -8.885,-0.818 z M 97.43,166.927 c -0.308,-1.33 -4.9,-1.47 0,0 z m 9.16,5.338 c 2.384,-1.663 -4.948,-1.282 0,0 z m 7.704,4.724 c 3.42,-1.3 -5.55,-1.296 0,0 z m -20.6,-14.12 c 3.7,2.846 14.968,0.365 5.684,-1.7 -4.226,-2.252 -13.75,-3.794 -7.258,1.358 l 1.574,0.34 z m 25.8,15.752 c 1.546,-2.634 -6.483,-1.504 0,0 z m -7.842,-6.233 c 9.075,2.567 -7.63,-5.74 -2.24,-0.945 l 1.195,0.54 1.044,0.404 z m 15.724,9.088 c 8.595,0.082 -7.763,-1.185 0,0 z M 90.4,157.896 c -0.336,-1.6 -2.12,0.134 0,0 z m 51.535,31.735 c 0.23,-2.9 -2.805,2.152 0,0 z m -36.868,-22.753 c -0.52,-1.523 -2.685,-0.062 0,0 z m -13.852,-9.986 c 4.934,-0.296 -6.755,-2.174 0,0 z m -16.4,-10.607 c -0.614,-2.365 -5.37,-4.252 0,0 z m 43.08,27.34 c -0.904,-1.03 -0.425,0.225 0,0 z m 26.814,16.455 c -0.086,-1.575 -1.46,0.596 0,0 z m -29.187,-18.905 c 0.483,-2.03 -4.207,-0.614 0,0 z m -19.976,-12.66 c 3.67,-0.393 -5.88,-2.482 0,0 z m 33.8,20.997 c 5.72,-2.266 -5.575,-1.106 0,0 z m -17.577,-11.93 c 6.593,0.85 -7.844,-4.484 -1.447,-0.477 z m 22.913,14.1 c 6.155,-3.68 4.126,8.617 10.443,1.04 6.23,-4.55 -5.38,5.625 2.298,0.8 5.554,-3.714 13.756,1.76 18.938,3.547 3.727,-0.183 7.35,3.222 11.17,1.15 7.354,-1.98 -14.38,-2.938 -8.683,-6.452 -6.73,1.958 -11.7,-2.335 -15.012,-6.645 -7.548,-1.743 -16.275,-5.602 -20.043,-12.282 -1.536,-2.508 2.22,0.353 -1.326,-3.746 -4.548,-4.045 -6.82,-8.638 -9.873,-13.555 -3.648,-1.946 -4.072,-7.673 -4.44,-0.192 0.03,-4.722 -4.404,-7.9 -5.486,-6.58 -0.02,-4.547 4.744,-2.268 1.4,-5.632 -0.718,-4.713 -3.08,-9.624 -3.8,-14.945 -1.104,-2.565 -0.155,-8.06 -3.767,-2.252 -1.316,6.137 -0.437,-7.54 1.6,-3.03 2.685,-4.603 -0.964,-4.06 -1.114,-3.422 1.75,-3.883 1.107,-9.392 -0.456,-7.3 0.932,-4.116 1.473,-15.148 -1.395,-13.193 1.738,-4.304 3.297,-19.694 -4.25,-13.826 -3.058,0.043 -8.355,1.1 -10.858,2.355 7.85,4.327 -0.8,1.563 -3.985,0.875 -0.416,4.004 -3.58,2.272 -7.535,2.3 6.315,0.78 -3.075,6.46 -6.698,4.254 -4.705,2.25 4.06,7.862 0.094,9.598 0.487,2.617 -7.208,-0.945 -6.604,5.098 -4.568,-1.922 -0.63,7.168 1.656,4.094 7.77,2.103 5.47,6.896 5.667,11.45 -1.266,2.653 -6.25,-6.237 -1.1,-5.825 -4.055,-6.587 -4.485,-2.38 -7.855,0.68 -0.784,0.222 8.594,4.354 2.7,6.397 5.178,0.8 5.325,5.33 6.38,8.197 3.112,3.242 2.475,-3.58 6.2,0.316 -2.356,-3.47 -12.482,-9.778 -4.33,-7.755 -0.044,-3.493 -1.474,-6.3 1.023,-6.24 2.473,-4.48 -2.6,11.044 2.985,5.35 1.543,-0.674 1.926,-4.485 4.7,0.36 4.03,3.964 1.455,6.836 -4.228,3.206 1.017,3.45 7.603,4.682 6.365,10.076 1.312,4.744 3.148,2.997 4.748,2.723 1.255,4.6 1.968,1.22 2.028,-0.974 5.747,1.23 4.4,4.628 6.2,7 3.96,1.788 -5.67,-12.117 1.13,-4.18 7.154,6.46 2.683,9.155 -3.737,8.12 4.063,-0.328 5.373,5.493 10.456,5.3 4.635,2.205 7.772,10.673 -0.216,7.148 -2.77,-2.498 -12.576,-5.58 -4.567,-0.828 7.397,3.425 13.27,5.474 20.405,9.774 5.105,3.645 7.3,7.82 9.246,8.645 -4.3,2.05 -12.93,-1.637 -6.515,-2.766 -4.002,-0.73 -8.503,-2.753 -4.67,2.233 3.26,2.72 11.547,2.433 13.033,2.74 -1.26,2.775 -3.42,2.996 0.052,3.2 -3.874,2.064 1.242,2.384 1.6,3.564 z m -7.92,-22.37 c -2.357,-2.465 -2.966,-7.08 -0.42,-3.064 1.306,0.525 4.185,7.544 0.42,3.064 z M 152.56,175.7 c 1.47,-0.095 0.043,1.117 0,0 z m -29.52,-22.43 c -0.1,-3.726 0.853,2.874 0,0 z m -2.564,-3.45 c -2.964,-5.728 3.737,1.622 0,0 z m -31.07,-21.445 c 1.742,-0.464 0.857,2.98 0,0 z m 24.728,13.404 c 1.07,-4.017 1.257,3.37 0,0 z m -17.47,-12.147 c -1.232,-2.216 2.576,2.08 0,0 z m 14.993,4.806 c -2.8,-6.292 1.988,-3.437 0.62,1.03 z M 85.78,117.18 c -1.256,-2.064 -3.333,-8.12 -2.664,-9.97 0.605,3 6.404,12.96 2.845,4.12 -3.933,-7.4 4.702,2.405 5.6,4.253 0.414,1.838 -2.427,-0.502 -0.502,3.808 -3.5,-4.908 -2.072,2.7 -5.268,-2.212 z m -8,-5.506 c 0.33,-4.8 1.83,3.3 0,0 z m 3.594,1.237 c 1.715,-3.623 2.908,5.05 0,0 z m -8.646,-6.688 c -2.975,-2.956 -5.128,-5.68 0.14,-1.835 2.03,0.08 -4.5,-6.197 0.5,-1.993 5.255,0.958 2.595,8.617 -0.628,3.828 z m 4.542,-0.12 c 1.728,-1.712 0.917,1.685 0,0 z m 2.795,0.896 c -2.62,-4.9 3.18,2.058 0,0 z m -5.555,-5.3 c -8.648,-7.697 10.867,4.025 1.413,1.427 L 74.5,101.7 Z m 24.78,14.397 c -3.743,-2.244 -0.992,-15.797 0.285,-6.528 3.638,-1.177 -0.2,4.787 2.513,4.732 -0.428,3.763 -1.642,5.116 -2.797,1.796 z m 9.165,5.417 c 0.367,-4.085 0.772,2.793 0,0 z m -1.592,-1.573 c 0.412,-1.745 0.043,2.055 0,0 z M 76.203,99.17 c -5.556,-7.666 16.147,7.754 3.56,1.944 -1.315,-0.344 -2.898,-0.467 -3.56,-1.944 z m 17.65,9.357 c -0.526,-6.455 1.174,1.07 0,0 z m 13.4,8.596 c 1.037,-3.677 0.077,2.432 0,0 z M 77.055,96.243 c 3.302,-0.706 13.685,5.8 4.15,1.858 -1.06,-1.173 -3.318,-0.64 -4.15,-1.858 z m 28.357,14.133 c 0.353,-6.6 1.97,-3.942 0.012,0.945 z m -25.9,-16.43 c 1.345,-1.974 -3.572,-8.923 0.7,-2.493 1.85,1.47 5.355,2.462 2.26,3.08 4.868,4.294 -1.187,1.164 -2.97,-0.587 z m 24.496,14.368 c 0.93,-7.518 0.82,4.405 0,0 z m -27.306,-21.3 c 1.028,-0.44 0.543,1.37 0,0 z m 6.4,3.803 c 1.644,-3.45 3.034,3.848 0,0 z m 18.024,10.026 c -0.017,-1.325 0.34,1.928 0,0 z m -1.044,-2.3 c -2.502,-6.172 2.327,3.268 0,0 z m -1.536,-4.046 c -0.42,-2.55 1.427,3.204 0,0 z m 2.5,-4.064 c -1.717,-3.025 2.168,-13.33 2.6,-6.94 -1.812,4.98 -0.523,7.766 0.74,1.086 2.334,-5.257 -0.504,10.374 -3.343,5.853 z m 2.57,-15.327 c 0.748,-0.92 0.166,1.107 0,0 z m -4.3,84.534 c -1.018,-0.888 0.128,0.565 0,0 z m 8.838,4.47 c 4.916,1.26 4.9,-0.765 0.448,-1.367 -2.4,-2.223 -9.93,-4.58 -3.18,-0.276 0.447,1.132 1.86,1.106 2.733,1.643 z M 90.7,152.487 c 2.708,2.02 10.2,5.724 3.858,0.77 2.14,-2.485 -4.093,-3.807 -2.026,-5.47 -5.258,-3.218 -4.148,-2.93 -0.464,-2.83 -6.32,-2.825 0.912,-2.613 0.572,-4.06 -2.437,-0.48 -12.103,-4.297 -6.416,0.313 -5.78,-2.948 -1.378,1.098 -3.125,0.67 -5.9,-1.612 5.264,4.502 -0.94,2.984 3.4,2.688 9.128,6.884 1.434,2.844 -1.014,1.46 5.506,3.67 7.107,4.78 z m 9.243,5.3 c 11.24,3.622 -5.5,-4.425 0,0 z m 47.316,28.664 c 0.145,-2.23 -1.536,1.902 0,0 z m 4.863,2.047 c 2.593,-2.513 0.106,4.002 4.297,-0.615 0.045,-3.305 -0.13,-5.258 -4.816,-1.243 -1.292,0.716 -1.87,3.763 0.52,1.858 z m -77.2,-48.482 c -0.796,-3.13 -5.582,-3.114 0,0 z m 5.193,3.403 c -1.928,-3.197 -6.88,-2.895 0,0 z m 29.543,17.817 c 2.884,2.562 13.248,1.88 3.503,0.315 -1.443,-2.134 -9.164,-1.62 -3.503,-0.315 z m 40.612,25.082 c 4.44,-3.725 -4.3,1.662 0,0 z m 9.233,6.345 c 0.028,-1.195 -1.914,0.523 0,0 z m 0.014,-1.674 c 4.916,-5.2 -4.763,0.308 0,0 z M 62.16,129.333 c -4.2,-5.978 -2.605,-8.665 -6.645,-13.547 -0.765,-3.733 -6.932,-12.203 -3.2,-3.23 3.428,5.248 4.446,13.374 9.835,16.776 z m 95.826,60 c 9.044,-5.846 -3.713,-2.546 0,0 z m 6.904,2.705 c 4.53,-3.9 -2.865,-0.813 0,0 z m -91.497,-58.63 c 1.296,-1.928 -3.348,-0.247 0,0 z M 163.45,190.2 c 4.385,-2.827 -1,-2.393 -0.795,0.26 z m -59.514,-37.512 c -0.15,-1.9 -2.316,0.162 0,0 z m 3.678,2.116 c -1.17,-2.363 -1.797,0.37 0,0 z m 62.873,37.306 c 5.618,-4.053 -3.406,-0.776 -1.18,0.768 z m -2.15,-1.04 c 4.577,-3.835 -4.832,1.7 0,0 z m 10.992,7.32 c 3.073,-2.058 -3.733,-0.666 0,0 z M 76.2,132.028 c 4.12,0.923 16.46,10.144 9.18,0.638 -3.73,-1.104 -1.493,-10.22 -5.296,-8.606 2.553,4.265 2.1,6.08 -3.26,3.4 -6.737,-3.3 -3.786,1.63 -2.47,2.985 -1.794,0.408 2.373,1.557 1.846,1.6 z m -18.766,-14.82 c 0.737,-3.05 -6.8,-16.78 -3.554,-6.88 1.168,2.074 1.05,6.004 3.554,6.88 z m 34.443,21.235 c -2.12,-1.774 -0.1,-0.25 0,0 z m 5.223,1.215 c -0.003,-3.23 -5.773,-1.312 0,0 z m 45.26,28.533 c -0.863,-2.207 -3.412,-0.05 0,0 z m 2.174,1.588 c -0.32,-1.235 -1.254,0.238 0,0 z m 17.94,11.3 c 1.725,-1.275 -2.153,-0.163 0,0 z M 66.82,119.6 c 4.935,-1.9 -5.288,-1.362 0,0 z m 71.57,45.1 c -0.055,-3.195 -3.146,0.793 0,0 z M 64.87,115.067 c 3.17,-1.07 -2.933,-0.705 0,0 z m 9.202,4.457 c -0.058,-1.05 -0.973,0.397 0,0 z m 112.23,68.822 c 4.077,-0.827 13.366,2.075 14.868,-1.08 -4.95,-0.12 -17.127,-3.493 -17.703,0.805 l 1.084,0.17 1.752,0.105 z M 76.995,120.25 c 0.07,-3.238 -2.525,-0.12 0,0 z M 52.802,103.47 c -1.1,-6.168 -4.18,-0.934 0,0 z m 5.77,1.45 c 0.07,-1.98 -5.28,-1.782 0,0 z m 3.297,1.62 c -0.953,-0.772 -0.746,0.975 0,0 z m 20.745,13.308 c 0.977,-0.897 -2.312,-0.665 0,0 z m -22.94,-16.96 c -0.558,-4.66 -6.682,-0.698 0,0 z M 47.846,95.213 c -0.168,-2.15 -1.153,0.8 0,0 z m 1.76,-1.33 c -0.287,-2.55 -1.5,0.324 0,0 z m 9.72,5.802 c 4.1,-1.615 -7.487,-3.34 -0.84,-0.305 z m 130.098,80.36 c 2.63,-2.412 -3.344,-0.746 0,0 z m 15.717,8.147 c 1.054,-3.12 -2.655,0.4 0,0 z M 60.318,94.6 c 0.433,-3.017 -3.26,0.6 0,0 z m -13.83,-9.266 c -0.743,-4.26 -0.64,-11.735 6.465,-9.2 -9.486,1.883 6.565,11.8 4.538,3.968 4,0.195 7.803,-2.357 5.7,1.516 7.86,-0.868 13.307,-7.683 20.898,-6.728 5.913,-0.782 12.378,-1.376 18.75,-3.756 5.24,-0.377 10.282,-6.018 7.4,-9.36 -7.145,-0.605 -14.623,0.3 -22.52,1.86 -8.75,1.82 -16.7,5.275 -25.528,6.76 -8.606,1.156 1.73,3.185 -0.734,3.637 -4.5,1.558 5.355,2.6 -0.582,4.25 -3.667,-0.697 -7.484,-1.957 -5.917,-5.822 -8.244,1.07 -15.488,4.5 -8.975,12.88 l 0.484,0.004 z M 66.352,75.217 c 1.933,-7.12 10.355,5.86 3.168,0.946 -0.858,-0.642 -2.27,-1.167 -3.168,-0.946 z m 0.376,-3.452 c 2.8,-2.078 1.483,1.165 0,0 z m 3.542,0.056 c 0.252,-3.276 8.1,1.735 1.296,1.18 z m 4.845,-1.948 c 1.77,-2.068 0.5,1.84 0,0 z m 1.24,-0.83 c 2.946,-3.54 16.686,-2.26 6.63,-0.345 -2.696,-2.03 -4.762,1.197 -6.63,0.345 z m 17.93,-2.764 c -0.448,-9.67 8.908,3.436 0,0 z m 5.088,-0.028 c 1.86,-4.874 7.218,-1.956 0.86,-0.98 0.138,0.52 -0.186,2.516 -0.86,0.98 z M 58.312,92.1 c 5.558,-3.403 -5.9,-2.953 0,0 z m 4.1,1.142 c 1.95,-2.072 -4.234,-0.84 0,0 z M 50.314,84.64 c 3.176,-2.44 -3.758,-0.927 0,0 z M 214.416,187.3 c 0.092,-2.83 -2.427,1.275 0,0 z m -16.675,-11.38 c 0.474,-3.258 -2.143,0.284 0,0 z M 219,188.397 c 4.44,0.015 13.453,-1.38 3.792,-1.374 -1.516,0.236 -8.833,0.186 -3.792,1.374 z M 66.036,91.233 c 3.593,-0.247 5.622,-3.964 -0.695,-3.75 -9.8,-1.014 8.638,3.352 -1.256,2.104 -1.33,0.88 1.874,1.9 1.95,1.646 z m 3.165,1.602 c -0.375,-2.307 -1.1,1.226 0,0 z m 3.754,-10 c 1.56,-1.934 -2.158,-0.517 0,0 z M 61.004,62.85 c 6.413,-2.182 15.182,-4.633 18.2,1.074 -3.082,-3.7 -1.244,-7.36 1.667,-1.937 4.116,5.487 6.176,-2.495 3.5,-4.336 3.05,3.8 6.52,5.58 2.042,0.24 4.866,-5.853 -9.743,0.766 -13.063,0.7 -1.598,0.717 -16.494,3.8 -12.356,4.26 z m 3.758,-7.198 c 3.657,-2.76 12.65,1.642 6.88,-2.743 -0.564,-0.498 -12.636,3.325 -6.88,2.743 z m 13.333,0.55 c 4.28,0.1 -1.846,-5.75 3.254,-3.095 -0.838,-2.737 -5.94,-3.25 -8.432,-4.342 -1.4,2.502 2.87,7.47 5.178,7.437 z M 67.1,44.1 c 1.48,-2.007 -2.595,1.018 0,0 z m 5.45,1.304 c 6.898,-0.915 -1.758,-2.97 -1.4,-0.074 z M 62.374,37.44 c -4.857,-6.34 9.134,1.066 4.2,-5.573 -4.153,-3.307 -8.144,3.722 -4.2,5.573 z m 62.33,33.573 c 2.228,-3.95 -9.197,-5.323 -1.5,-1.4 0.7,0.237 0.548,1.673 1.5,1.4 z M 229.852,43.778 c -0.797,3.14 -1.3,8.414 -1.477,15.82 0,1.453 -0.656,2.18 -1.97,2.18 -1.314,0 -2.227,-0.633 -2.742,-1.898 -1.406,-3.422 -2.742,-5.812 -4.008,-7.172 -1.5,-1.594 -3.492,-2.555 -5.977,-2.883 -2.672,-0.422 -9.328,-0.633 -19.97,-0.633 -2.438,0 -4.03,0.258 -4.78,0.773 -0.47,0.328 -0.703,1.03 -0.703,2.1 v 31.852 c 0,1.078 0.68,1.594 2.04,1.547 4.172,-0.047 10.22,-0.328 18.14,-0.844 1.547,-0.187 2.6,-0.7 3.13,-1.512 0.53,-0.812 1.066,-2.94 1.582,-6.363 0.328,-1.875 1.43,-2.602 3.305,-2.18 1.594,0.328 2.273,1.055 2.04,2.18 -1.313,6.375 -1.734,14.672 -1.266,24.9 0.047,1.22 -0.727,1.875 -2.32,1.97 -1.313,0.14 -2.133,-0.562 -2.46,-2.1 -1.22,-5.86 -3.48,-8.988 -6.785,-9.387 -3.305,-0.399 -8.684,-0.598 -16.137,-0.598 -0.844,0 -1.266,0.305 -1.266,0.914 v 31.64 c 0,2.344 0.867,3.937 2.602,4.78 1.36,0.703 4.3,1.336 8.8,1.898 2.297,0.234 3.305,1.242 3.023,3.023 -0.28,1.547 -2.344,2.156 -6.187,1.828 -11.1,-0.9 -20.273,-0.844 -27.492,0.14 -2.016,0.28 -3.023,-0.54 -3.023,-2.46 0,-1.22 1.008,-1.922 3.023,-2.1 4.594,-0.516 6.9,-4.547 6.9,-12.094 V 58.895 c 0,-3.094 -0.55,-5.473 -1.652,-7.137 -1.102,-1.664 -3.152,-3.176 -6.152,-4.535 -1.875,-0.844 -2.578,-1.992 -2.1,-3.445 0.234,-0.9 0.6,-1.383 1.125,-1.477 0.47,-0.14 1.7,-0.047 3.727,0.28 2.953,0.47 9.914,0.703 20.883,0.703 12.937,0 24.117,-0.28 33.54,-0.844 3.14,-0.187 4.7,0.07 4.7,0.773 a 2.36,2.36 0 0 1 -0.07,0.563 z m 45.703,89.367 c 0,1.875 -1.055,2.695 -3.164,2.46 -6.47,-0.6 -14.484,-0.516 -24.047,0.28 -1.922,0.187 -3.105,0.14 -3.55,-0.14 -0.445,-0.28 -0.668,-1.055 -0.668,-2.32 0,-1.125 1.277,-2.074 3.832,-2.848 2.555,-0.774 3.832,-3.082 3.832,-6.926 V 60.02 c 0,-3.797 -0.55,-6.586 -1.652,-8.367 -1.102,-1.781 -3.035,-3.164 -5.8,-4.148 -1.453,-0.516 -2.18,-1.242 -2.18,-2.18 0,-1.406 1.055,-2.46 3.164,-3.164 3.187,-1.03 6.492,-2.625 9.914,-4.78 2.812,-1.687 4.594,-2.53 5.344,-2.53 1.734,0 2.602,1.195 2.602,3.586 0,-0.187 -0.094,2.156 -0.28,7.03 a 335.89,335.89 0 0 0 -0.14,13.71 l 0.28,62.8 c 0,2.86 0.703,4.934 2.1,6.223 1.397,1.289 3.82,2.145 7.242,2.566 2.1,0.234 3.164,1.03 3.164,2.4 z m 64.125,-4.7 c 0,0.984 -1.793,2.473 -5.38,4.465 -3.587,1.992 -6.457,2.988 -8.613,2.988 -1.828,0 -3.445,-0.9 -4.852,-2.672 -1.407,-1.772 -2.4,-2.672 -2.953,-2.672 -0.422,0 -2.648,0.96 -6.68,2.883 -4.032,1.923 -8.086,2.883 -12.164,2.883 -3.844,0 -7.055,-1.125 -9.633,-3.375 -2.813,-2.484 -4.22,-5.86 -4.22,-10.125 0,-8.1 9.28,-13.922 27.844,-17.437 3.187,-0.6 4.805,-1.898 4.852,-3.867 l 0.14,-4.5 c 0.28,-7.687 -3.117,-11.53 -10.195,-11.53 -2.016,0 -3.926,1.805 -5.73,5.414 -1.804,3.609 -4.395,5.555 -7.77,5.836 -3.844,0.375 -5.766,-1.242 -5.766,-4.852 0,-2.25 2.86,-4.875 8.578,-7.875 6,-3.14 11.766,-4.7 17.297,-4.7 9.516,0 14.227,4.523 14.133,13.57 l -0.28,28.97 c -0.047,3.047 1.242,4.57 3.867,4.57 0.516,0 1.5,-0.117 2.953,-0.352 1.453,-0.235 2.297,-0.352 2.53,-0.352 1.36,0 2.04,0.914 2.04,2.742 z m -21.656,-16.03 c 0.047,-1.172 -0.223,-1.945 -0.8,-2.32 -0.577,-0.375 -1.512,-0.445 -2.777,-0.2 -11.297,2.016 -16.945,5.695 -16.945,11.04 0,5.4 2.93,8.086 8.8,8.086 2.344,0 4.758,-0.445 7.242,-1.336 2.906,-1.03 4.36,-2.273 4.36,-3.727 z m 74.11,7.652 c 0,4.97 -1.9,8.918 -5.73,11.848 -3.83,2.93 -9.035,4.395 -15.645,4.395 -4.406,0 -8.813,-0.47 -13.22,-1.406 -3.797,-0.844 -6,-1.617 -6.6,-2.32 -0.375,-0.656 -0.563,-3.867 -0.562,-9.633 0,-2.484 0.562,-3.773 1.688,-3.867 1.125,-0.14 2.086,0.47 2.883,1.828 3.516,6.14 9.187,9.2 17.016,9.2 6.6,0 9.914,-2.297 9.914,-6.9 0,-2.016 -0.75,-3.703 -2.25,-5.062 -1.64,-1.547 -4.828,-3.352 -9.562,-5.414 -6.844,-3.047 -11.414,-5.72 -13.7,-8.016 -2.484,-2.437 -3.727,-5.72 -3.727,-9.844 0,-5.062 1.945,-9 5.836,-11.812 3.6,-2.72 8.437,-4.078 14.484,-4.078 3.797,0 7.266,0.305 10.406,0.914 3.375,0.6 5.133,1.36 5.273,2.25 0.375,2.625 1.148,6.422 2.32,11.4 0.14,0.6 -0.516,1.102 -1.97,1.477 -1.547,0.328 -2.578,0.07 -3.094,-0.773 -3.703,-6.047 -8.4,-9.07 -14.062,-9.07 -6.422,0 -9.633,2.063 -9.633,6.188 0,2.297 0.867,4.125 2.602,5.484 1.547,1.172 5.18,3 10.898,5.484 6,2.578 10.078,4.898 12.234,6.96 2.812,2.672 4.22,6.258 4.22,10.758 z m 81.563,12.656 c 0,1.64 -1.102,2.508 -3.305,2.602 -3.28,0.047 -7.57,0.28 -12.867,0.703 -2.625,0.516 -4.5,0.188 -5.625,-0.984 -7.406,-7.97 -13.688,-16.312 -18.844,-25.03 -0.422,-0.75 -0.96,-1.125 -1.617,-1.125 -0.797,0 -2.18,0.703 -4.148,2.1 -2.203,1.22 -3.305,2.953 -3.305,5.203 0,1.594 0.047,3.9 0.14,6.9 0.093,3 0.844,4.97 2.25,5.906 0.984,0.656 3.258,1.172 6.82,1.547 2.203,0.28 3.305,1.102 3.305,2.46 0,1.078 -0.176,1.746 -0.527,2.004 -0.351,0.258 -1.277,0.316 -2.777,0.176 -4.688,-0.422 -12.6,-0.187 -23.766,0.703 -2.813,0.234 -4.336,-0.117 -4.57,-1.055 -0.094,-0.328 -0.14,-0.797 -0.14,-1.406 0,-1.453 1.43,-2.555 4.3,-3.305 2.578,-0.656 3.867,-3.68 3.867,-9.07 V 59.598 c 0,-3.844 -0.375,-6.516 -1.125,-8.016 -1.03,-1.922 -3.188,-3.422 -6.47,-4.5 -1.547,-0.516 -2.32,-1.242 -2.32,-2.18 0,-1.36 1.102,-2.414 3.305,-3.164 3.516,-1.172 6.867,-2.8 10.055,-4.852 2.578,-1.687 4.172,-2.53 4.78,-2.53 1.922,0 2.883,1.22 2.883,3.656 0,-0.328 -0.023,1.992 -0.07,6.96 l -0.07,13.78 0.14,44.016 c 0,1.22 0.328,1.828 0.984,1.828 0.703,0 1.78,-0.6 3.234,-1.828 3.9,-3.047 8.672,-7.03 14.344,-11.953 1.125,-1.172 1.687,-2.1 1.688,-2.812 0,-1.266 -1.898,-2.156 -5.695,-2.672 -1.64,-0.187 -2.414,-1.102 -2.32,-2.742 0.14,-1.64 0.96,-2.344 2.46,-2.1 3.375,0.47 8.297,0.727 14.766,0.773 l 13.43,0.07 c 1.453,0.047 2.18,0.914 2.18,2.602 0,1.594 -1.15,2.46 -3.445,2.602 -3.6,0.14 -7.008,0.96 -10.195,2.46 -4.453,2.016 -9.2,5.555 -14.273,10.617 -0.375,0.28 -0.563,0.633 -0.562,1.055 0,0.656 0.797,2.227 2.4,4.7 5.86,8.906 11.4,15.633 16.594,20.18 3.328,2.86 6.445,4.3 9.352,4.3 2.156,0 3.492,0.152 4.008,0.457 0.516,0.305 0.773,1.113 0.773,2.426 z M 285.18,157.23 c 0,0.164 -0.314,0.333 -0.943,0.506 -0.4,0.1 -0.757,0.483 -1.04,1.12 l -4.402,8.818 c -0.027,0.055 -0.096,0.077 -0.205,0.068 -0.1,-0.01 -0.17,-0.04 -0.205,-0.096 -0.22,-0.328 -0.78,-1.472 -1.682,-3.432 l -1.34,-2.707 c -0.1,0 -0.588,0.87 -1.463,2.6 l -1.764,3.322 c -0.027,0.064 -0.1,0.1 -0.2,0.082 a 0.27,0.27 0 0 1 -0.232,-0.11 c -0.665,-1.04 -2.197,-3.883 -4.594,-8.53 -0.273,-0.547 -0.58,-0.893 -0.916,-1.04 -0.583,-0.255 -0.875,-0.442 -0.875,-0.56 0,-0.355 0.196,-0.515 0.588,-0.48 1.76,0.182 3.3,0.146 4.62,-0.1 0.3,-0.055 0.45,0.046 0.45,0.3 0,0.355 -0.205,0.583 -0.615,0.684 -0.538,0.128 -0.807,0.328 -0.807,0.602 0,0.173 0.064,0.428 0.2,0.766 0.328,0.848 0.82,1.923 1.477,3.227 0.657,1.304 1.04,1.955 1.148,1.955 0.073,0 0.46,-0.68 1.162,-2.037 l 1.053,-2.256 c 0,-0.355 -0.12,-0.738 -0.355,-1.148 -0.283,-0.602 -0.6,-0.962 -0.984,-1.08 -0.602,-0.2 -0.902,-0.415 -0.902,-0.615 0,-0.365 0.205,-0.515 0.615,-0.45 1.404,0.2 2.9,0.155 4.457,-0.1 0.3,-0.055 0.45,0.036 0.45,0.273 0,0.346 -0.223,0.56 -0.67,0.643 -0.53,0.1 -0.793,0.37 -0.793,0.807 0,0.2 0.06,0.456 0.178,0.738 1.404,3.436 2.215,5.154 2.434,5.154 0.082,0 0.447,-0.67 1.094,-2 0.693,-1.43 1.176,-2.584 1.45,-3.46 0.018,-0.046 0.027,-0.096 0.027,-0.15 0,-0.392 -0.305,-0.697 -0.916,-0.916 -0.474,-0.155 -0.7,-0.328 -0.7,-0.52 0,-0.32 0.15,-0.442 0.45,-0.37 0.4,0.1 1.148,0.16 2.215,0.205 l 1.982,-0.014 c 0.374,-0.046 0.56,0.06 0.56,0.314 z" id="path2" style="stroke-width:4.99906;fill:#363636;fill-opacity:1" />
    <use xlink:href="#B" id="use4" style="stroke-width:4.99906;fill:#363636;fill-opacity:1" />
    <path d="m 311.116,161.14 c 0,1.805 -0.63,3.318 -1.887,4.54 -1.203,1.176 -2.634,1.764 -4.293,1.764 -0.94,0 -1.92,-0.155 -2.94,-0.465 -0.984,-0.3 -1.48,-0.574 -1.5,-0.82 l 0.014,-2.2 0.04,-3.363 -0.055,-8.6 c 0,-0.656 -0.1,-1.107 -0.3,-1.354 -0.182,-0.22 -0.58,-0.392 -1.19,-0.52 -0.237,-0.082 -0.355,-0.232 -0.355,-0.45 0,-0.19 0.178,-0.35 0.533,-0.48 0.5,-0.182 1.144,-0.488 1.9,-0.916 0.602,-0.337 0.975,-0.506 1.12,-0.506 0.283,0 0.424,0.232 0.424,0.697 l -0.04,1.422 -0.014,2.61 0.027,4.73 c 0,0.447 0.155,0.574 0.465,0.383 1.094,-0.63 2.233,-0.943 3.418,-0.943 1.367,0 2.48,0.412 3.336,1.237 0.856,0.825 1.285,1.903 1.285,3.233 z m -2.187,1.217 c 0,-1.25 -0.346,-2.274 -1.04,-3.076 -0.656,-0.757 -1.454,-1.135 -2.393,-1.135 a 4.01,4.01 0 0 0 -1.914,0.506 c -0.63,0.337 -0.943,0.693 -0.943,1.066 v 3.664 c 0,1.76 0.97,2.64 2.912,2.64 1.012,0 1.827,-0.326 2.447,-0.978 0.62,-0.652 0.93,-1.547 0.93,-2.687 z" id="path6" style="stroke-width:4.99906;fill:#363636;fill-opacity:1" />
    <use xlink:href="#C" id="use8" style="stroke-width:4.99906;fill:#363636;fill-opacity:1" />
    <use xlink:href="#B" x="47.796001" id="use10" style="stroke-width:4.99906;fill:#363636;fill-opacity:1" />
    <path d="m 360.09,157.202 c 0,0.173 -0.287,0.35 -0.86,0.533 -0.374,0.11 -0.693,0.483 -0.957,1.12 -0.447,1.076 -1.226,2.652 -2.338,4.73 l -2.174,3.855 c -0.027,0.064 -0.087,0.09 -0.178,0.082 a 0.27,0.27 0 0 1 -0.205,-0.109 c -1.932,-2.78 -3.587,-5.624 -4.963,-8.53 -0.292,-0.62 -0.58,-0.966 -0.86,-1.04 -0.53,-0.2 -0.793,-0.396 -0.793,-0.56 0,-0.365 0.178,-0.524 0.533,-0.48 0.556,0.073 1.38,0.09 2.475,0.055 l 2.23,-0.164 c 0.264,-0.055 0.396,0.046 0.396,0.3 0,0.32 -0.187,0.524 -0.56,0.615 -0.71,0.19 -1.066,0.438 -1.066,0.738 0,0.137 0.046,0.333 0.137,0.588 0.3,0.766 0.866,1.87 1.668,3.315 0.802,1.445 1.258,2.167 1.367,2.167 0.082,0 0.47,-0.693 1.162,-2.078 l 1.572,-3.555 c 0.046,-0.1 0.068,-0.2 0.068,-0.3 0,-0.355 -0.22,-0.647 -0.656,-0.875 -0.428,-0.173 -0.643,-0.337 -0.643,-0.492 0,-0.32 0.14,-0.45 0.424,-0.396 0.365,0.064 1.007,0.12 1.928,0.164 l 1.79,0.027 c 0.337,-0.064 0.506,0.032 0.506,0.287 z" id="path12" style="stroke-width:4.99906;fill:#363636;fill-opacity:1" />
    <use xlink:href="#B" x="74.921997" id="use14" style="stroke-width:4.99906;fill:#363636;fill-opacity:1" />
    <path d="m 380.665,166.882 c 0,0.365 -0.205,0.524 -0.615,0.48 -1.258,-0.118 -2.816,-0.1 -4.676,0.055 -0.374,0.037 -0.604,0.027 -0.7,-0.027 -0.096,-0.054 -0.13,-0.205 -0.13,-0.45 0,-0.22 0.248,-0.403 0.745,-0.554 0.497,-0.151 0.745,-0.6 0.745,-1.347 v -12.373 c 0,-0.738 -0.107,-1.28 -0.32,-1.627 -0.213,-0.347 -0.6,-0.615 -1.128,-0.807 -0.283,-0.1 -0.424,-0.242 -0.424,-0.424 0,-0.273 0.205,-0.48 0.615,-0.615 0.62,-0.2 1.262,-0.5 1.928,-0.93 0.547,-0.328 0.893,-0.492 1.04,-0.492 0.337,0 0.506,0.232 0.506,0.697 0,-0.036 -0.018,0.42 -0.055,1.367 l -0.027,2.666 0.055,12.21 c 0,0.556 0.137,0.96 0.4,1.2 0.263,0.24 0.743,0.417 1.408,0.5 0.4,0.046 0.615,0.2 0.615,0.465 z" id="path16" style="stroke-width:4.99906;fill:#363636;fill-opacity:1" />
    <use xlink:href="#D" id="use18" style="stroke-width:4.99906;fill:#363636;fill-opacity:1" />
    <use xlink:href="#E" id="use20" style="stroke-width:4.99906;fill:#363636;fill-opacity:1" />
    <path d="m 432.905,166.91 c 0,0.3 -0.14,0.442 -0.424,0.424 -1.86,-0.137 -3.59,-0.137 -5.195,0 -0.355,0.027 -0.533,-0.132 -0.533,-0.48 0,-0.273 0.242,-0.42 0.725,-0.437 0.61,-0.037 0.916,-0.533 0.916,-1.5 V 161.3 c 0,-2.042 -0.83,-3.062 -2.488,-3.062 -0.875,0 -1.677,0.16 -2.406,0.48 -0.665,0.283 -1.003,0.565 -1.012,0.848 l -0.055,5.428 c 0,0.565 0.068,0.94 0.205,1.12 0.1,0.128 0.324,0.22 0.67,0.273 0.802,0.137 1.203,0.305 1.203,0.506 0,0.173 -0.023,0.292 -0.068,0.355 -0.055,0.09 -0.22,0.132 -0.492,0.123 -1.04,-0.036 -2.552,-0.018 -4.54,0.055 -0.283,0.01 -0.465,-0.014 -0.547,-0.068 -0.082,-0.054 -0.123,-0.182 -0.123,-0.383 0,-0.237 0.26,-0.383 0.78,-0.437 0.565,-0.064 0.848,-0.58 0.848,-1.545 v -3.72 c 0,-1.003 -0.228,-1.777 -0.684,-2.324 -0.4,-0.492 -0.91,-0.738 -1.53,-0.738 -0.91,0 -1.732,0.185 -2.46,0.554 -0.728,0.369 -1.094,0.763 -1.094,1.183 v 5 c 0,0.565 0.146,0.957 0.438,1.176 0.264,0.2 0.743,0.324 1.436,0.37 0.374,0.018 0.56,0.146 0.56,0.383 0,0.264 -0.15,0.396 -0.45,0.396 l -4.95,0.19 c -0.346,0.046 -0.57,0.046 -0.67,0 -0.082,-0.046 -0.123,-0.155 -0.123,-0.328 0,-0.228 0.337,-0.424 1.012,-0.588 0.4,-0.11 0.615,-0.643 0.615,-1.6 v -4.197 c 0,-1.066 -0.287,-1.682 -0.86,-1.846 -0.483,-0.137 -0.777,-0.237 -0.882,-0.3 -0.105,-0.063 -0.157,-0.17 -0.157,-0.314 0,-0.164 0.474,-0.5 1.422,-1.04 1.003,-0.565 1.618,-0.848 1.846,-0.848 0.19,0 0.353,0.276 0.485,0.827 0.132,0.551 0.235,0.827 0.308,0.827 0.1,0 0.378,-0.14 0.834,-0.424 0.565,-0.355 1.076,-0.62 1.53,-0.793 0.747,-0.292 1.518,-0.437 2.31,-0.437 0.638,0 1.194,0.137 1.668,0.4 a 3.13,3.13 0 0 1 0.889,0.752 l 0.328,0.4 c 0,0 0.237,-0.137 0.71,-0.4 0.556,-0.32 1.098,-0.57 1.627,-0.752 a 6.76,6.76 0 0 1 2.256,-0.41 c 2.497,0 3.746,1.372 3.746,4.115 v 4.43 c 0,0.52 0.123,0.89 0.37,1.107 0.22,0.182 0.647,0.337 1.285,0.465 0.483,0.09 0.725,0.228 0.725,0.4 z" id="path22" style="stroke-width:4.99906;fill:#363636;fill-opacity:1" />
    <use xlink:href="#B" x="147.164" id="use24" style="stroke-width:4.99906;fill:#363636;fill-opacity:1" />
    <path d="m 460.864,167.032 c 0,0.283 -0.205,0.4 -0.615,0.383 l -4.457,-0.055 c -0.52,0.037 -0.802,-0.027 -0.848,-0.19 a 0.77,0.77 0 0 1 -0.027,-0.232 c 0,-0.182 0.264,-0.346 0.793,-0.492 0.483,-0.137 0.725,-0.606 0.725,-1.408 V 161.4 c 0,-2.087 -0.907,-3.13 -2.72,-3.13 -0.81,0 -1.563,0.19 -2.256,0.574 -0.656,0.374 -0.984,0.76 -0.984,1.162 v 5.004 c 0,0.857 0.56,1.335 1.682,1.436 0.428,0.036 0.643,0.173 0.643,0.4 0,0.228 -0.06,0.365 -0.178,0.4 -0.055,0.018 -0.2,0.023 -0.465,0.014 a 26.22,26.22 0 0 0 -4.43,0.219 c -0.328,0.046 -0.533,0.06 -0.615,0.04 -0.182,-0.036 -0.273,-0.178 -0.273,-0.424 0,-0.22 0.26,-0.406 0.78,-0.56 0.483,-0.146 0.725,-0.752 0.725,-1.818 v -4.143 c 0,-0.702 -0.09,-1.148 -0.273,-1.34 -0.128,-0.137 -0.55,-0.328 -1.27,-0.574 a 0.37,0.37 0 0 1 -0.273,-0.383 c 0,-0.182 0.187,-0.342 0.56,-0.48 0.5,-0.19 1.07,-0.497 1.682,-0.916 0.5,-0.346 0.84,-0.52 0.984,-0.52 0.246,0 0.4,0.28 0.492,0.84 0.092,0.56 0.196,0.84 0.342,0.84 -0.073,0 0.392,-0.267 1.395,-0.8 1.003,-0.533 1.992,-0.8 2.967,-0.8 2.36,0 3.55,1.344 3.568,4.033 l 0.027,4.402 c 0,0.565 0.146,0.97 0.438,1.217 0.22,0.182 0.643,0.337 1.27,0.465 0.4,0.082 0.615,0.232 0.615,0.45 z" id="path26" style="stroke-width:4.99906;fill:#363636;fill-opacity:1" />
    <use xlink:href="#F" id="use28" style="stroke-width:4.99906;fill:#363636;fill-opacity:1" />
    <path d="m 475.848,166.61 c 0,2.37 -0.998,4.152 -2.994,5.346 -0.182,0.11 -0.314,0.164 -0.396,0.164 -0.128,0 -0.246,-0.146 -0.355,-0.437 -0.036,-0.1 -0.055,-0.182 -0.055,-0.246 0,-0.155 0.26,-0.4 0.78,-0.766 0.893,-0.62 1.34,-1.322 1.34,-2.105 0,-0.4 -0.26,-0.766 -0.78,-1.094 -0.73,-0.456 -1.094,-1.016 -1.094,-1.682 0,-0.447 0.15,-0.818 0.45,-1.114 0.3,-0.296 0.702,-0.444 1.203,-0.444 0.602,0 1.07,0.22 1.4,0.656 0.33,0.436 0.5,1.012 0.5,1.723 z" id="path30" style="stroke-width:4.99906;fill:#363636;fill-opacity:1" />
    <use xlink:href="#D" x="-114.953" y="25.200001" id="use32" style="stroke-width:4.99906;fill:#363636;fill-opacity:1" />
    <path d="m 295.598,192.232 c 0,0.283 -0.205,0.4 -0.615,0.383 l -4.457,-0.055 c -0.52,0.036 -0.802,-0.027 -0.848,-0.19 a 0.77,0.77 0 0 1 -0.027,-0.232 c 0,-0.182 0.264,-0.346 0.793,-0.492 0.483,-0.137 0.725,-0.606 0.725,-1.408 V 186.6 c 0,-2.087 -0.907,-3.13 -2.72,-3.13 -0.81,0 -1.563,0.19 -2.256,0.574 -0.656,0.374 -0.984,0.76 -0.984,1.162 v 5.004 c 0,0.857 0.56,1.335 1.682,1.436 0.428,0.036 0.643,0.173 0.643,0.4 0,0.228 -0.06,0.365 -0.178,0.4 -0.055,0.018 -0.2,0.023 -0.465,0.014 a 26.22,26.22 0 0 0 -4.43,0.219 c -0.328,0.046 -0.533,0.06 -0.615,0.04 -0.182,-0.036 -0.273,-0.178 -0.273,-0.424 0,-0.22 0.26,-0.406 0.78,-0.56 0.483,-0.146 0.725,-0.752 0.725,-1.818 v -4.143 c 0,-0.702 -0.09,-1.148 -0.273,-1.34 -0.128,-0.137 -0.55,-0.328 -1.27,-0.574 a 0.37,0.37 0 0 1 -0.273,-0.383 c 0,-0.182 0.187,-0.342 0.56,-0.48 0.5,-0.19 1.07,-0.497 1.682,-0.916 0.5,-0.346 0.84,-0.52 0.984,-0.52 0.246,0 0.4,0.28 0.492,0.84 0.092,0.56 0.196,0.84 0.342,0.84 -0.073,0 0.392,-0.267 1.395,-0.8 1.003,-0.533 1.992,-0.8 2.967,-0.8 2.36,0 3.55,1.344 3.568,4.033 l 0.027,4.402 c 0,0.565 0.146,0.97 0.438,1.217 0.22,0.182 0.643,0.337 1.27,0.465 0.4,0.082 0.615,0.232 0.615,0.45 z" id="path34" style="stroke-width:4.99906;fill:#363636;fill-opacity:1" />
    <use xlink:href="#B" x="9.7340002" y="25.200001" id="use36" style="stroke-width:4.99906;fill:#363636;fill-opacity:1" />
    <use xlink:href="#C" x="-4.3200002" y="25.200001" id="use38" style="stroke-width:4.99906;fill:#363636;fill-opacity:1" />
    <path d="m 339.24,182.785 c 0,1.103 -0.32,1.654 -0.957,1.654 -0.1,0 -0.433,-0.064 -0.998,-0.19 -0.565,-0.126 -0.98,-0.19 -1.244,-0.19 -1.02,0 -1.53,0.688 -1.53,2.064 v 4.033 c 0,0.474 0.164,0.81 0.492,1.012 0.19,0.118 0.67,0.278 1.436,0.48 0.4,0.1 0.615,0.255 0.615,0.465 0,0.246 -0.034,0.394 -0.103,0.444 -0.069,0.05 -0.24,0.06 -0.513,0.034 -2.005,-0.2 -3.59,-0.22 -4.758,-0.027 -0.365,0.064 -0.597,0.064 -0.697,0 -0.082,-0.055 -0.123,-0.214 -0.123,-0.48 0,-0.246 0.253,-0.442 0.76,-0.588 0.507,-0.146 0.76,-0.583 0.76,-1.312 v -4.39 c 0,-0.574 -0.075,-0.962 -0.226,-1.162 -0.151,-0.2 -0.563,-0.47 -1.237,-0.807 l -0.082,-0.04 c -0.182,-0.09 -0.273,-0.22 -0.273,-0.383 0,-0.182 0.187,-0.337 0.56,-0.465 0.63,-0.22 1.203,-0.53 1.723,-0.93 0.428,-0.337 0.702,-0.506 0.82,-0.506 0.328,0 0.524,0.283 0.588,0.848 0.082,0.72 0.178,1.08 0.287,1.08 0.01,0 0.52,-0.342 1.53,-1.025 0.665,-0.447 1.395,-0.67 2.188,-0.67 0.656,0 0.984,0.35 0.984,1.053 z" id="path40" style="stroke-width:4.99906;fill:#363636;fill-opacity:1" />
    <use xlink:href="#D" x="-41.125" y="25.200001" id="use42" style="stroke-width:4.99906;fill:#363636;fill-opacity:1" />
    <use xlink:href="#E" x="-41.125" y="25.200001" id="use44" style="stroke-width:4.99906;fill:#363636;fill-opacity:1" />
    <path d="m 387.337,191.166 c 0,0.19 -0.35,0.48 -1.046,0.868 -0.696,0.388 -1.256,0.58 -1.675,0.58 -0.355,0 -0.67,-0.173 -0.943,-0.52 -0.273,-0.347 -0.465,-0.52 -0.574,-0.52 -0.082,0 -0.515,0.187 -1.3,0.56 -0.785,0.373 -1.572,0.56 -2.365,0.56 -0.747,0 -1.372,-0.22 -1.873,-0.656 -0.547,-0.483 -0.82,-1.14 -0.82,-1.97 0,-1.577 1.805,-2.707 5.414,-3.39 0.62,-0.118 0.934,-0.37 0.943,-0.752 l 0.027,-0.875 c 0.055,-1.495 -0.606,-2.242 -1.982,-2.242 -0.392,0 -0.763,0.35 -1.114,1.053 -0.351,0.703 -0.854,1.08 -1.51,1.135 -0.747,0.073 -1.12,-0.242 -1.12,-0.943 0,-0.437 0.556,-0.948 1.668,-1.53 1.167,-0.61 2.288,-0.916 3.363,-0.916 1.85,0 2.766,0.88 2.748,2.64 l -0.055,5.633 c -0.01,0.592 0.242,0.89 0.752,0.89 a 4.43,4.43 0 0 0 0.574,-0.068 l 0.492,-0.068 c 0.264,0 0.396,0.178 0.396,0.533 z m -4.21,-3.117 c 0.01,-0.228 -0.043,-0.378 -0.157,-0.45 -0.114,-0.072 -0.294,-0.087 -0.54,-0.04 -2.197,0.392 -3.295,1.107 -3.295,2.146 0,1.048 0.57,1.572 1.71,1.572 0.456,0 0.925,-0.087 1.408,-0.26 0.565,-0.2 0.848,-0.442 0.848,-0.725 z" id="path46" style="stroke-width:4.99906;fill:#363636;fill-opacity:1" />
    <use xlink:href="#F" x="-73.115997" y="25.200001" id="use48" style="stroke-width:4.99906;fill:#363636;fill-opacity:1" />
    <path d="m 416.32,191.166 c 0,0.19 -0.35,0.48 -1.046,0.868 -0.696,0.388 -1.256,0.58 -1.675,0.58 -0.355,0 -0.67,-0.173 -0.943,-0.52 -0.273,-0.347 -0.465,-0.52 -0.574,-0.52 -0.082,0 -0.515,0.187 -1.3,0.56 -0.785,0.373 -1.572,0.56 -2.365,0.56 -0.747,0 -1.372,-0.22 -1.873,-0.656 -0.547,-0.483 -0.82,-1.14 -0.82,-1.97 0,-1.577 1.805,-2.707 5.414,-3.39 0.62,-0.118 0.934,-0.37 0.943,-0.752 l 0.027,-0.875 c 0.055,-1.495 -0.606,-2.242 -1.982,-2.242 -0.392,0 -0.763,0.35 -1.114,1.053 -0.351,0.703 -0.855,1.08 -1.51,1.135 -0.747,0.073 -1.12,-0.242 -1.12,-0.943 0,-0.437 0.556,-0.948 1.668,-1.53 1.167,-0.61 2.288,-0.916 3.363,-0.916 1.85,0 2.766,0.88 2.748,2.64 l -0.055,5.633 c -0.01,0.592 0.242,0.89 0.752,0.89 a 4.43,4.43 0 0 0 0.574,-0.068 l 0.492,-0.068 c 0.264,0 0.396,0.178 0.396,0.533 z m -4.21,-3.117 c 0.01,-0.228 -0.043,-0.378 -0.157,-0.45 -0.114,-0.072 -0.294,-0.087 -0.54,-0.04 -2.197,0.392 -3.295,1.107 -3.295,2.146 0,1.048 0.57,1.572 1.71,1.572 0.456,0 0.925,-0.087 1.408,-0.26 0.565,-0.2 0.848,-0.442 0.848,-0.725 z" id="path50" style="stroke-width:4.99906;fill:#363636;fill-opacity:1" />
    <use xlink:href="#F" x="-37.186001" y="25.200001" id="use52" style="stroke-width:4.99906;fill:#363636;fill-opacity:1" />
    <path d="m 439.304,176.66 c 0,0.42 -0.157,0.8 -0.472,1.17 -0.315,0.37 -0.66,0.54 -1.032,0.54 -0.428,0 -0.78,-0.128 -1.053,-0.383 -0.273,-0.255 -0.4,-0.588 -0.4,-0.998 0,-0.4 0.166,-0.775 0.5,-1.12 0.334,-0.345 0.7,-0.52 1.073,-0.52 0.93,0 1.395,0.438 1.395,1.313 z m 1.518,15.477 c -0.046,0.264 -0.155,0.415 -0.328,0.45 -0.046,0.01 -0.264,0 -0.656,-0.027 -1.358,-0.1 -2.693,-0.073 -4.006,0.055 -0.355,0.037 -0.58,0.023 -0.67,-0.04 -0.09,-0.063 -0.137,-0.2 -0.137,-0.437 0,-0.2 0.242,-0.383 0.725,-0.52 0.53,-0.155 0.793,-0.66 0.793,-1.518 v -3.582 c 0,-0.72 -0.073,-1.226 -0.22,-1.518 -0.2,-0.4 -0.615,-0.706 -1.244,-0.916 -0.283,-0.1 -0.424,-0.25 -0.424,-0.45 0,-0.264 0.205,-0.46 0.615,-0.588 0.766,-0.237 1.445,-0.55 2.037,-0.943 0.474,-0.328 0.766,-0.492 0.875,-0.492 0.365,0 0.542,0.237 0.533,0.7 l -0.055,7.3 c 0,0.592 0.087,1.016 0.26,1.27 0.2,0.283 0.556,0.483 1.094,0.602 0.592,0.137 0.86,0.35 0.807,0.643 z m 24.075,-0.027 c 0,0.3 -0.14,0.442 -0.424,0.424 -1.86,-0.137 -3.6,-0.137 -5.195,0 -0.355,0.027 -0.533,-0.132 -0.533,-0.48 0,-0.273 0.242,-0.42 0.725,-0.437 0.6,-0.036 0.916,-0.533 0.916,-1.5 V 186.5 c 0,-2.042 -0.83,-3.062 -2.488,-3.062 -0.875,0 -1.677,0.16 -2.406,0.48 -0.665,0.283 -1.003,0.565 -1.012,0.848 l -0.055,5.428 c 0,0.565 0.068,0.94 0.205,1.12 0.1,0.128 0.324,0.22 0.67,0.273 0.802,0.137 1.203,0.305 1.203,0.506 0,0.173 -0.023,0.292 -0.068,0.355 -0.055,0.1 -0.22,0.132 -0.492,0.123 -1.04,-0.037 -2.552,-0.018 -4.54,0.055 -0.283,0.01 -0.465,-0.014 -0.547,-0.068 -0.082,-0.054 -0.123,-0.182 -0.123,-0.383 0,-0.237 0.26,-0.383 0.78,-0.437 0.565,-0.064 0.848,-0.58 0.848,-1.545 v -3.72 c 0,-1.003 -0.228,-1.777 -0.684,-2.324 -0.4,-0.492 -0.9,-0.738 -1.53,-0.738 -0.9,0 -1.732,0.185 -2.46,0.554 -0.728,0.369 -1.094,0.763 -1.094,1.183 v 5 c 0,0.565 0.146,0.957 0.438,1.176 0.264,0.2 0.743,0.324 1.436,0.37 0.374,0.018 0.56,0.146 0.56,0.383 0,0.264 -0.15,0.396 -0.45,0.396 l -4.95,0.2 c -0.346,0.046 -0.57,0.046 -0.67,0 -0.082,-0.046 -0.123,-0.155 -0.123,-0.328 0,-0.228 0.337,-0.424 1.012,-0.588 0.4,-0.1 0.615,-0.643 0.615,-1.6 v -4.197 c 0,-1.066 -0.287,-1.682 -0.86,-1.846 -0.483,-0.137 -0.777,-0.237 -0.882,-0.3 -0.105,-0.063 -0.157,-0.17 -0.157,-0.314 0,-0.164 0.474,-0.5 1.422,-1.04 1.003,-0.565 1.618,-0.848 1.846,-0.848 0.2,0 0.353,0.276 0.485,0.827 0.132,0.551 0.235,0.827 0.308,0.827 0.1,0 0.378,-0.14 0.834,-0.424 0.565,-0.355 1.076,-0.62 1.53,-0.793 0.747,-0.292 1.518,-0.437 2.3,-0.437 0.638,0 1.194,0.137 1.668,0.4 a 3.13,3.13 0 0 1 0.889,0.752 l 0.328,0.4 0.7,-0.4 a 9.41,9.41 0 0 1 1.627,-0.752 6.76,6.76 0 0 1 2.256,-0.41 c 2.497,0 3.746,1.372 3.746,4.115 v 4.43 c 0,0.52 0.123,0.9 0.37,1.107 0.22,0.182 0.647,0.337 1.285,0.465 0.483,0.1 0.725,0.228 0.725,0.4 z" id="path54" style="stroke-width:4.99906;fill:#363636;fill-opacity:1" />
    <use xlink:href="#B" x="179.15601" y="25.200001" id="use56" style="stroke-width:4.99906;fill:#363636;fill-opacity:1" />
  </g>
  <defs id="defs65">
    <path id="B" d="m 297.294,164.982 c 0,0.392 -0.53,0.88 -1.586,1.463 -1.203,0.647 -2.438,0.97 -3.705,0.97 -1.376,0 -2.534,-0.45 -3.473,-1.354 -1.003,-0.957 -1.504,-2.233 -1.504,-3.828 0,-1.805 0.56,-3.254 1.682,-4.348 1.048,-1.02 2.333,-1.53 3.855,-1.53 0.902,0 1.745,0.287 2.53,0.86 0.702,0.5 1.167,1.094 1.395,1.75 0.082,0.228 0.205,0.355 0.37,0.383 0.237,0.046 0.355,0.205 0.355,0.48 0,0.374 -0.447,0.693 -1.34,0.957 l -6.303,1.873 c 0.4,2.17 1.522,3.254 3.336,3.254 1.048,0 2.242,-0.383 3.582,-1.148 0.2,-0.118 0.396,-0.178 0.588,-0.178 0.146,0 0.22,0.132 0.22,0.396 z m -3.24,-5.482 c 0,-0.5 -0.203,-0.94 -0.608,-1.32 -0.405,-0.38 -0.905,-0.567 -1.497,-0.567 -1.677,0 -2.516,1.208 -2.516,3.623 v 0.328 l 3.72,-1.12 c 0.602,-0.173 0.902,-0.488 0.902,-0.943 z" />
    <path id="C" d="m 333.237,165.94 c 0.036,0.082 0.055,0.14 0.055,0.178 0,0.19 -0.465,0.506 -1.395,0.943 -1.076,0.5 -1.71,0.752 -1.9,0.752 -0.164,0 -0.353,-0.276 -0.567,-0.827 -0.214,-0.551 -0.362,-0.827 -0.444,-0.827 0.01,0 -0.508,0.24 -1.552,0.718 -1.044,0.478 -1.834,0.718 -2.372,0.718 -1.203,0 -2.247,-0.433 -3.13,-1.3 -1.066,-1.03 -1.6,-2.475 -1.6,-4.334 0,-1.56 0.63,-2.903 1.887,-4.033 1.112,-0.993 2.247,-1.5 3.404,-1.5 0.82,0 1.8,0.105 2.94,0.314 0.355,0.064 0.533,-0.04 0.533,-0.314 v -4.676 c 0,-0.53 -0.128,-0.902 -0.383,-1.12 -0.164,-0.146 -0.55,-0.32 -1.162,-0.52 -0.292,-0.11 -0.438,-0.287 -0.437,-0.533 0,-0.228 0.196,-0.396 0.588,-0.506 0.538,-0.164 1.18,-0.437 1.928,-0.82 0.62,-0.328 1.003,-0.492 1.148,-0.492 0.337,0 0.506,0.232 0.506,0.697 0,-0.01 -0.014,0.444 -0.04,1.36 l -0.04,2.673 v 12.428 c 0,0.52 0.232,0.78 0.697,0.78 0.173,0 0.406,-0.027 0.697,-0.082 0.32,-0.055 0.533,0.05 0.643,0.314 z m -4.225,-1.354 v -4.895 c 0,-0.4 -0.355,-0.816 -1.066,-1.244 -0.757,-0.456 -1.577,-0.684 -2.46,-0.684 -1.905,0 -2.857,1.176 -2.857,3.527 0,1.258 0.378,2.333 1.135,3.227 0.757,0.894 1.645,1.34 2.666,1.34 0.465,0 1.012,-0.155 1.64,-0.465 0.628,-0.31 0.943,-0.58 0.943,-0.807 z" />
    <path id="D" d="m 393.913,161.77 c 0,1.586 -0.588,2.928 -1.764,4.026 -1.176,1.098 -2.634,1.647 -4.375,1.647 -1.741,0 -3.117,-0.483 -4.13,-1.45 -0.975,-0.948 -1.463,-2.2 -1.463,-3.76 0,-1.613 0.615,-2.97 1.846,-4.074 1.194,-1.066 2.62,-1.6 4.28,-1.6 1.777,0 3.163,0.48 4.156,1.436 0.966,0.93 1.45,2.188 1.45,3.773 z m -2.406,0.834 c 0,-1.43 -0.346,-2.593 -1.04,-3.486 -0.674,-0.866 -1.53,-1.3 -2.57,-1.3 -0.966,0 -1.755,0.34 -2.365,1.02 -0.61,0.68 -0.916,1.506 -0.916,2.48 0,1.568 0.355,2.79 1.066,3.664 a 3.16,3.16 0 0 0 2.57,1.203 c 1.003,0 1.796,-0.333 2.38,-0.998 0.584,-0.665 0.875,-1.527 0.875,-2.584 z" />
    <path id="E" d="m 408.2,161.4 c 0,1.704 -0.572,3.15 -1.716,4.34 -1.144,1.19 -2.477,1.784 -4,1.784 a 7.39,7.39 0 0 1 -2.666,-0.492 c -0.09,-0.036 -0.137,0.187 -0.137,0.67 v 4.115 c 0,0.665 0.542,1.094 1.627,1.285 0.5,0.09 0.818,0.175 0.95,0.253 0.132,0.078 0.198,0.207 0.198,0.4 0,0.3 -0.205,0.45 -0.615,0.424 -1.914,-0.128 -3.596,-0.082 -5.045,0.137 -0.3,0.046 -0.488,0.046 -0.56,0 -0.072,-0.046 -0.11,-0.17 -0.11,-0.37 0,-0.155 0.26,-0.342 0.78,-0.56 0.447,-0.182 0.67,-0.62 0.67,-1.312 v -12.06 c 0,-0.975 -0.27,-1.586 -0.807,-1.832 -0.638,-0.283 -0.957,-0.515 -0.957,-0.697 0,-0.2 0.187,-0.35 0.56,-0.45 0.483,-0.118 0.98,-0.328 1.5,-0.63 0.428,-0.246 0.688,-0.37 0.78,-0.37 0.273,0 0.497,0.25 0.67,0.752 0.255,0.73 0.424,1.094 0.506,1.094 0.018,0 0.4,-0.214 1.176,-0.643 0.84,-0.465 1.66,-0.697 2.46,-0.697 1.303,0 2.38,0.37 3.227,1.107 1.012,0.866 1.518,2.12 1.518,3.76 z m -2.324,1.094 c 0,-1.486 -0.37,-2.643 -1.107,-3.473 -0.602,-0.693 -1.308,-1.04 -2.12,-1.04 -0.63,0 -1.23,0.22 -1.805,0.656 -0.757,0.565 -1.135,1.354 -1.135,2.365 v 3.87 c 0,0.246 0.346,0.506 1.04,0.78 0.747,0.3 1.56,0.45 2.434,0.45 1.796,0 2.693,-1.203 2.693,-3.61 z" />
    <path id="F" d="m 469.64,165.993 c 0,0.438 -0.4,0.81 -1.203,1.12 -0.71,0.273 -1.43,0.4 -2.16,0.4 -1.978,0 -2.967,-1.053 -2.967,-3.158 v -4.95 c 0,-0.63 -0.05,-1.014 -0.15,-1.155 -0.1,-0.141 -0.433,-0.28 -0.998,-0.417 -0.146,-0.036 -0.22,-0.178 -0.22,-0.424 0,-0.264 0.055,-0.424 0.164,-0.48 0.984,-0.483 1.84,-1.35 2.57,-2.598 0.1,-0.173 0.296,-0.228 0.588,-0.164 0.2,0.064 0.305,0.182 0.314,0.355 l 0.055,1.71 c 0,0.128 0.023,0.22 0.068,0.273 0.064,0.082 0.2,0.123 0.438,0.123 h 3.05 c 0.173,0 0.173,0.214 0,0.643 -0.2,0.52 -0.52,0.78 -0.93,0.78 h -2.064 c -0.355,0 -0.574,0.06 -0.656,0.178 -0.064,0.082 -0.096,0.305 -0.096,0.67 v 4.47 c 0,1.13 0.1,1.846 0.3,2.146 0.264,0.383 0.88,0.574 1.846,0.574 0.32,0 0.706,-0.052 1.162,-0.157 l 0.725,-0.157 c 0.11,0 0.164,0.068 0.164,0.205 z" />
  </defs>
</svg>
