<?xml version="1.0" encoding="UTF-8" standalone="no"?>
<!-- Uploaded to: SVG Repo, www.svgrepo.com, Transformed by: SVG Repo Mixer Tools -->

<svg fill="#000000" width="27" height="22" viewBox="0 0 10.125 8.25" role="img" version="1.1" id="svg7" sodipodi:docname="bootstrap-m-dark-mode.svg" inkscape:version="1.2.2 (732a01da63, 2022-12-09)" xmlns:inkscape="http://www.inkscape.org/namespaces/inkscape" xmlns:sodipodi="http://sodipodi.sourceforge.net/DTD/sodipodi-0.dtd" xmlns="http://www.w3.org/2000/svg" xmlns:svg="http://www.w3.org/2000/svg">
  <defs id="defs11" />
  <sodipodi:namedview id="namedview9" pagecolor="#505050" bordercolor="#eeeeee" borderopacity="1" inkscape:showpageshadow="0" inkscape:pageopacity="0" inkscape:pagecheckerboard="0" inkscape:deskcolor="#505050" showgrid="false" inkscape:zoom="9.2807765" inkscape:cx="7.7579715" inkscape:cy="25.375032" inkscape:window-width="1920" inkscape:window-height="1001" inkscape:window-x="-9" inkscape:window-y="-9" inkscape:window-maximized="1" inkscape:current-layer="SVGRepo_iconCarrier" />
  <g id="SVGRepo_bgCarrier" stroke-width="0" />
  <g id="SVGRepo_tracerCarrier" stroke-linecap="round" stroke-linejoin="round" />
  <g id="SVGRepo_iconCarrier">
    <path d="M 4.9723084,3.8273684 H 4.2609735 V 2.6360582 H 5.104851 c 0.4587986,0 0.7191772,0.2046952 0.7191772,0.5748717 0,0.3952735 -0.3031215,0.6164385 -0.8525038,0.6164385 z m 0.127052,0.4729165 H 4.2613655 v 1.3128725 h 0.874856 c 0.5721272,0 0.8752486,-0.2294 0.8752486,-0.6607501 0,-0.43135 -0.3117485,-0.6521224 -0.9121097,-0.6521224 z M 9.7681361,3.886189 v 0.4776219 c -0.4423295,0.04235 -0.712512,0.370177 -0.872896,0.8893655 -0.1595995,0.5172276 -0.181559,1.1517045 -0.164697,1.6414825 0.017645,0.5097774 -0.3795875,0.980341 -0.9164225,0.980341 h -5.502457 c -0.5372268,0 -0.9344609,-0.4705636 -0.9164227,-0.980341 C 1.4121029,6.4048809 1.3901429,5.770404 1.2305437,5.2531764 1.0697678,4.7339879 0.79919371,4.4061619 0.3568639,4.3638109 V 3.886189 C 0.79919371,3.8438384 1.07016,3.5160124 1.2301516,2.9968236 1.3901432,2.4795958 1.4121028,1.8451191 1.3948488,1.3553409 1.3772027,0.84556369 1.7744368,0.37500007 2.3116636,0.37500007 h 5.502457 c 0.5372266,0 0.9340685,0.47056362 0.9164225,0.98034083 -0.01686,0.4897782 0.00509,1.1242549 0.164697,1.6414827 0.160384,0.5191883 0.4305665,0.8470148 0.872896,0.8893654 z M 6.6596716,4.9908369 c 0,-0.5309525 -0.3737055,-0.914854 -0.9285784,-0.975635 V 3.9928509 C 6.1389147,3.9265799 6.4588981,3.547776 6.4588981,3.1250529 6.4588981,2.5223395 5.9832367,2.129811 5.258176,2.129811 H 3.6268889 v 3.9888115 h 1.6395223 c 0.869758,0 1.3932595,-0.4258606 1.39326,-1.1277845 z" id="path4" style="fill:#dcdcdc;fill-opacity:1;stroke-width:1" />
  </g>
</svg>
