<?xml version="1.0" encoding="UTF-8" standalone="no"?>
<!-- Uploaded to: SVG Repo, www.svgrepo.com, Transformed by: SVG Repo Mixer Tools -->

<svg fill="#164951" width="24" height="30" viewBox="0 0 9 11.25" version="1.1" id="svg7" sodipodi:docname="facebook-icon-mobile-dark.svg" inkscape:version="1.2.2 (732a01da63, 2022-12-09)" xmlns:inkscape="http://www.inkscape.org/namespaces/inkscape" xmlns:sodipodi="http://sodipodi.sourceforge.net/DTD/sodipodi-0.dtd" xmlns="http://www.w3.org/2000/svg" xmlns:svg="http://www.w3.org/2000/svg">
  <defs id="defs11" />
  <sodipodi:namedview id="namedview9" pagecolor="#505050" bordercolor="#eeeeee" borderopacity="1" inkscape:showpageshadow="0" inkscape:pageopacity="0" inkscape:pagecheckerboard="0" inkscape:deskcolor="#505050" showgrid="false" inkscape:zoom="37.123106" inkscape:cx="5.7376664" inkscape:cy="14.748227" inkscape:window-width="1920" inkscape:window-height="1001" inkscape:window-x="-9" inkscape:window-y="-9" inkscape:window-maximized="1" inkscape:current-layer="SVGRepo_iconCarrier" />
  <g id="SVGRepo_bgCarrier" stroke-width="0" />
  <g id="SVGRepo_tracerCarrier" stroke-linecap="round" stroke-linejoin="round" />
  <g id="SVGRepo_iconCarrier" transform="matrix(0.37499952,0,0,0.37650565,-0.74999902,1.106936)" style="stroke-width:2.66133">
    <path d="m 12,2.03998 c -5.5,0 -10,4.49 -10,10.02002 0,5 3.66,9.15 8.44,9.9 v -7 H 7.9 v -2.9 h 2.54 V 9.84998 c 0,-2.51 1.49,-3.89 3.78,-3.89 1.09,0 2.23,0.19 2.23,0.19 v 2.47 h -1.26 c -1.24,0 -1.63,0.77 -1.63,1.56002 v 1.88 h 2.78 l -0.45,2.9 h -2.33 v 7 c 2.3564,-0.3722 4.5022,-1.5745 6.0499,-3.39 C 21.1576,16.7546 22.0054,14.4456 22,12.06 22,6.52998 17.5,2.03998 12,2.03998 Z" id="path4" style="stroke-width:2.66133;fill:#f0edea;fill-opacity:1" />
  </g>
</svg>
