<?xml version="1.0" encoding="UTF-8" standalone="no"?>
<!-- Uploaded to: SVG Repo, www.svgrepo.com, Transformed by: SVG Repo Mixer Tools -->

<svg width="30" height="30" viewBox="0 0 15 15" fill="#164951" version="1.1" id="svg403" sodipodi:docname="instagram-icon-mobile.svg" inkscape:version="1.2.2 (732a01da63, 2022-12-09)" xmlns:inkscape="http://www.inkscape.org/namespaces/inkscape" xmlns:sodipodi="http://sodipodi.sourceforge.net/DTD/sodipodi-0.dtd" xmlns="http://www.w3.org/2000/svg" xmlns:svg="http://www.w3.org/2000/svg">
  <defs id="defs407" />
  <sodipodi:namedview id="namedview405" pagecolor="#505050" bordercolor="#eeeeee" borderopacity="1" inkscape:showpageshadow="0" inkscape:pageopacity="0" inkscape:pagecheckerboard="0" inkscape:deskcolor="#505050" showgrid="false" inkscape:zoom="6.5625" inkscape:cx="0.83809524" inkscape:cy="49.142857" inkscape:window-width="1920" inkscape:window-height="1001" inkscape:window-x="-9" inkscape:window-y="-9" inkscape:window-maximized="1" inkscape:current-layer="svg403" />
  <g id="SVGRepo_bgCarrier" stroke-width="0" />
  <g id="SVGRepo_tracerCarrier" stroke-linecap="round" stroke-linejoin="round" />
  <g id="SVGRepo_iconCarrier" transform="matrix(0.3125,0,0,0.3125,2.5,2.5)" style="stroke-width:3.2">
    <g fill="none" fill-rule="evenodd" id="g400" style="stroke-width:5.85142">
      <path d="M 0,0 H 32 V 32 H 0 Z" id="path396" style="stroke-width:3.2" />
      <path d="m 17.083093,0.03277248 c 8.119091,0 14.761983,6.64289232 14.761983,14.76198352 v 2.306432 c 0,8.119091 -6.642929,14.761983 -14.761983,14.761983 H 14.77666 c -8.1190903,0 -14.76198266,-6.642892 -14.76198266,-14.761983 V 14.794756 C 0.01467734,6.6756648 6.6575697,0.03277248 14.77666,0.03277248 Z M 16.22006,8.0330366 16.014677,8.0327725 c -1.710238,0 -3.420475,0.056529 -3.420475,0.056529 -2.497974,0 -4.522996,2.0250185 -4.522996,4.5229865 0,0 -0.051916,1.468535 -0.056242,3.044785 l -2.863e-4,0.206097 c 0,1.764859 0.056529,3.590088 0.056529,3.590088 0,2.497968 2.0250223,4.522986 4.5229963,4.522986 0,0 1.599013,0.05653 3.250889,0.05653 1.764864,0 3.646626,-0.05653 3.646626,-0.05653 2.497974,0 4.466432,-1.968454 4.466432,-4.466422 0,0 0.05653,-1.804683 0.05653,-3.53356 l -10e-4,-0.40573 c -0.0077,-1.551158 -0.05554,-3.014809 -0.05554,-3.014809 0,-2.497968 -1.968458,-4.4664215 -4.466431,-4.4664215 0,0 -1.628252,-0.052097 -3.271622,-0.056264 z m -0.205383,1.4396975 c 1.402432,0 3.200564,0.046379 3.200564,0.046379 2.048353,0 3.313058,1.2647019 3.313058,3.3130499 0,0 0.04638,1.767432 0.04638,3.154178 0,1.417688 -0.04638,3.246935 -0.04638,3.246935 0,2.048348 -1.264705,3.31305 -3.313058,3.31305 0,0 -1.590175,0.03897 -2.969909,0.04547 l -0.369721,9.12e-4 c -1.354537,0 -3.004969,-0.04638 -3.004969,-0.04638 -2.048317,0 -3.3695858,-1.321301 -3.3695858,-3.369578 0,0 -0.046379,-1.835908 -0.046379,-3.283094 0,-1.354535 0.046379,-3.061491 0.046379,-3.061491 0,-2.048348 1.3213038,-3.3130499 3.3695858,-3.3130499 0,0 1.741604,-0.046379 3.144035,-0.046379 z m -3.5e-5,2.4619509 c -2.263295,0 -4.098044,1.834744 -4.098044,4.098035 0,2.26329 1.834749,4.098035 4.098044,4.098035 2.263295,0 4.098044,-1.834745 4.098044,-4.098035 0,-2.26329 -1.834749,-4.098035 -4.098044,-4.098035 z m 0,1.431362 c 1.472775,0 2.666678,1.193901 2.666678,2.666673 0,1.472772 -1.193903,2.666672 -2.666678,2.666672 -1.47274,0 -2.666678,-1.1939 -2.666678,-2.666672 0,-1.472772 1.193903,-2.666673 2.666678,-2.666673 z m 4.294132,-2.568593 c -0.546854,0 -0.990202,0.445532 -0.990202,0.995099 0,0.549567 0.443348,0.995064 0.990202,0.995064 0.546855,0 0.990168,-0.445497 0.990168,-0.995064 0,-0.549603 -0.443313,-0.995099 -0.990168,-0.995099 z" fill="#164951" fill-rule="nonzero" id="path398" style="stroke-width:10.6998" />
    </g>
  </g>
</svg>
