<?xml version="1.0" encoding="UTF-8" standalone="no"?>
<svg width="500" height="530" viewBox="0 0 500 530" fill="none" version="1.1" id="svg356" sodipodi:docname="why-us.svg" inkscape:version="1.2.2 (732a01da63, 2022-12-09)" xmlns:inkscape="http://www.inkscape.org/namespaces/inkscape" xmlns:sodipodi="http://sodipodi.sourceforge.net/DTD/sodipodi-0.dtd" xmlns="http://www.w3.org/2000/svg" xmlns:svg="http://www.w3.org/2000/svg">
  <defs id="defs360" />
  <sodipodi:namedview id="namedview358" pagecolor="#505050" bordercolor="#eeeeee" borderopacity="1" inkscape:showpageshadow="0" inkscape:pageopacity="0" inkscape:pagecheckerboard="0" inkscape:deskcolor="#505050" showgrid="false" inkscape:zoom="0.65996633" inkscape:cx="203.04066" inkscape:cy="325.01658" inkscape:window-width="1920" inkscape:window-height="1001" inkscape:window-x="-9" inkscape:window-y="-9" inkscape:window-maximized="1" inkscape:current-layer="svg356" />
  <mask id="mask0_282_7984" maskUnits="userSpaceOnUse" x="129" y="67" width="30" height="30">
    <path d="m 158.387,83.9094 c -0.979,7.8689 -8.151,13.4537 -16.02,12.4738 -7.867,-0.9791 -13.451,-8.1489 -12.472,-16.0178 0.978,-7.867 8.15,-13.4518 16.016,-12.4719 7.867,0.9781 13.454,8.1489 12.476,16.0159 z" fill="#ffffff" id="path214" />
  </mask>
  <mask id="mask1_282_7984" maskUnits="userSpaceOnUse" x="134" y="351" width="26" height="26">
    <path d="m 159.039,361.211 c 1.617,6.646 -2.461,13.342 -9.107,14.957 -6.644,1.616 -13.34,-2.461 -14.955,-9.106 -1.616,-6.645 2.46,-13.341 9.105,-14.956 6.645,-1.616 13.342,2.462 14.957,9.105 z" fill="#ffffff" id="path231" />
  </mask>
  <g id="g2597" transform="matrix(1.1597085,0,0,1.1597085,-282.60484,-295.91117)" style="stroke-width:0.862285">
    <path d="m 569.04776,334.57951 -31.256,19.8957 0.505,0.793 31.255,-19.8961 z" fill="#000000" id="path2" style="stroke-width:0.826151" />
    <path d="m 623.65576,339.18041 -18.143,-24.2954 -16.064,12.5696 -0.579,-0.7395 16.82,-13.1624 18.011,24.1188 20.239,-23.9262 13.356,14.0344 -0.68,0.6473 -12.635,-13.2751 z" fill="#000000" id="path4" style="stroke-width:0.826151" />
    <path d="m 624.20776,354.88321 c 0,1.156 -0.937,2.094 -2.094,2.094 -1.157,0 -2.094,-0.937 -2.094,-2.094 0,-1.157 0.937,-2.0951 2.094,-2.0951 1.156,0 2.094,0.9381 2.094,2.0951 z" fill="#000000" fill-opacity="0.3" id="path6" style="stroke-width:0.826151" />
    <path d="m 660.59476,352.14161 c 0,1.1556 -0.938,2.0946 -2.094,2.0946 -1.156,0 -2.094,-0.938 -2.094,-2.0946 0,-1.1566 0.938,-2.0952 2.094,-2.0952 1.156,0 2.094,0.9377 2.094,2.0952 z" fill="#000000" fill-opacity="0.3" id="path8" style="stroke-width:0.826151" />
    <path d="m 678.28976,343.60751 c 0,1.1556 -0.937,2.0943 -2.095,2.0943 -1.156,0 -2.093,-0.9377 -2.093,-2.0943 0,-1.1566 0.937,-2.0943 2.093,-2.0943 1.158,-0.001 2.095,0.9367 2.095,2.0943 z" fill="#000000" fill-opacity="0.3" id="path10" style="stroke-width:0.826151" />
    <path d="m 701.85776,331.94191 c 0,1.1557 -0.938,2.0943 -2.096,2.0943 -1.155,0 -2.093,-0.9376 -2.093,-2.0943 0,-1.1566 0.938,-2.0943 2.093,-2.0943 1.158,-9e-4 2.096,0.9368 2.096,2.0943 z" fill="#000000" fill-opacity="0.3" id="path12" style="stroke-width:0.826151" />
    <path d="m 659.04776,328.41751 c 0,1.1557 -0.938,2.0934 -2.094,2.0934 -1.156,0 -2.094,-0.9377 -2.094,-2.0934 0,-1.1566 0.938,-2.0943 2.094,-2.0943 1.156,-9e-4 2.094,0.9368 2.094,2.0943 z" fill="#000000" fill-opacity="0.3" id="path14" style="stroke-width:0.826151" />
    <path d="m 626.00776,338.42581 c 0,1.1557 -0.938,2.0943 -2.094,2.0943 -1.156,0 -2.095,-0.9377 -2.095,-2.0943 0,-1.1566 0.938,-2.0943 2.095,-2.0943 1.156,0 2.094,0.9377 2.094,2.0943 z" fill="#000000" fill-opacity="0.3" id="path16" style="stroke-width:0.826151" />
    <path d="m 608.03776,314.21881 c 0,1.1557 -0.937,2.0943 -2.094,2.0943 -1.156,0 -2.094,-0.9377 -2.094,-2.0943 0,-1.1566 0.937,-2.0943 2.094,-2.0943 1.157,0 2.094,0.9377 2.094,2.0943 z" fill="#000000" fill-opacity="0.3" id="path18" style="stroke-width:0.826151" />
    <path d="m 591.88976,327.75351 c 0,1.1556 -0.938,2.0943 -2.095,2.0943 -1.156,0 -2.095,-0.9377 -2.095,-2.0943 0,-1.1576 0.938,-2.0943 2.095,-2.0943 1.157,-10e-4 2.095,0.9367 2.095,2.0943 z" fill="#000000" fill-opacity="0.3" id="path20" style="stroke-width:0.826151" />
    <path d="m 573.88776,320.47171 c 0,1.1557 -0.938,2.0943 -2.095,2.0943 -1.156,0 -2.095,-0.9377 -2.095,-2.0943 0,-1.1575 0.938,-2.0943 2.095,-2.0943 1.157,-9e-4 2.095,0.9368 2.095,2.0943 z" fill="#000000" fill-opacity="0.3" id="path22" style="stroke-width:0.826151" />
    <path d="m 571.38576,334.97391 c 0,1.1557 -0.938,2.0943 -2.095,2.0943 -1.156,0 -2.095,-0.9377 -2.095,-2.0943 0,-1.1566 0.938,-2.0953 2.095,-2.0953 1.157,0.001 2.095,0.9387 2.095,2.0953 z" fill="#000000" fill-opacity="0.3" id="path24" style="stroke-width:0.826151" />
    <path d="m 598.23176,343.60751 c 0,1.1556 -0.938,2.0943 -2.096,2.0943 -1.155,0 -2.094,-0.9377 -2.094,-2.0943 0,-1.1566 0.938,-2.0943 2.094,-2.0943 1.158,-0.001 2.096,0.9367 2.096,2.0943 z" fill="#000000" fill-opacity="0.3" id="path26" style="stroke-width:0.826151" />
    <path d="m 540.13876,354.88421 c 0,1.156 -0.938,2.094 -2.094,2.094 -1.156,0 -2.095,-0.937 -2.095,-2.094 0,-1.156 0.938,-2.0942 2.095,-2.0942 1.156,-9e-4 2.094,0.9372 2.094,2.0942 z" fill="#000000" fill-opacity="0.3" id="path28" style="stroke-width:0.826151" />
    <path d="m 521.61676,343.02231 c 0,1.1556 -0.937,2.0943 -2.095,2.0943 -1.156,0 -2.093,-0.9377 -2.093,-2.0943 0,-1.1566 0.937,-2.0943 2.093,-2.0943 1.158,-10e-4 2.095,0.9367 2.095,2.0943 z" fill="#000000" fill-opacity="0.3" id="path30" style="stroke-width:0.826151" />
    <path d="m 728.28676,365.89721 c 61.937,61.937 61.937,162.356 0.001,224.293 -61.937,61.936 -162.356,61.936 -224.293,-10e-4 -61.937,-61.937 -61.938,-162.356 -10e-4,-224.293 61.937,-61.9364 162.356,-61.9361 224.293,10e-4 z" fill="#ff5f5f" fill-opacity="0.1" stroke="#000000" id="path32" style="stroke-width:0.826151" />
    <path d="m 746.35276,474.77821 8.691,21.375 6.577,-33.12 4.228,-33.12 -14.094,-24.898 2.38,-6.218 c -10.621,-18.453 -24.841,-34.566 -41.694,-47.4007 l -36.321,-4.1651 -17.852,8.4558 -36.408,3.054 -14.798,16.912 -21.141,9.396 -0.47,13.624 -16.207,4.463 4.228,15.268 -28.892,26.542 v 29.832 l 41.576,12.919 12.449,47.213 -1.644,25.369 9.866,18.791 19.731,-8.926 20.67,-29.127 1.175,-29.361 13.154,-26.778 22.314,-39.932 29.832,28.188 15.737,-23.725 z" fill="#ff5f5f" fill-opacity="0.6" id="path34" style="stroke-width:0.826151" />
    <path d="m 772.43676,507.88621 -18.259,2.62 -26.264,26.769 -5.376,27.933 25.433,1.933 c 11.896,-17.565 20.363,-37.638 24.466,-59.255 z" fill="#ff5f5f" fill-opacity="0.6" id="path36" style="stroke-width:0.826151" />
    <path d="m 460.11476,446.81721 9.547,10.848 4.132,-27.662 12.44,-29.194 45.161,-18.302 7.453,-24.805 43.548,6.201 12.559,-17.0926 -25.925,-8.3387 -39.63,6.188 c -35.222,22.9533 -60.79,59.4753 -69.285,102.1573 z" fill="#ff5f5f" fill-opacity="0.6" id="path38" style="stroke-width:0.826151" />
    <path d="m 485.32076,568.59421 21.925,25.076 -13.591,-32.905 7.57,-23.201 9.903,-28.551 -19.728,-27.364 -21.739,-23.984 -12.553,24.835 c 0.878,31.943 11.178,61.53 28.213,86.094 z" fill="#ff5f5f" fill-opacity="0.6" id="path40" style="stroke-width:0.826151" />
    <path d="m 616.14176,318.94291 c -15.585,0 -30.643,2.2521 -44.877,6.4285 l -2.237,13.0995 19.477,-7.2657 33.057,10.6002 32.143,-9.9707 31.636,2.9089 c -20.923,-10.1229 -44.397,-15.8007 -69.199,-15.8007 z" fill="#ff5f5f" fill-opacity="0.6" id="path42" style="stroke-width:0.826151" />
    <path d="m 606.61476,576.05621 -10.132,-19.301 0.008,-0.132 1.64,-25.292 -12.364,-46.888 -41.658,-12.944 v -30.384 l 28.832,-26.487 -4.277,-15.445 16.329,-4.496 0.468,-13.573 21.314,-9.473 14.856,-16.977 0.188,-0.016 36.324,-3.0467 17.896,-8.4768 0.134,0.016 51.374,5.8921 0.118,0.1212 31.918,33.1002 -7.31,19.098 14.062,24.843 -0.02,0.155 -4.228,33.12 -6.888,34.689 -9.263,-22.783 -16.495,-24.741 -15.656,23.601 -29.798,-28.156 -22.02,39.406 -13.098,26.666 -1.176,29.401 -20.825,29.344 z m -9.178,-19.505 9.598,18.283 19.212,-8.69 20.515,-28.909 1.174,-29.322 0.043,-0.089 13.154,-26.778 22.621,-40.48 29.864,28.218 15.82,-23.847 17.348,26.039 8.101,19.923 6.271,-31.582 4.204,-32.933 -14.125,-24.954 7.253,-18.954 -31.385,-32.549 -50.906,-5.8375 -17.892,8.442 -36.22,3.0375 -14.741,16.848 -20.966,9.318 -0.472,13.675 -16.086,4.43 4.179,15.091 -28.952,26.598 v 29.279 l 41.494,12.894 12.535,47.539 z" fill="#000000" id="path44" style="stroke-width:0.826151" />
    <path d="m 544.77276,471.58121 -0.388,-0.855 24.898,-11.275 32.977,-22.608 -29.413,-21.943 12.349,-20.339 36.058,2.388 -14.764,-24.831 45.553,-0.555 5.906,-20.0817 39.681,11.5317 29.959,-14.1785 7.806,21.2135 23.851,11.895 -0.42,0.841 -24.183,-12.061 -0.066,-0.175 -7.515,-20.4244 -29.352,13.8904 -39.125,-11.3695 -5.838,19.8495 -44.617,0.543 14.845,24.967 -37.272,-2.468 -11.609,19.122 29.781,22.217 -34.132,23.391 z" fill="#000000" id="path46" style="stroke-width:0.826151" />
    <path d="m 627.90476,567.46521 -31.095,-10.365 0.297,-0.891 28.098,9.366 -27.271,-34.376 20.137,-15.019 -0.264,-0.197 0.439,-0.121 -9.177,-26.018 -23.19,-5.352 -17.492,-23.767 -25.044,-19.779 59.617,-4.549 37.589,-14.764 -6.216,35.741 7.869,27.312 6.781,23.672 -29.077,8.02 27.602,20.639 -0.564,0.753 -28.088,-21.003 -19.584,14.607 z m -41.476,-83.812 23.354,5.389 9.37,26.568 28.664,-7.907 -6.518,-22.76 -7.93,-27.52 0.019,-0.106 5.949,-34.201 -36.235,14.21 -57.289,4.372 23.293,18.417 z" fill="#000000" id="path48" style="stroke-width:0.826151" />
    <path d="m 608.35876,490.06921 24.817,-32.558 -30.368,-20.261 0.521,-0.782 31.201,20.818 -0.303,0.397 -23.73,31.132 31.122,-4.455 23.88,-10.937 0.39,0.853 -24.068,11.004 z" fill="#000000" id="path50" style="stroke-width:0.826151" />
    <path d="m 633.99376,457.84621 -0.289,-0.894 48.808,-15.688 -44.493,-18.636 -64.605,-7.382 0.106,-0.933 65.422,7.475 -17.96,-25.081 62.102,15.696 -42.398,10.205 0.122,0.169 44.414,18.603 z m -10.752,-59.6 16.856,23.537 39.067,-9.403 z" fill="#000000" id="path52" style="stroke-width:0.826151" />
    <path d="m 746.63776,471.52521 -0.572,-0.745 14.951,-11.501 -8.417,-15.647 12.531,-17.157 -24.064,-11.103 10.134,-14.018 -16.328,-30.057 -37.204,-7.306 -45.066,8.476 -30.186,25.369 -0.603,-0.719 30.373,-25.528 0.121,-0.023 45.365,-8.531 37.814,7.425 16.821,30.966 -9.811,13.571 24.068,11.106 -12.857,17.605 8.515,15.829 z" fill="#000000" id="path54" style="stroke-width:0.826151" />
    <path d="m 729.33576,446.26521 -11.553,-6.518 -34.348,2.071 -2.087,-29.454 -29.332,-40.058 0.758,-0.555 29.491,40.276 0.01,0.136 2.031,28.662 33.698,-2.032 11.539,6.511 23.569,-2.101 0.083,0.936 z" fill="#000000" id="path56" style="stroke-width:0.826151" />
    <path d="m 717.93976,439.88721 -37.678,-27.545 26.942,-15.326 -9.986,-33.369 0.901,-0.269 9.871,32.99 26.863,-25.829 0.651,0.678 -26.949,25.911 34.005,17.935 z m -35.951,-27.447 35.854,26.211 23.157,-23.348 -33.231,-17.528 z" fill="#000000" id="path58" style="stroke-width:0.826151" />
    <path d="m 708.40076,396.52421 -0.095,0.934 43.404,4.424 0.095,-0.934 z" fill="#000000" id="path60" style="stroke-width:0.826151" />
    <path d="m 756.00676,570.00921 -29.972,-2.278 5.501,-28.59 26.476,-26.983 0.157,-0.023 20.974,-3.009 -6.936,33.347 z m -28.851,-3.135 28.339,2.153 15.863,-26.964 6.594,-31.817 -19.492,2.797 -26.053,26.554 z" fill="#000000" id="path62" style="stroke-width:0.826151" />
    <path d="m 759.23276,541.43421 -27.29,-1.597 0.056,-0.937 26.277,1.539 -0.51,-27.831 0.939,-0.016 z" fill="#000000" id="path64" style="stroke-width:0.826151" />
    <path d="m 726.89376,567.66621 -0.596,-0.727 32.309,-26.488 13.242,1.316 -0.093,0.934 -12.853,-1.278 z" fill="#000000" id="path66" style="stroke-width:0.826151" />
    <path d="m 758.28876,540.88721 -3.032,28.578 0.934,0.099 3.032,-28.578 z" fill="#000000" id="path68" style="stroke-width:0.826151" />
    <path d="m 506.85076,601.63021 -37.413,-42.844 -12.217,-35.999 -7.61,-32.206 16.246,-32.137 -13.436,-15.265 6.975,-33.365 32.697,-47.477 0.062,-0.046 26.742,-19.9237 49.989,-7.805 2.449,-14.3482 33.405,-6.4558 39.365,0.2434 57.726,18.6983 -44.827,-4.1209 -33.33,10.339 -0.14,-0.0451 -34.068,-10.9234 -18.742,6.9913 26.171,8.4186 -13.555,18.4485 -44.961,-6.402 -7.665,25.51 -46.783,18.959 -12.78,29.989 -4.236,28.358 22.357,24.664 20.599,28.568 -10.333,29.79 -7.78,23.846 z m -36.553,-43.235 33.509,38.326 -13.049,-31.592 7.891,-24.185 10.175,-29.336 -20.281,-28.132 -22.013,-24.282 -15.925,31.503 7.52,31.83 z m -16.862,-115.483 12.667,14.391 4.16,-27.753 12.956,-30.402 0.179,-0.073 46.546,-18.863 7.768,-25.852 45.205,6.438 12.45,-16.9443 -26.113,-8.3988 -49.983,7.805 -26.493,19.7371 -32.554,47.272 z m 136.008,-115.9565 34.237,10.9779 33.225,-10.3061 0.093,0.009 36.509,3.3561 -49.623,-16.0741 -39.059,-0.2293 -32.673,6.3242 -2.26,13.2358 z" fill="#000000" id="path70" style="stroke-width:0.826151" />
    <path d="m 491.12076,565.55921 -21.862,-6.623 13.446,-34.247 -19.956,-28.735 0.014,-0.167 3.187,-37.454 0.936,0.079 -3.172,37.286 20.049,28.868 -13.257,33.767 20.888,6.327 z" fill="#000000" id="path72" style="stroke-width:0.826151" />
    <path d="m 463.25276,496.33821 -13.316,-5.262 0.344,-0.874 12.931,5.111 25.505,-12.533 0.416,0.844 z" fill="#000000" id="path74" style="stroke-width:0.826151" />
    <path d="m 483.67076,525.58421 -0.14,-0.012 -25.91,-2.468 0.089,-0.936 25.771,2.455 25.647,-13.507 0.438,0.831 z" fill="#000000" id="path76" style="stroke-width:0.826151" />
    <path d="m 483.91776,524.77021 -0.648,0.679 15.637,14.918 0.648,-0.68 z" fill="#000000" id="path78" style="stroke-width:0.826151" />
    <path d="m 453.20776,443.42221 -0.562,-0.753 17.439,-13.065 -10.964,-19.744 24.05,-10.684 8.941,-37.18 38.416,18.144 -0.401,0.849 -37.371,-17.65 -8.78,36.508 -23.535,10.455 10.864,19.562 z" fill="#000000" id="path80" style="stroke-width:0.826151" />
    <path d="m 492.51376,363.13121 -0.157,-0.927 44.42,-7.581 -17.382,-11.2073 0.509,-0.7902 19.412,12.5165 z" fill="#000000" id="path82" style="stroke-width:0.826151" />
    <path d="m 636.14776,457.47221 c 0,1.155 -0.938,2.094 -2.096,2.094 -1.155,0 -2.093,-0.938 -2.093,-2.094 0,-1.157 0.938,-2.095 2.093,-2.095 1.157,0 2.096,0.938 2.096,2.095 z" fill="#000000" fill-opacity="0.3" id="path84" style="stroke-width:0.826151" />
    <path d="m 605.16076,436.85921 c 0,1.155 -0.937,2.094 -2.095,2.094 -1.156,0 -2.094,-0.938 -2.094,-2.094 0,-1.157 0.937,-2.096 2.094,-2.096 1.158,0 2.095,0.938 2.095,2.096 z" fill="#000000" fill-opacity="0.3" id="path86" style="stroke-width:0.826151" />
    <path d="m 575.98276,414.62321 c 0,1.156 -0.938,2.094 -2.095,2.094 -1.155,0 -2.094,-0.938 -2.094,-2.094 0,-1.157 0.938,-2.095 2.094,-2.095 1.157,0 2.095,0.937 2.095,2.095 z" fill="#000000" fill-opacity="0.3" id="path88" style="stroke-width:0.826151" />
    <path d="m 546.67376,441.36521 c 0,1.156 -0.938,2.094 -2.095,2.094 -1.156,0 -2.095,-0.937 -2.095,-2.094 0,-1.157 0.938,-2.095 2.095,-2.095 1.157,0 2.095,0.937 2.095,2.095 z" fill="#000000" fill-opacity="0.3" id="path90" style="stroke-width:0.826151" />
    <path d="m 570.78976,460.19421 c 0,1.156 -0.937,2.093 -2.095,2.093 -1.156,0 -2.093,-0.937 -2.093,-2.093 0,-1.158 0.937,-2.094 2.093,-2.094 1.158,-10e-4 2.095,0.936 2.095,2.094 z" fill="#000000" fill-opacity="0.3" id="path92" style="stroke-width:0.826151" />
    <path d="m 546.98776,471.15321 c 0,1.156 -0.938,2.094 -2.096,2.094 -1.155,0 -2.093,-0.937 -2.093,-2.094 0,-1.157 0.938,-2.094 2.093,-2.094 1.158,-0.001 2.096,0.936 2.096,2.094 z" fill="#000000" fill-opacity="0.3" id="path94" style="stroke-width:0.826151" />
    <path d="m 588.17076,484.07221 c 0,1.156 -0.938,2.094 -2.095,2.094 -1.156,0 -2.093,-0.937 -2.093,-2.094 0,-1.156 0.937,-2.094 2.093,-2.094 1.157,-10e-4 2.095,0.937 2.095,2.094 z" fill="#000000" fill-opacity="0.3" id="path96" style="stroke-width:0.826151" />
    <path d="m 600.67876,531.20721 c 0,1.155 -0.938,2.093 -2.094,2.093 -1.156,0 -2.095,-0.938 -2.095,-2.093 0,-1.158 0.938,-2.096 2.095,-2.096 1.156,0 2.094,0.938 2.094,2.096 z" fill="#000000" fill-opacity="0.3" id="path98" style="stroke-width:0.826151" />
    <path d="m 621.19276,516.22321 c 0,1.156 -0.938,2.095 -2.095,2.095 -1.155,0 -2.094,-0.938 -2.094,-2.095 0,-1.157 0.938,-2.094 2.094,-2.094 1.157,0 2.095,0.938 2.095,2.094 z" fill="#000000" fill-opacity="0.3" id="path100" style="stroke-width:0.826151" />
    <path d="m 629.13776,566.51921 c 0,1.156 -0.938,2.094 -2.094,2.094 -1.156,0 -2.095,-0.937 -2.095,-2.094 0,-1.156 0.938,-2.094 2.095,-2.094 1.157,-10e-4 2.094,0.937 2.094,2.094 z" fill="#000000" fill-opacity="0.3" id="path102" style="stroke-width:0.826151" />
    <path d="m 599.44876,556.94921 c 0,1.155 -0.937,2.094 -2.094,2.094 -1.156,0 -2.094,-0.938 -2.094,-2.094 0,-1.157 0.938,-2.095 2.094,-2.095 1.157,0 2.094,0.938 2.094,2.095 z" fill="#000000" fill-opacity="0.3" id="path104" style="stroke-width:0.826151" />
    <path d="m 608.84576,575.44621 c 0,1.156 -0.938,2.093 -2.094,2.093 -1.156,0 -2.095,-0.937 -2.095,-2.093 0,-1.157 0.938,-2.095 2.095,-2.095 1.156,0 2.094,0.938 2.094,2.095 z" fill="#000000" fill-opacity="0.3" id="path106" style="stroke-width:0.826151" />
    <path d="m 649.14676,537.50821 c 0,1.156 -0.938,2.093 -2.095,2.093 -1.155,0 -2.094,-0.937 -2.094,-2.093 0,-1.157 0.938,-2.095 2.094,-2.095 1.157,0 2.095,0.938 2.095,2.095 z" fill="#000000" fill-opacity="0.3" id="path108" style="stroke-width:0.826151" />
    <path d="m 734.06576,539.60221 c 0,1.155 -0.938,2.094 -2.095,2.094 -1.155,0 -2.094,-0.938 -2.094,-2.094 0,-1.157 0.938,-2.095 2.094,-2.095 1.157,0 2.095,0.938 2.095,2.095 z" fill="#000000" fill-opacity="0.3" id="path110" style="stroke-width:0.826151" />
    <path d="m 728.69076,567.30321 c 0,1.156 -0.938,2.094 -2.095,2.094 -1.155,0 -2.094,-0.938 -2.094,-2.094 0,-1.157 0.938,-2.094 2.094,-2.094 1.157,-10e-4 2.095,0.936 2.095,2.094 z" fill="#000000" fill-opacity="0.3" id="path112" style="stroke-width:0.826151" />
    <path d="m 757.84376,569.51821 c 0,1.155 -0.938,2.094 -2.094,2.094 -1.156,0 -2.095,-0.938 -2.095,-2.094 0,-1.157 0.938,-2.096 2.095,-2.096 1.156,0.001 2.094,0.939 2.094,2.096 z" fill="#000000" fill-opacity="0.3" id="path114" style="stroke-width:0.826151" />
    <path d="m 760.84876,540.93721 c 0,1.155 -0.938,2.094 -2.094,2.094 -1.156,0 -2.095,-0.938 -2.095,-2.094 0,-1.157 0.938,-2.095 2.095,-2.095 1.156,0 2.094,0.938 2.094,2.095 z" fill="#000000" fill-opacity="0.3" id="path116" style="stroke-width:0.826151" />
    <path d="m 759.93876,513.21921 c 0,1.156 -0.938,2.095 -2.095,2.095 -1.155,0 -2.093,-0.938 -2.093,-2.095 0,-1.156 0.938,-2.094 2.093,-2.094 1.157,0 2.095,0.938 2.095,2.094 z" fill="#000000" fill-opacity="0.3" id="path118" style="stroke-width:0.826151" />
    <path d="m 650.49476,507.59121 c 0,1.156 -0.937,2.094 -2.094,2.094 -1.156,0 -2.093,-0.937 -2.093,-2.094 0,-1.157 0.937,-2.094 2.093,-2.094 1.157,-10e-4 2.094,0.937 2.094,2.094 z" fill="#000000" fill-opacity="0.3" id="path120" style="stroke-width:0.826151" />
    <path d="m 643.91876,484.65021 c 0,1.155 -0.937,2.094 -2.094,2.094 -1.156,0 -2.093,-0.938 -2.093,-2.094 0,-1.158 0.937,-2.095 2.093,-2.095 1.157,0 2.094,0.937 2.094,2.095 z" fill="#000000" fill-opacity="0.3" id="path122" style="stroke-width:0.826151" />
    <path d="m 667.78676,474.00121 c 0,1.155 -0.937,2.093 -2.094,2.093 -1.156,0 -2.093,-0.938 -2.093,-2.093 0,-1.158 0.937,-2.095 2.093,-2.095 1.157,0 2.094,0.938 2.094,2.095 z" fill="#000000" fill-opacity="0.3" id="path124" style="stroke-width:0.826151" />
    <path d="m 685.96276,441.36521 c 0,1.156 -0.938,2.094 -2.094,2.094 -1.156,0 -2.094,-0.937 -2.094,-2.094 0,-1.157 0.938,-2.095 2.094,-2.095 1.156,0 2.094,0.937 2.094,2.095 z" fill="#000000" fill-opacity="0.3" id="path126" style="stroke-width:0.826151" />
    <path d="m 641.82376,422.37521 c 0,1.156 -0.937,2.094 -2.094,2.094 -1.156,0 -2.094,-0.937 -2.094,-2.094 0,-1.157 0.938,-2.094 2.094,-2.094 1.156,-10e-4 2.094,0.937 2.094,2.094 z" fill="#000000" fill-opacity="0.3" id="path128" style="stroke-width:0.826151" />
    <path d="m 624.20876,397.47721 c 0,1.155 -0.937,2.094 -2.094,2.094 -1.157,0 -2.094,-0.938 -2.094,-2.094 0,-1.157 0.937,-2.095 2.094,-2.095 1.156,-10e-4 2.094,0.937 2.094,2.095 z" fill="#000000" fill-opacity="0.3" id="path130" style="stroke-width:0.826151" />
    <path d="m 587.70076,395.38221 c 0,1.156 -0.937,2.094 -2.095,2.094 -1.156,0 -2.093,-0.937 -2.093,-2.094 0,-1.156 0.937,-2.094 2.093,-2.094 1.158,0 2.095,0.938 2.095,2.094 z" fill="#000000" fill-opacity="0.3" id="path132" style="stroke-width:0.826151" />
    <path d="m 571.38576,399.57021 c 0,1.156 -0.938,2.094 -2.095,2.094 -1.156,0 -2.095,-0.937 -2.095,-2.094 0,-1.157 0.938,-2.094 2.095,-2.094 1.157,0 2.095,0.937 2.095,2.094 z" fill="#000000" fill-opacity="0.3" id="path134" style="stroke-width:0.826151" />
    <path d="m 587.70076,381.58221 c 0,1.156 -0.937,2.094 -2.095,2.094 -1.156,0 -2.093,-0.937 -2.093,-2.094 0,-1.157 0.937,-2.095 2.093,-2.095 1.158,0 2.095,0.938 2.095,2.095 z" fill="#000000" fill-opacity="0.3" id="path136" style="stroke-width:0.826151" />
    <path d="m 609.34976,372.41921 c 0,1.156 -0.938,2.095 -2.095,2.095 -1.156,0 -2.094,-0.938 -2.094,-2.095 0,-1.156 0.938,-2.094 2.094,-2.094 1.157,-0.001 2.095,0.937 2.095,2.094 z" fill="#000000" fill-opacity="0.3" id="path138" style="stroke-width:0.826151" />
    <path d="m 654.48876,372.02921 c 0,1.156 -0.938,2.095 -2.095,2.095 -1.155,0 -2.093,-0.938 -2.093,-2.095 0,-1.156 0.938,-2.094 2.093,-2.094 1.157,-10e-4 2.095,0.937 2.095,2.094 z" fill="#000000" fill-opacity="0.3" id="path140" style="stroke-width:0.826151" />
    <path d="m 699.76276,363.51421 c 0,1.156 -0.938,2.094 -2.094,2.094 -1.156,0 -2.095,-0.937 -2.095,-2.094 0,-1.157 0.938,-2.094 2.095,-2.094 1.156,0 2.094,0.937 2.094,2.094 z" fill="#000000" fill-opacity="0.3" id="path142" style="stroke-width:0.826151" />
    <path d="m 709.78476,396.96721 c 0,1.156 -0.937,2.095 -2.094,2.095 -1.156,0 -2.093,-0.938 -2.093,-2.095 0,-1.156 0.937,-2.095 2.093,-2.095 1.157,0 2.094,0.938 2.094,2.095 z" fill="#000000" fill-opacity="0.3" id="path144" style="stroke-width:0.826151" />
    <path d="m 683.87076,412.41021 c 0,1.156 -0.937,2.094 -2.094,2.094 -1.157,0 -2.094,-0.937 -2.094,-2.094 0,-1.157 0.937,-2.094 2.094,-2.094 1.156,0 2.094,0.937 2.094,2.094 z" fill="#000000" fill-opacity="0.3" id="path146" style="stroke-width:0.826151" />
    <path d="m 715.64276,469.81221 c 0,1.156 -0.938,2.094 -2.095,2.094 -1.156,0 -2.094,-0.938 -2.094,-2.094 0,-1.157 0.938,-2.094 2.094,-2.094 1.157,0 2.095,0.938 2.095,2.094 z" fill="#000000" fill-opacity="0.3" id="path148" style="stroke-width:0.826151" />
    <path d="m 732.14476,445.78521 c 0,1.156 -0.938,2.095 -2.094,2.095 -1.156,0 -2.094,-0.938 -2.094,-2.095 0,-1.156 0.938,-2.094 2.094,-2.094 1.156,-0.001 2.094,0.937 2.094,2.094 z" fill="#000000" fill-opacity="0.3" id="path150" style="stroke-width:0.826151" />
    <path d="m 719.83076,438.95321 c 0,1.156 -0.937,2.094 -2.094,2.094 -1.156,0 -2.093,-0.937 -2.093,-2.094 0,-1.157 0.937,-2.094 2.093,-2.094 1.157,0 2.094,0.937 2.094,2.094 z" fill="#000000" fill-opacity="0.3" id="path152" style="stroke-width:0.826151" />
    <path d="m 743.87576,415.23921 c 0,1.156 -0.937,2.095 -2.094,2.095 -1.156,0 -2.093,-0.938 -2.093,-2.095 0,-1.157 0.937,-2.094 2.093,-2.094 1.157,0 2.094,0.937 2.094,2.094 z" fill="#000000" fill-opacity="0.3" id="path154" style="stroke-width:0.826151" />
    <path d="m 755.24676,443.69121 c 0,1.156 -0.937,2.094 -2.094,2.094 -1.156,0 -2.094,-0.937 -2.094,-2.094 0,-1.157 0.937,-2.094 2.094,-2.094 1.157,0 2.094,0.937 2.094,2.094 z" fill="#000000" fill-opacity="0.3" id="path156" style="stroke-width:0.826151" />
    <path d="m 748.51476,471.15421 c 0,1.156 -0.938,2.093 -2.095,2.093 -1.156,0 -2.094,-0.937 -2.094,-2.093 0,-1.157 0.938,-2.095 2.094,-2.095 1.157,0 2.095,0.937 2.095,2.095 z" fill="#000000" fill-opacity="0.3" id="path158" style="stroke-width:0.826151" />
    <path d="m 764.02676,459.52721 c 0,1.155 -0.938,2.093 -2.095,2.093 -1.155,0 -2.094,-0.938 -2.094,-2.093 0,-1.157 0.938,-2.096 2.094,-2.096 1.157,0 2.095,0.938 2.095,2.096 z" fill="#000000" fill-opacity="0.3" id="path160" style="stroke-width:0.826151" />
    <path d="m 757.34276,492.35221 c 0,1.156 -0.938,2.094 -2.094,2.094 -1.156,0 -2.095,-0.938 -2.095,-2.094 0,-1.156 0.938,-2.095 2.095,-2.095 1.156,0.001 2.094,0.939 2.094,2.095 z" fill="#000000" fill-opacity="0.3" id="path162" style="stroke-width:0.826151" />
    <path d="m 767.94176,426.56421 c 0,1.155 -0.938,2.094 -2.095,2.094 -1.155,0 -2.093,-0.938 -2.093,-2.094 0,-1.157 0.938,-2.095 2.093,-2.095 1.157,0 2.095,0.937 2.095,2.095 z" fill="#000000" fill-opacity="0.3" id="path164" style="stroke-width:0.826151" />
    <path d="m 584.95976,361.42121 c 0,1.155 -0.938,2.094 -2.095,2.094 -1.156,0 -2.094,-0.938 -2.094,-2.094 0,-1.157 0.937,-2.095 2.094,-2.095 1.157,0 2.095,0.937 2.095,2.095 z" fill="#000000" fill-opacity="0.3" id="path166" style="stroke-width:0.826151" />
    <path d="m 494.52976,362.66921 c 0,1.155 -0.937,2.094 -2.094,2.094 -1.155,0 -2.094,-0.938 -2.094,-2.094 0,-1.157 0.938,-2.096 2.094,-2.096 1.157,0 2.094,0.938 2.094,2.096 z" fill="#000000" fill-opacity="0.3" id="path168" style="stroke-width:0.826151" />
    <path d="m 532.42276,380.40321 c 0,1.156 -0.938,2.094 -2.095,2.094 -1.156,0 -2.094,-0.937 -2.094,-2.094 0,-1.157 0.938,-2.095 2.094,-2.095 1.157,0 2.095,0.937 2.095,2.095 z" fill="#000000" fill-opacity="0.3" id="path170" style="stroke-width:0.826151" />
    <path d="m 485.67976,399.57021 c 0,1.156 -0.938,2.094 -2.094,2.094 -1.156,0 -2.095,-0.937 -2.095,-2.094 0,-1.157 0.938,-2.094 2.095,-2.094 1.156,0 2.094,0.937 2.094,2.094 z" fill="#000000" fill-opacity="0.3" id="path172" style="stroke-width:0.826151" />
    <path d="m 461.95376,410.31721 c 0,1.155 -0.937,2.094 -2.094,2.094 -1.156,0 -2.094,-0.938 -2.094,-2.094 0,-1.157 0.937,-2.095 2.094,-2.095 1.157,0 2.094,0.937 2.094,2.095 z" fill="#000000" fill-opacity="0.3" id="path174" style="stroke-width:0.826151" />
    <path d="m 472.64276,429.53221 c 0,1.156 -0.938,2.094 -2.094,2.094 -1.156,0 -2.095,-0.937 -2.095,-2.094 0,-1.157 0.938,-2.094 2.095,-2.094 1.156,-0.001 2.094,0.937 2.094,2.094 z" fill="#000000" fill-opacity="0.3" id="path176" style="stroke-width:0.826151" />
    <path d="m 455.02376,443.04621 c 0,1.155 -0.938,2.094 -2.095,2.094 -1.155,0 -2.094,-0.938 -2.094,-2.094 0,-1.157 0.938,-2.095 2.094,-2.095 1.157,0 2.095,0.937 2.095,2.095 z" fill="#000000" fill-opacity="0.3" id="path178" style="stroke-width:0.826151" />
    <path d="m 468.45376,458.37221 c 0,1.156 -0.937,2.094 -2.094,2.094 -1.156,0 -2.094,-0.937 -2.094,-2.094 0,-1.156 0.937,-2.094 2.094,-2.094 1.157,0 2.094,0.938 2.094,2.094 z" fill="#000000" fill-opacity="0.3" id="path180" style="stroke-width:0.826151" />
    <path d="m 512.02976,311.98631 c -0.867,0 -1.728,-0.1315 -2.563,-0.3918 l -21.103,-6.5873 c -2.192,-0.6831 -3.987,-2.1798 -5.054,-4.2159 -1.068,-2.0341 -1.278,-4.3633 -0.595,-6.5563 l 2.8,-8.9738 c 1.128,-3.6136 4.427,-6.0405 8.208,-6.0405 0.867,0 1.73,0.1325 2.565,0.3927 l 21.102,6.5827 c 2.194,0.6849 3.988,2.1816 5.056,4.2167 1.067,2.0342 1.278,4.3625 0.594,6.5554 l -2.8,8.9757 c -1.129,3.6146 -4.429,6.0424 -8.21,6.0424 z m -18.305,-31.8251 c -3.368,0 -6.306,2.1619 -7.311,5.3809 l -2.8,8.9738 c -0.609,1.9534 -0.421,4.028 0.529,5.8404 0.951,1.8134 2.549,3.1466 4.502,3.7545 l 21.103,6.5873 c 0.744,0.2312 1.511,0.3486 2.283,0.3486 3.369,0 6.308,-2.1629 7.313,-5.3809 l 2.8,-8.9757 c 0.611,-1.9534 0.422,-4.027 -0.529,-5.8394 -0.951,-1.8124 -2.549,-3.1466 -4.503,-3.7555 l -21.102,-6.5835 c -0.745,-0.2331 -1.514,-0.3505 -2.285,-0.3505 z" fill="#000000" id="path182" style="stroke-width:0.826151" />
    <path d="m 502.96976,300.04731 c -1.763,-9e-4 -3.369,-0.9696 -4.188,-2.5312 l -9.071,-17.3022 0.45,-0.2067 c 1.928,-0.8813 4.107,-1.0232 6.128,-0.3936 l 21.103,6.5835 c 2.015,0.6277 3.726,1.9806 4.818,3.809 l 0.253,0.4266 -17.302,9.0734 c -0.674,0.3542 -1.433,0.5412 -2.191,0.5412 z m -11.96,-19.3767 8.603,16.4095 c 0.657,1.2506 1.943,2.0276 3.357,2.0276 h 10e-4 c 0.615,0 1.205,-0.1465 1.753,-0.434 l 16.41,-8.6046 c -0.973,-1.4178 -2.386,-2.4654 -4.021,-2.9747 l -21.103,-6.5836 c -1.643,-0.5111 -3.407,-0.45 -5,0.1598 z" fill="#000000" id="path184" style="stroke-width:0.826151" />
    <path d="m 581.98476,690.61421 c -3.196,0 -6.107,-2.008 -7.245,-4.995 l -2.988,-7.865 c -0.735,-1.935 -0.672,-4.04 0.177,-5.927 0.848,-1.889 2.381,-3.332 4.315,-4.067 l 18.49,-7.023 c 0.885,-0.336 1.81,-0.507 2.749,-0.507 3.196,0 6.106,2.007 7.242,4.996 l 2.988,7.863 c 1.515,3.992 -0.499,8.475 -4.489,9.994 l -18.494,7.024 c -0.883,0.336 -1.807,0.507 -2.745,0.507 z m 15.499,-29.445 c -0.825,0 -1.638,0.15 -2.416,0.445 l -18.49,7.025 c -1.7,0.645 -3.047,1.914 -3.792,3.573 -0.746,1.659 -0.801,3.508 -0.155,5.209 l 2.987,7.864 c 1,2.626 3.559,4.391 6.367,4.391 0.824,0 1.636,-0.15 2.413,-0.446 l 18.493,-7.023 c 3.506,-1.335 5.276,-5.275 3.945,-8.782 l -2.987,-7.863 c -0.999,-2.627 -3.557,-4.393 -6.365,-4.393 z" fill="#000000" id="path186" style="stroke-width:0.826151" />
    <path d="m 589.63876,679.45221 c -0.607,0 -1.196,-0.127 -1.753,-0.377 l -15.992,-7.184 0.227,-0.441 c 0.877,-1.7 2.341,-3.01 4.123,-3.69 l 18.491,-7.023 c 1.775,-0.676 3.746,-0.667 5.531,0.02 l 0.463,0.178 -7.187,15.994 c -0.689,1.533 -2.221,2.523 -3.903,2.523 z m -16.438,-8.005 15.071,6.771 c 0.435,0.195 0.896,0.295 1.368,0.295 1.313,0 2.509,-0.774 3.047,-1.97 l 6.773,-15.072 c -1.436,-0.438 -2.983,-0.393 -4.389,0.144 l -18.491,7.024 c -1.411,0.537 -2.596,1.525 -3.379,2.808 z" fill="#000000" id="path188" style="stroke-width:0.826151" />
    <path d="m 429.33776,467.69121 c -0.075,1.264 -1.16,2.225 -2.421,2.149 -1.264,-0.075 -2.224,-1.161 -2.148,-2.422 0.074,-1.263 1.159,-2.224 2.421,-2.148 1.263,0.075 2.223,1.16 2.148,2.421 z" fill="#000000" fill-opacity="0.3" id="path190" style="stroke-width:0.826151" />
    <path d="m 437.45676,468.18121 c -0.076,1.262 -1.162,2.223 -2.424,2.148 -1.263,-0.077 -2.224,-1.161 -2.147,-2.423 0.075,-1.262 1.161,-2.224 2.423,-2.148 1.262,0.075 2.223,1.16 2.148,2.423 z" fill="#000000" fill-opacity="0.3" id="path192" style="stroke-width:0.826151" />
    <path d="m 441.62876,480.91521 c -0.085,1.388 0.97,2.578 2.358,2.664 1.387,0.082 2.577,-0.975 2.662,-2.361 0.084,-1.386 -0.973,-2.578 -2.36,-2.663 -1.386,-0.081 -2.577,0.974 -2.66,2.36 z" fill="#000000" fill-opacity="0.3" id="path194" style="stroke-width:0.826151" />
    <path d="m 445.52076,487.46721 c -0.063,1.054 0.741,1.962 1.794,2.025 1.057,0.062 1.963,-0.741 2.026,-1.795 0.063,-1.056 -0.739,-1.963 -1.795,-2.026 -1.055,-0.064 -1.963,0.74 -2.025,1.796 z" fill="#000000" fill-opacity="0.3" id="path196" style="stroke-width:0.826151" />
    <path d="m 414.73776,486.00221 c -0.156,0 -0.311,-0.005 -0.467,-0.014 l -19.5585,-1.178 c -2.0464,-0.123 -3.9227,-1.036 -5.2832,-2.57 -1.3605,-1.535 -2.0408,-3.507 -1.9168,-5.553 l 0.499,-8.317 c 0.2527,-4.202 3.8672,-7.47 8.1235,-7.2 l 19.556,1.176 c 2.047,0.123 3.925,1.036 5.284,2.57 1.361,1.534 2.042,3.506 1.918,5.555 l -0.499,8.317 c -0.244,4.045 -3.608,7.214 -7.656,7.214 z m -19.0728,-23.908 c -3.5516,0 -6.5018,2.782 -6.716,6.332 l -0.499,8.317 c -0.1089,1.796 0.4886,3.526 1.6828,4.873 1.1942,1.346 2.8403,2.148 4.6368,2.256 l 19.5572,1.177 c 3.721,0.226 6.908,-2.633 7.13,-6.319 l 0.499,-8.318 c 0.109,-1.797 -0.489,-3.528 -1.683,-4.874 -1.193,-1.346 -2.841,-2.147 -4.637,-2.255 l -19.5565,-1.176 c -0.14,-0.008 -0.2771,-0.013 -0.4143,-0.013 z" fill="#000000" id="path198" style="stroke-width:0.826151" />
    <path d="m 394.52086,489.25321 c -0.0827,1.387 -1.276,2.444 -2.66,2.361 -1.3877,-0.084 -2.4447,-1.275 -2.3602,-2.662 0.0827,-1.387 1.2741,-2.442 2.6618,-2.36 1.384,0.083 2.442,1.276 2.3584,2.661 z" fill="#000000" fill-opacity="0.3" id="path200" style="stroke-width:0.826151" />
    <path d="m 399.36986,473.22621 c -0.0742,1.264 -1.1603,2.224 -2.4231,2.148 -1.2618,-0.074 -2.223,-1.159 -2.1479,-2.422 0.0771,-1.263 1.1614,-2.225 2.4232,-2.148 1.2609,0.076 2.2239,1.161 2.1478,2.422 z" fill="#000000" fill-opacity="0.3" id="path202" style="stroke-width:0.826151" />
    <path d="m 407.48776,473.71521 c -0.075,1.263 -1.16,2.224 -2.422,2.147 -1.264,-0.075 -2.2238,-1.16 -2.1487,-2.423 0.0752,-1.263 1.1617,-2.223 2.4227,-2.147 1.263,0.077 2.224,1.161 2.148,2.423 z" fill="#000000" fill-opacity="0.3" id="path204" style="stroke-width:0.826151" />
    <path d="m 415.60676,474.20521 c -0.077,1.262 -1.161,2.223 -2.423,2.146 -1.263,-0.075 -2.225,-1.158 -2.15,-2.421 0.078,-1.263 1.163,-2.224 2.425,-2.15 1.263,0.077 2.224,1.161 2.148,2.425 z" fill="#000000" fill-opacity="0.3" id="path206" style="stroke-width:0.826151" />
    <path d="m 389.87046,495.29221 c -0.0611,1.055 -0.9696,1.86 -2.0248,1.795 -1.057,-0.064 -1.8594,-0.97 -1.7964,-2.025 0.0639,-1.056 0.9705,-1.859 2.0266,-1.795 1.0542,0.062 1.8604,0.968 1.7946,2.025 z" fill="#000000" fill-opacity="0.3" id="path208" style="stroke-width:0.826151" />
    <path d="m 436.59376,479.97921 c -0.157,0 -0.315,-0.005 -0.473,-0.014 l -14.413,-0.868 0.056,-0.937 14.414,0.867 c 1.784,0.107 3.526,-0.489 4.872,-1.683 1.347,-1.194 2.147,-2.841 2.254,-4.638 l 0.502,-8.316 c 0.222,-3.707 -2.613,-6.905 -6.32,-7.13 l -19.556,-1.176 c -3.722,-0.229 -6.906,2.612 -7.13,6.32 l -0.938,-0.057 c 0.256,-4.225 3.917,-7.456 8.124,-7.201 l 19.556,1.176 c 4.224,0.256 7.456,3.9 7.202,8.125 l -0.502,8.316 c -0.122,2.046 -1.035,3.924 -2.569,5.284 -1.416,1.254 -3.204,1.932 -5.079,1.932 z" fill="#000000" id="path210" style="stroke-width:0.826151" />
    <path d="m 447.20376,350.00801 c -0.613,0 -1.236,-0.0385 -1.85,-0.1156 -8.112,-1.009 -13.89,-8.4298 -12.881,-16.5411 0.921,-7.4085 7.236,-12.9961 14.691,-12.9961 0.614,0 1.236,0.0385 1.85,0.1156 3.93,0.4885 7.434,2.4776 9.868,5.6017 2.434,3.1241 3.505,7.0082 3.016,10.9385 -0.922,7.4103 -7.238,12.997 -14.694,12.997 z m -0.04,-28.7123 c -6.981,0 -12.897,5.2325 -13.759,12.1721 -0.945,7.5974 4.468,14.5483 12.065,15.4935 0.575,0.0714 1.158,0.1081 1.734,0.1081 6.982,0 12.899,-5.2334 13.761,-12.174 0.458,-3.6812 -0.546,-7.3193 -2.825,-10.2451 -2.279,-2.9267 -5.562,-4.7899 -9.242,-5.2475 -0.575,-0.0714 -1.158,-0.1071 -1.734,-0.1071 z" fill="#000000" id="path212" style="stroke-width:0.826151" />
    <g mask="url(#mask0_282_7984)" id="g227" transform="translate(303.04576,253.04321)" style="stroke-width:0.862285">
      <path d="m 142.85,96.883 c -0.179,0 -0.359,-0.0113 -0.537,-0.0339 -2.144,-0.2649 -3.937,-2.0839 -5.053,-5.1206 -1.077,-2.9324 -1.405,-6.6832 -0.923,-10.5617 1.018,-8.1855 5.251,-14.2862 9.634,-13.7403 2.143,0.2659 3.938,2.0849 5.053,5.1216 1.077,2.9315 1.405,6.6822 0.923,10.5608 -0.977,7.8529 -4.888,13.7741 -9.097,13.7741 z m 2.584,-28.5488 c -3.676,0 -7.261,5.6881 -8.164,12.95 -0.464,3.7329 -0.154,7.3277 0.872,10.122 0.988,2.6891 2.51,4.292 4.287,4.5118 3.837,0.467 7.649,-5.3846 8.588,-12.9237 0.463,-3.733 0.153,-7.3268 -0.873,-10.1211 -0.988,-2.69 -2.511,-4.2919 -4.287,-4.5127 -0.141,-0.0179 -0.283,-0.0263 -0.423,-0.0263 z" fill="#000000" id="path217" style="stroke-width:0.826151" />
      <path d="m 145.884,64.1697 -4.403,35.5246 0.933,0.1156 4.403,-35.5246 z" fill="#000000" id="path219" style="stroke-width:0.826151" />
      <path d="m 126.444,79.2954 -0.116,0.9324 35.527,4.4175 0.116,-0.9324 z" fill="#000000" id="path221" style="stroke-width:0.826151" />
      <path d="m 148.175,76.8682 c -1.1,0 -2.228,-0.0714 -3.353,-0.2114 -3.744,-0.465 -7.179,-1.6508 -9.672,-3.3392 -2.585,-1.7513 -3.868,-3.8485 -3.612,-5.9042 0.434,-3.4859 5.284,-5.9212 11.796,-5.9212 1.099,0 2.226,0.0714 3.349,0.2105 3.745,0.4669 7.18,1.6527 9.672,3.3401 2.585,1.7514 3.868,3.8485 3.612,5.9052 -0.434,3.4858 -5.283,5.9202 -11.792,5.9202 z m -4.842,-14.4364 c -5.928,0 -10.496,2.1441 -10.864,5.0971 -0.211,1.6884 0.929,3.467 3.208,5.0107 2.372,1.6067 5.661,2.737 9.259,3.1852 1.087,0.1353 2.176,0.2039 3.237,0.2039 5.926,0 10.492,-2.1432 10.86,-5.0963 0.211,-1.6884 -0.928,-3.4679 -3.206,-5.0116 -2.372,-1.6057 -5.66,-2.7379 -9.261,-3.1861 -1.085,-0.1344 -2.172,-0.2029 -3.233,-0.2029 z" fill="#000000" id="path223" style="stroke-width:0.826151" />
      <path d="m 144.991,102.49 c -0.001,0 -0.001,0 0,0 -1.101,-10e-4 -2.229,-0.072 -3.353,-0.212 -3.744,-0.466 -7.18,-1.652 -9.672,-3.34 -2.587,-1.7514 -3.869,-3.8485 -3.614,-5.9042 0.433,-3.4858 5.282,-5.9203 11.793,-5.9203 1.1,0 2.228,0.0714 3.352,0.2114 7.97,0.9913 13.805,5.0521 13.287,9.2454 -0.434,3.4847 -5.284,5.9197 -11.793,5.9197 z m -4.846,-14.4369 c -5.927,0 -10.493,2.1431 -10.861,5.0962 -0.21,1.6884 0.93,3.468 3.208,5.0107 2.372,1.6067 5.661,2.738 9.261,3.185 1.087,0.135 2.175,0.203 3.237,0.204 5.926,0 10.494,-2.1431 10.862,-5.0952 0.447,-3.6089 -5.147,-7.2864 -12.47,-8.1978 -1.087,-0.1343 -2.176,-0.2029 -3.237,-0.2029 z" fill="#000000" id="path225" style="stroke-width:0.826151" />
    </g>
    <path d="m 450.04576,630.03421 c -5.941,0 -11.072,-4.037 -12.477,-9.818 -0.811,-3.336 -0.274,-6.787 1.51,-9.72 1.785,-2.932 4.605,-4.993 7.941,-5.804 1.001,-0.243 2.026,-0.366 3.046,-0.366 5.942,0 11.073,4.037 12.479,9.818 0.811,3.336 0.275,6.788 -1.51,9.72 -1.785,2.933 -4.606,4.993 -7.943,5.804 -1.001,0.243 -2.026,0.366 -3.046,0.366 z m 0.02,-24.768 c -0.946,0 -1.896,0.114 -2.824,0.34 -3.091,0.751 -5.706,2.661 -7.361,5.38 -1.654,2.718 -2.151,5.917 -1.4,9.008 1.303,5.36 6.058,9.102 11.565,9.102 0.945,0 1.896,-0.115 2.823,-0.34 3.092,-0.752 5.708,-2.662 7.362,-5.38 1.655,-2.718 2.153,-5.918 1.4,-9.01 -1.302,-5.358 -6.058,-9.1 -11.565,-9.1 z" fill="#000000" id="path229" style="stroke-width:0.826151" />
    <g mask="url(#mask1_282_7984)" id="g244" transform="translate(303.04576,253.04321)" style="stroke-width:0.862285">
      <path d="m 149.131,376.735 c -3.54,0 -7.23,-4.618 -8.777,-10.979 -1.701,-7.003 -0.113,-13.199 3.618,-14.106 0.296,-0.072 0.604,-0.109 0.913,-0.109 3.54,0 7.232,4.617 8.778,10.979 1.702,7.003 0.112,13.198 -3.619,14.106 -0.297,0.071 -0.604,0.109 -0.913,0.109 z m -4.247,-24.254 c -0.234,0 -0.466,0.027 -0.69,0.082 -3.112,0.756 -4.452,6.696 -2.928,12.97 1.423,5.85 4.804,10.261 7.865,10.261 0.235,0 0.467,-0.028 0.69,-0.082 3.113,-0.758 4.454,-6.698 2.929,-12.971 -1.423,-5.85 -4.804,-10.26 -7.866,-10.26 z" fill="#000000" id="path234" style="stroke-width:0.826151" />
      <path d="m 143.792,348.898 -0.913,0.222 7.296,30.001 0.913,-0.222 z" fill="#000000" id="path236" style="stroke-width:0.826151" />
      <path d="m 161.87,359.91 -30.004,7.296 0.222,0.913 30.004,-7.296 z" fill="#000000" id="path238" style="stroke-width:0.826151" />
      <path d="m 140.659,360.225 c -4.553,0 -7.763,-1.57 -8.378,-4.097 -0.87,-3.575 3.75,-7.666 10.517,-9.314 1.783,-0.433 3.545,-0.653 5.24,-0.653 4.555,0 7.766,1.57 8.38,4.098 0.87,3.577 -3.75,7.667 -10.518,9.312 -1.783,0.434 -3.546,0.654 -5.241,0.654 z m 7.379,-13.124 c -1.62,0 -3.309,0.211 -5.018,0.627 -6.047,1.471 -10.546,5.217 -9.826,8.179 0.5,2.053 3.43,3.379 7.465,3.379 1.62,0 3.308,-0.211 5.018,-0.627 6.047,-1.47 10.548,-5.215 9.827,-8.177 -0.499,-2.054 -3.429,-3.381 -7.466,-3.381 z" fill="#000000" id="path240" style="stroke-width:0.826151" />
      <path d="m 145.919,381.863 c -4.554,0 -7.765,-1.57 -8.379,-4.096 -0.869,-3.577 3.752,-7.667 10.52,-9.312 1.783,-0.435 3.547,-0.653 5.242,-0.653 4.552,0 7.762,1.57 8.378,4.097 0.869,3.576 -3.752,7.666 -10.52,9.311 -1.783,0.433 -3.546,0.653 -5.241,0.653 z m 7.383,-13.122 c -1.62,0 -3.308,0.211 -5.019,0.627 -6.048,1.469 -10.549,5.214 -9.828,8.177 0.499,2.053 3.428,3.379 7.464,3.379 1.619,0 3.309,-0.211 5.02,-0.627 6.047,-1.471 10.547,-5.214 9.828,-8.176 -0.5,-2.053 -3.431,-3.38 -7.465,-3.38 z" fill="#000000" id="path242" style="stroke-width:0.826151" />
    </g>
    <path d="m 417.85776,575.74921 c 0.773,1.093 2.162,1.658 3.539,1.317 l 14.566,-3.614 c 1.364,-0.34 2.322,-1.469 2.507,-2.779 -2.954,-2.602 -8.87,-2.329 -9.912,-5.604 3.672,-7.954 -0.676,-12.791 -5.208,-11.686 -4.529,1.106 -6.166,7.398 0.751,12.771 0.586,3.407 -4.854,5.892 -6.243,9.595 z" fill="#000000" fill-opacity="0.3" id="path246" style="stroke-width:0.826151" />
    <path d="m 419.65276,584.60221 c -2.197,0 -4.104,-1.492 -4.635,-3.63 l -7.867,-31.716 c -0.308,-1.239 -0.115,-2.524 0.544,-3.617 0.658,-1.094 1.703,-1.866 2.942,-2.173 l 19.131,-4.747 c 0.379,-0.094 0.766,-0.141 1.153,-0.141 2.2,0 4.107,1.492 4.636,3.629 l 7.871,31.716 c 0.634,2.559 -0.933,5.155 -3.491,5.789 l -19.13,4.748 c -0.378,0.094 -0.766,0.142 -1.154,0.142 z m 11.268,-45.084 c -0.311,0 -0.622,0.039 -0.927,0.114 l -19.13,4.748 c -0.996,0.246 -1.835,0.865 -2.364,1.744 -0.529,0.879 -0.684,1.91 -0.437,2.906 l 7.867,31.716 c 0.426,1.718 1.957,2.917 3.723,2.917 0.31,0 0.623,-0.039 0.928,-0.114 l 19.129,-4.747 c 2.056,-0.51 3.314,-2.596 2.806,-4.65 l -7.872,-31.716 c -0.424,-1.719 -1.956,-2.918 -3.723,-2.918 z" fill="#000000" id="path248" style="stroke-width:0.826151" />
    <path d="m 420.58776,577.63521 c -1.758,0 -3.281,-1.192 -3.704,-2.9 l -5.94,-23.944 c -0.247,-0.988 -0.092,-2.014 0.434,-2.888 0.526,-0.875 1.361,-1.491 2.351,-1.737 l 14.567,-3.615 c 0.303,-0.075 0.613,-0.114 0.923,-0.114 1.756,0 3.279,1.193 3.703,2.9 l 5.94,23.945 c 0.245,0.989 0.091,2.016 -0.435,2.889 -0.526,0.874 -1.362,1.49 -2.352,1.735 l -14.565,3.615 c -0.303,0.076 -0.613,0.114 -0.922,0.114 z m 8.631,-34.257 c -0.234,0 -0.468,0.029 -0.697,0.085 l -14.567,3.616 c -0.746,0.185 -1.376,0.649 -1.773,1.309 -0.397,0.658 -0.513,1.431 -0.327,2.176 l 5.94,23.944 c 0.375,1.513 1.956,2.48 3.489,2.101 l 14.566,-3.614 c 0.746,-0.185 1.376,-0.649 1.773,-1.309 0.396,-0.659 0.513,-1.432 0.328,-2.178 l -5.94,-23.945 c -0.321,-1.286 -1.469,-2.185 -2.792,-2.185 z" fill="#000000" id="path250" style="stroke-width:0.826151" />
    <path d="m 431.02076,577.90621 c 0.218,0.876 -0.316,1.765 -1.194,1.981 -0.876,0.217 -1.763,-0.317 -1.979,-1.194 -0.218,-0.876 0.315,-1.764 1.193,-1.981 0.875,-0.216 1.762,0.317 1.98,1.194 z" fill="#000000" fill-opacity="0.3" id="path252" style="stroke-width:0.826151" />
    <path d="m 492.07476,658.09321 c -1.117,0 -1.88,-0.494 -2.147,-1.392 l -0.065,-0.215 c -0.09,-0.297 -0.18,-0.595 -0.25,-0.905 -1.253,-5.625 1.97,-11.146 7.184,-12.308 1.125,-0.251 2.292,-0.284 3.439,-0.095 0.85,-5.771 4.923,-10.392 10.269,-11.583 0.905,-0.202 1.832,-0.304 2.754,-0.304 5.227,0 10.094,3.232 12.508,8.269 0.015,-0.003 0.029,-0.007 0.044,-0.01 0.524,-0.117 1.057,-0.175 1.588,-0.175 3.657,0 6.974,2.818 7.886,6.699 0.245,1.043 -0.132,2.357 -1.186,2.75 -0.787,0.293 -36.963,8.251 -41.086,9.158 0,0 -0.418,0.111 -0.938,0.111 z m 6.681,-14.096 c -0.588,0 -1.179,0.064 -1.755,0.193 -4.709,1.05 -7.612,6.068 -6.472,11.186 0.064,0.285 0.149,0.563 0.233,0.837 l 0.065,0.22 c 0.054,0.178 0.215,0.72 1.247,0.72 0.392,0 0.713,-0.082 0.717,-0.083 13.822,-3.041 40.15,-8.854 40.985,-9.128 0.529,-0.197 0.738,-1.029 0.592,-1.652 -0.814,-3.462 -3.745,-5.975 -6.971,-5.975 -0.462,0 -0.927,0.052 -1.383,0.154 -0.083,0.018 -0.166,0.044 -0.249,0.068 l -0.52,0.149 -0.167,-0.371 c -2.197,-4.911 -6.838,-8.084 -11.821,-8.084 -0.854,0 -1.712,0.095 -2.55,0.282 -5.109,1.138 -8.969,5.67 -9.606,11.275 l -0.059,0.519 -0.509,-0.113 c -0.585,-0.132 -1.184,-0.197 -1.777,-0.197 z" fill="#000000" id="path254" style="stroke-width:0.826151" />
    <path d="m 520.32176,654.83921 v 0 l -1.631,-7.318 z m 0,0 c 0.172,0.773 0.943,1.266 1.718,1.092 l 3.22,-0.719 -3.396,6.343 -10e-4,10e-4 c -0.136,0.256 -0.321,0.601 -0.5,0.935 -0.141,0.263 -0.279,0.52 -0.387,0.722 l -3.468,6.478 v 0 c -0.099,0.185 -0.287,0.228 -0.457,0.102 0,0 0,0 0,0 l -5.891,-4.394 v -0.001 c -0.415,-0.309 -1.093,-0.813 -1.507,-1.122 v 0 m 10.669,-9.437 -10.669,9.437 m 8.514,-17.089 h -10e-4 l -11.261,2.508 c 0,0 0,0 0,0 -0.236,0.052 -0.386,0.291 -0.334,0.523 v 10e-4 l 1.63,7.32 z m 0,0 c 0.234,-0.052 0.472,0.098 0.524,0.334 z m -8.514,17.089 -5.768,-4.301 z m -2.544,-5.019 c 0.773,-0.172 1.265,-0.944 1.092,-1.718 z" fill="#000000" fill-opacity="0.3" stroke="#000000" id="path256" style="stroke-width:0.826151" />
    <path d="m 604.35276,281.35991 -0.127,-0.006 c -0.704,-0.061 -30.876,-7.0157 -34.315,-7.8087 -0.748,-0.1381 -2.142,-0.7742 -1.928,-2.1601 l 0.025,-0.1644 c 0.039,-0.264 0.079,-0.5318 0.138,-0.7987 0.92,-4.0392 4.38,-6.9697 8.228,-6.9697 0.57,0 1.142,0.0649 1.7,0.1917 0.932,0.2123 1.802,0.591 2.593,1.1294 2.226,-3.28289 5.853,-5.30203 9.577,-5.30203 0.792,0 1.586,0.0892 2.364,0.26683 5.062,1.15285 8.68,5.9512 8.73,11.4966 3.502,0.8136 5.676,4.5785 4.851,8.4072 -0.181,0.8325 -0.885,1.7176 -1.836,1.7176 z m -27.978,-16.9677 c -3.413,0 -6.488,2.6233 -7.311,6.2369 -0.055,0.2424 -0.091,0.4876 -0.126,0.73 l -0.026,0.1691 c -0.129,0.8353 1.138,1.088 1.193,1.0984 11.508,2.6533 33.442,7.6904 34.212,7.7928 l 0.036,9e-4 c 0.383,0 0.803,-0.4472 0.919,-0.9762 0.719,-3.3364 -1.149,-6.6108 -4.164,-7.2986 -0.066,-0.015 -0.136,-0.0244 -0.204,-0.0357 l -0.517,-0.0845 0.009,-0.4069 c 0.118,-5.271 -3.245,-9.88237 -7.996,-10.96381 -0.708,-0.16067 -1.433,-0.24241 -2.155,-0.24241 -3.56,0 -7.03,2.02384 -9.054,5.28132 l -0.277,0.4435 -0.411,-0.3214 c -0.787,-0.6135 -1.674,-1.0363 -2.637,-1.2552 -0.489,-0.1118 -0.992,-0.1682 -1.491,-0.1682 z" fill="#000000" id="path258" style="stroke-width:0.826151" />
    <path d="m 591.59576,280.86371 v 10e-4 c -0.155,0.6884 0.277,1.3815 0.968,1.5379 0,0 10e-4,0 10e-4,0 l 2.517,0.573 -4.694,3.4664 c 0,1e-4 -10e-4,3e-4 -10e-4,5e-4 -0.348,0.2559 -0.917,0.6758 -1.264,0.9324 l -4.941,3.6481 v 0 c -0.062,0.0462 -0.114,0.0482 -0.146,0.0407 -0.033,-0.007 -0.079,-0.0318 -0.115,-0.0997 0,-10e-5 0,-3e-4 -10e-4,-5e-4 l -2.872,-5.4271 c -0.146,-0.2769 -0.36,-0.6804 -0.543,-1.0267 -0.07,-0.1323 -0.136,-0.2562 -0.192,-0.3615 v 0 l -2.731,-5.1562 2.516,0.5738 v 0 l 0.003,5e-4 c 0.687,0.1535 1.378,-0.2775 1.536,-0.9689 l 1.392,-6.1118 v -1e-4 c 0.035,-0.152 0.19,-0.2493 0.341,-0.2147 l 10e-4,3e-4 9.4,2.1401 c 0,0 0,1e-4 0,1e-4 0.154,0.0354 0.25,0.191 0.216,0.3421 v 0 z" fill="#000000" fill-opacity="0.3" stroke="#000000" id="path260" style="stroke-width:0.826151" />
    <path d="m 420.05076,389.27321 -0.828,2.991 0.904,0.251 0.828,-2.991 z" fill="#000000" id="path262" style="stroke-width:0.826151" />
    <path d="m 424.59376,390.59521 -0.808,2.934 0.907,0.249 0.808,-2.934 z" fill="#000000" id="path264" style="stroke-width:0.826151" />
    <path d="m 420.53176,412.38821 c -0.213,0 -0.424,-0.029 -0.631,-0.087 l -6.05,-1.673 c -1.252,-0.349 -1.989,-1.65 -1.642,-2.902 l 3.972,-14.357 c 0.339,-1.222 1.667,-1.987 2.902,-1.645 l 6.05,1.673 c 1.253,0.348 1.99,1.65 1.642,2.902 l -3.972,14.359 c -0.282,1.017 -1.215,1.73 -2.271,1.73 z m -2.078,-19.81 c -0.636,0 -1.198,0.428 -1.369,1.042 l -3.972,14.357 c -0.208,0.753 0.236,1.537 0.988,1.745 l 6.05,1.673 c 0.747,0.208 1.542,-0.252 1.744,-0.987 l 3.973,-14.359 c 0.209,-0.754 -0.235,-1.538 -0.988,-1.746 l -6.05,-1.674 c -0.121,-0.034 -0.249,-0.051 -0.376,-0.051 z" fill="#000000" id="path266" style="stroke-width:0.826151" />
    <path d="m 426.00476,391.21621 c -1.103,0 -2.205,-0.15 -3.275,-0.446 -6.519,-1.805 -10.355,-8.576 -8.551,-15.092 1.466,-5.298 6.323,-8.998 11.814,-8.998 1.102,0 2.205,0.151 3.276,0.447 6.518,1.803 10.355,8.574 8.551,15.093 -1.465,5.296 -6.325,8.996 -11.815,8.996 z m -0.011,-23.597 c -5.07,0 -9.555,3.416 -10.909,8.308 -1.664,6.018 1.877,12.27 7.896,13.937 0.989,0.274 2.008,0.413 3.025,0.413 5.069,0 9.556,-3.417 10.91,-8.308 1.665,-6.02 -1.877,-12.272 -7.895,-13.937 -0.992,-0.274 -2.009,-0.413 -3.027,-0.413 z" fill="#000000" id="path268" style="stroke-width:0.826151" />
    <path d="m 433.36576,380.98521 c -1.126,4.068 -5.337,6.454 -9.406,5.329 -4.069,-1.125 -6.454,-5.336 -5.329,-9.405 1.127,-4.069 5.337,-6.452 9.407,-5.328 4.066,1.127 6.453,5.336 5.328,9.404 z" fill="#000000" fill-opacity="0.3" id="path270" style="stroke-width:0.826151" />
    <path d="m 310.60823,525.92821 c 3.58353,-3.017 2.89083,-7.825 2.89083,-7.825 0,0 14.6497,13.295 15.404,17.632 0.7543,4.339 -10.1852,19.993 -11.8821,22.445 -0.2086,0.301 -0.4835,0.541 -0.8088,0.727 0.4592,1.129 0.7786,2.435 0.7632,4.081 -0.0451,4.809 -5.47955,3.105 -7.67123,1.644 -2.19169,-1.461 -1.64363,-4.018 -1.64363,-4.018 0,0 2.73975,1.095 2.73975,-0.183 0,-1.278 -2.55725,-3.288 -2.55725,-3.288 l 0.0634,-0.044 c -0.53445,-0.413 -1.02919,-0.868 -1.44809,-1.371 -2.82923,-3.395 1.88594,-7.167 2.82922,-9.241 0.94327,-2.075 -0.75426,-3.961 -4.14933,-6.791 -3.39506,-2.829 1.88654,-10.75 5.47003,-13.768 z" fill="#263238" stroke="#263238" stroke-miterlimit="10" stroke-linecap="round" stroke-linejoin="round" id="path272" style="stroke-width:0.826151" />
    <path d="m 364.33636,555.13021 c 0,0 -0.1416,2.688 0.1416,4.951 0.2832,2.264 -1.2733,4.739 -2.0513,5.305 -0.7779,0.566 -4.6683,1.839 -4.6683,1.839 l -0.6364,-3.395 0.5659,-1.414 -0.778,-5.163 c 0,0 0.5659,-1.627 1.2733,-2.759 0.7075,-1.132 2.6171,-2.334 2.7581,-2.546 0.1416,-0.212 2.4755,0.283 2.6877,0.283 0.2121,0 1.2732,0.425 1.2732,0.425 z" fill="#ffffff" stroke="#263238" stroke-miterlimit="10" stroke-linecap="round" stroke-linejoin="round" id="path274" style="stroke-width:0.826151" />
    <path d="m 365.53956,551.67621 c 0,0 1.2147,0.099 1.3634,0.582 0.1487,0.482 -0.3609,3.261 -0.6636,3.519 -0.3034,0.257 -1.1288,0.002 -1.1305,-1.127 -0.002,-1.129 0.1125,-2.53 0.4307,-2.974 z" fill="#ffffff" stroke="#263238" stroke-miterlimit="10" stroke-linecap="round" stroke-linejoin="round" id="path276" style="stroke-width:0.826151" />
    <path d="m 364.15966,551.34421 c 0,0 1.3243,0 1.5281,0.509 0.2038,0.51 -0.1019,3.566 -0.4076,3.872 -0.3058,0.306 -1.2224,0.102 -1.3243,-1.121 -0.1019,-1.223 -0.1019,-2.751 0.2038,-3.26 z" fill="#ffffff" stroke="#263238" stroke-miterlimit="10" stroke-linecap="round" stroke-linejoin="round" id="path278" style="stroke-width:0.826151" />
    <path d="m 362.74926,550.83121 c 0,0 1.4931,0 1.723,0.574 0.2299,0.574 -0.1149,4.02 -0.4592,4.365 -0.3448,0.345 -1.3781,0.115 -1.4931,-1.263 -0.1155,-1.379 -0.1155,-3.101 0.2293,-3.676 z" fill="#ffffff" stroke="#263238" stroke-miterlimit="10" stroke-linecap="round" stroke-linejoin="round" id="path280" style="stroke-width:0.826151" />
    <path d="m 361.39476,550.83921 c 0,0 1.4931,0 1.723,0.574 0.2299,0.574 -0.1149,4.02 -0.4591,4.365 -0.3449,0.345 -1.3782,0.115 -1.4932,-1.263 -0.1155,-1.379 -0.1155,-3.102 0.2293,-3.676 z" fill="#ffffff" stroke="#263238" stroke-miterlimit="10" stroke-linecap="round" stroke-linejoin="round" id="path282" style="stroke-width:0.826151" />
    <path d="m 357.60486,561.29121 c 0,0 -0.5741,-2.986 -0.6891,-4.594 -0.1149,-1.608 1.7231,-3.561 2.1822,-4.136 0.4592,-0.574 0.4592,-2.642 1.2633,-2.642 0.804,0 1.0339,0.919 1.0339,0.919 0,0 0.4592,1.494 -0.3448,2.298 -0.8041,0.804 -1.6081,2.067 -1.6081,2.067 0,0 2.4121,4.594 2.4121,5.858 0,1.264 -2.2972,2.757 -2.2972,2.757" fill="#ffffff" id="path284" style="stroke-width:0.826151" />
    <path d="m 357.60486,561.29121 c 0,0 -0.5741,-2.986 -0.6891,-4.594 -0.1149,-1.608 1.7231,-3.561 2.1822,-4.136 0.4592,-0.574 0.4592,-2.642 1.2633,-2.642 0.804,0 1.0339,0.919 1.0339,0.919 0,0 0.4592,1.494 -0.3448,2.298 -0.8041,0.804 -1.6081,2.067 -1.6081,2.067 0,0 2.4121,4.594 2.4121,5.858 0,1.264 -2.2972,2.757 -2.2972,2.757" stroke="#263238" stroke-miterlimit="10" stroke-linecap="round" stroke-linejoin="round" id="path286" style="stroke-width:0.826151" />
    <path d="m 357.26426,563.54721 0.637,5.517 -15.1362,4.952 0.1416,-8.276 z" fill="#ff5f5f" stroke="#263238" stroke-miterlimit="10" stroke-linecap="round" stroke-linejoin="round" id="path288" style="stroke-width:0.826151" />
    <path d="m 332.29676,537.52021 c 0,0 8.4314,2.523 8.9973,5.164 0.5658,2.64 2.3196,10.679 2.3196,10.679 0,0 2.0744,5.469 1.886,8.298 -0.1884,2.829 -1.886,8.488 -0.9433,12.26 0.9433,3.772 4.1493,15.089 4.9036,18.861 0.7543,3.772 1.1317,6.035 1.1317,6.035 l -3.0177,0.566 -4.1493,0.566 c 0,0 -1.6975,-11.317 -3.0176,-21.125 -1.3201,-9.807 2.0744,-16.597 -1.1317,-23.01 -3.2061,-6.413 -10.9395,-12.826 -10.3736,-15.466 0.5658,-2.64 3.395,-2.828 3.395,-2.828 z" fill="#ff5f5f" stroke="#263238" stroke-miterlimit="10" stroke-linecap="round" stroke-linejoin="round" id="path290" style="stroke-width:0.826151" />
    <path d="m 347.57536,592.02721 c 0,0 1.1317,13.769 -1.1317,23.953 -2.2634,10.186 -4.9036,17.164 -4.9036,17.164 0,0 -2.6408,16.598 -4.5268,22.444 -1.8859,5.847 -2.4518,11.506 -2.0743,16.032 0.3774,4.527 3.5835,10.374 5.0926,11.506 1.5091,1.131 4.5267,3.772 0.7542,4.715 -3.7719,0.943 -8.6464,-1.225 -10.9394,-1.32 -4.5268,-0.189 -5.0926,-3.207 -5.0926,-6.035 0,-2.83 2.6408,-12.448 1.8859,-17.353 -0.7542,-4.903 -0.9433,-21.124 -0.1884,-25.462 0.7543,-4.338 1.1317,-8.299 1.1317,-8.299 l 0.5658,-35.27 18.6723,-2.64 z" fill="#263238" stroke="#ffffff" stroke-miterlimit="10" stroke-linecap="round" stroke-linejoin="round" id="path292" style="stroke-width:0.826151" />
    <path d="m 326.75336,666.08821 c 4.3543,1.888 6.7984,1.543 8.141,0.763 -0.0906,1.686 -0.08,3.292 0.0433,4.77 0.3774,4.526 3.5835,10.373 5.0926,11.505 1.5091,1.132 4.5267,3.772 0.7542,4.715 -3.7719,0.943 -8.6464,-1.225 -10.9394,-1.32 -4.5268,-0.189 -5.0926,-3.206 -5.0926,-6.035 0,-2.334 1.7941,-9.282 2.0009,-14.398 z" fill="#ffffff" stroke="#263238" stroke-miterlimit="10" stroke-linecap="round" stroke-linejoin="round" id="path294" style="stroke-width:0.826151" />
    <path d="m 324.77076,680.04421 c 0.002,-0.031 0.004,-0.061 0.007,-0.093 0.0125,-0.157 0.0285,-0.327 0.0492,-0.508 0.004,-0.038 0.01,-0.077 0.0142,-0.116 0.0214,-0.176 0.0451,-0.359 0.0729,-0.554 0.003,-0.021 0.005,-0.041 0.008,-0.061 0.0296,-0.204 0.0634,-0.421 0.0989,-0.643 0.0107,-0.068 0.0214,-0.135 0.0326,-0.204 0.0338,-0.206 0.0694,-0.417 0.1067,-0.635 0.0201,-0.117 0.0409,-0.236 0.0616,-0.356 0.005,-0.025 0.009,-0.051 0.0136,-0.077 0.2643,0.263 0.5404,0.544 0.8372,0.859 3.0177,3.206 7.167,6.791 11.5053,6.791 2.0667,0 2.5911,-0.6 2.5751,-1.228 1.5411,1.178 4.3046,3.704 0.6316,4.623 -3.7719,0.943 -8.6465,-1.225 -10.9395,-1.32 -4.5267,-0.189 -5.0926,-3.207 -5.0926,-6.036 0,-0.132 0.008,-0.283 0.0184,-0.442 z" fill="#ff5f5f" stroke="#263238" stroke-miterlimit="10" stroke-linecap="round" stroke-linejoin="round" id="path296" style="stroke-width:0.826151" />
    <path d="m 328.52526,683.88021 c 3.5835,2.829 7.356,3.206 10.5621,3.206 2.4778,0 3.1515,-1.011 3.3305,-1.472 0.4325,0.898 0.2121,1.765 -1.633,2.227 -3.7719,0.943 -8.6465,-1.225 -10.9395,-1.32 -4.2642,-0.178 -5.0132,-2.866 -5.0855,-5.543 0.9066,0.679 2.1657,1.639 3.7654,2.902 z" fill="#ffffff" stroke="#263238" stroke-miterlimit="10" stroke-linecap="round" stroke-linejoin="round" id="path298" style="stroke-width:0.826151" />
    <path d="m 335.50456,612.96321 c 0,0 -1.8859,23.953 -3.395,30.366 -1.5091,6.412 -4.7152,28.668 -4.7152,31.686 0,3.017 2.075,7.356 3.2061,9.242 1.1316,1.886 4.1493,2.263 4.1493,3.961 0,1.697 -6.0353,1.697 -7.167,1.886 -1.1317,0.188 -8.8645,-1.886 -9.0535,-2.83 -0.1884,-0.943 -0.1884,-4.903 -0.1884,-4.903 0,0 -0.1884,-1.886 0,-3.206 0.1884,-1.32 2.4518,-5.281 2.4518,-5.281 0,0 -2.075,-18.484 -2.6408,-21.502 -0.5659,-3.017 -0.3774,-9.242 -0.1884,-12.071 0.1884,-2.829 1.8859,-8.488 1.8859,-8.488 l -3.7719,-29.988 0.3774,-9.619 c 0,0 5.281,0.566 11.1279,0.566 5.8469,0 9.9962,0 9.9962,0 l -0.3774,7.167" fill="#263238" id="path300" style="stroke-width:0.826151" />
    <path d="m 335.50456,612.96321 c 0,0 -1.8859,23.953 -3.395,30.366 -1.5091,6.412 -4.7152,28.668 -4.7152,31.686 0,3.017 2.075,7.356 3.2061,9.242 1.1316,1.886 4.1493,2.263 4.1493,3.961 0,1.697 -6.0353,1.697 -7.167,1.886 -1.1317,0.188 -8.8645,-1.886 -9.0535,-2.83 -0.1884,-0.943 -0.1884,-4.903 -0.1884,-4.903 0,0 -0.1884,-1.886 0,-3.206 0.1884,-1.32 2.4518,-5.281 2.4518,-5.281 0,0 -2.075,-18.484 -2.6408,-21.502 -0.5659,-3.017 -0.3774,-9.242 -0.1884,-12.071 0.1884,-2.829 1.8859,-8.488 1.8859,-8.488 l -3.7719,-29.988 0.3774,-9.619 c 0,0 5.281,0.566 11.1279,0.566 5.8469,0 9.9962,0 9.9962,0 l -0.3774,7.167" stroke="#263238" stroke-miterlimit="10" stroke-linecap="round" stroke-linejoin="round" id="path302" style="stroke-width:0.826151" />
    <path d="m 318.53036,687.27521 c -0.1884,-0.943 -0.1884,-4.903 -0.1884,-4.903 0,0 -0.1884,-1.886 0,-3.206 0.1884,-1.321 2.4518,-5.281 2.4518,-5.281 0,0 -0.3093,-2.755 -0.7211,-6.308 3.6641,1.457 6.796,0.199 8.1932,-0.564 -0.5208,3.918 -0.8704,7.008 -0.8704,8.003 0,3.018 2.075,7.356 3.2061,9.242 1.1316,1.886 4.1493,2.263 4.1493,3.961 0,1.698 -6.0353,1.698 -7.167,1.886 -1.1323,0.188 -8.8651,-1.887 -9.0535,-2.83 z" fill="#ffffff" stroke="#263238" stroke-miterlimit="10" stroke-linecap="round" stroke-linejoin="round" id="path304" style="stroke-width:0.826151" />
    <path d="m 318.52906,687.27521 c -0.1884,-0.943 -0.1884,-4.903 -0.1884,-4.903 0,0 -0.1884,-1.886 0,-3.207 0.109,-0.761 0.9083,-2.402 1.5654,-3.653 0.045,0.088 0.0859,0.167 0.1321,0.258 1.1317,2.264 5.9772,8.156 8.2406,9.476 2.2634,1.321 2.8873,-0.234 2.8873,-0.234 h 0.0587 c 1.3491,1.272 3.3921,1.77 3.5248,3.207 0.2494,2.691 -7.1338,2.513 -8.2074,2.162 -1.0908,-0.358 -7.8247,-2.163 -8.0131,-3.106 z" fill="#ff5f5f" stroke="#263238" stroke-miterlimit="10" stroke-linecap="round" stroke-linejoin="round" id="path306" style="stroke-width:0.826151" />
    <path d="m 318.52906,687.27521 c -0.1221,-0.609 -0.1647,-2.473 -0.1801,-3.72 5.2229,4.094 10.6396,4.869 12.9498,5.013 2.1769,0.136 3.0639,-0.828 3.2191,-1.021 0.125,0.202 0.2086,0.421 0.2317,0.671 0.2494,2.69 -7.1338,2.513 -8.2074,2.162 -1.0908,-0.357 -7.8247,-2.162 -8.0131,-3.105 z" fill="#ffffff" stroke="#263238" stroke-miterlimit="10" stroke-linecap="round" stroke-linejoin="round" id="path308" style="stroke-width:0.826151" />
    <path d="m 333.42956,538.46221 c 0,0 7.356,14.335 9.0529,18.295 1.6975,3.961 0.9433,10.374 0.9433,12.637 0,2.263 4.1493,22.633 4.1493,22.633 0,0 -3.7725,3.961 -13.7687,3.584 -9.9962,-0.378 -16.0315,-2.83 -16.0315,-2.83 0,0 2.2634,-18.672 2.2634,-22.633 0,-3.961 -4.9036,-20.935 -4.3383,-25.462 0.5658,-4.527 7.356,-4.149 9.0535,-4.527 1.6975,-0.376 8.6761,-1.697 8.6761,-1.697 z" fill="#ffffff" stroke="#263238" stroke-miterlimit="10" stroke-linecap="round" stroke-linejoin="round" id="path310" style="stroke-width:0.826151" />
    <path d="m 341.87246,511.70421 c 0,0 2.1111,7.239 1.3575,8.144 -0.7543,0.904 -1.508,3.016 -1.508,3.016 0,0 2.2622,4.374 1.659,4.977 -0.6031,0.603 -1.9606,1.056 -1.9606,1.056 0,0 -1.3574,6.485 -2.5637,6.786 -1.2064,0.302 -8.2951,-1.659 -8.2951,-1.659 0,0 -4.2228,-3.77 -2.5638,-10.557 1.659,-6.786 8.2951,-11.613 9.5014,-12.216 1.2058,-0.603 4.3733,0.453 4.3733,0.453 z" fill="#ffffff" stroke="#263238" stroke-miterlimit="10" stroke-linecap="round" stroke-linejoin="round" id="path312" style="stroke-width:0.826151" />
    <path d="m 338.10146,522.56321 v 1.659 c 0,0 -1.8688,0.114 -2.7736,-0.489" stroke="#263238" stroke-miterlimit="10" stroke-linecap="round" stroke-linejoin="round" id="path314" style="stroke-width:0.826151" />
    <path d="m 338.73226,521.79821 c 0,0 -1.6021,-0.935 -3.2706,0.066" stroke="#263238" stroke-miterlimit="10" stroke-linecap="round" stroke-linejoin="round" id="path316" style="stroke-width:0.826151" />
    <path d="m 340.40166,521.79721 c 0,0 -0.6678,-1.401 -3.2706,-1.401 -2.6035,0 -4.0718,0.801 -4.272,1.268 -0.2003,0.468 0.0669,0.801 0.0669,0.801 0,0 0,2.737 0.7342,3.471 0.7341,0.734 3.4045,1.469 4.7394,0.868 1.3349,-0.601 2.0691,-3.204 2.0691,-3.805 0,-0.601 -0.067,-1.202 -0.067,-1.202 z" stroke="#263238" stroke-miterlimit="10" stroke-linecap="round" stroke-linejoin="round" id="path318" style="stroke-width:0.826151" />
    <path d="m 332.85826,521.66421 h -1.0683" stroke="#263238" stroke-miterlimit="10" stroke-linecap="round" stroke-linejoin="round" id="path320" style="stroke-width:0.826151" />
    <path d="m 340.40166,521.79821 c 0,0 1.1346,-0.935 1.6021,0.2" stroke="#263238" stroke-miterlimit="10" stroke-linecap="round" stroke-linejoin="round" id="path322" style="stroke-width:0.826151" />
    <path d="m 342.46996,521.79821 c 0,0 0.9344,-0.268 2.0691,-0.268 1.1346,0 1.4688,0.468 1.4019,0.668 -0.067,0.2 -0.4006,1.202 -0.4006,1.936 0,0.734 -0.0669,1.869 -0.7341,2.203 -0.6678,0.333 -1.4688,0.4 -1.4688,0.4" stroke="#263238" stroke-miterlimit="10" stroke-linecap="round" stroke-linejoin="round" id="path324" style="stroke-width:0.826151" />
    <path d="m 327.20646,539.59421 c 0,0 5.0926,12.825 6.4127,19.992 1.3201,7.167 0.7543,44.323 0.7543,44.323 0,0 -4.5268,2.452 -10.9395,2.075 -6.4127,-0.377 -13.01381,-4.527 -13.01381,-4.527 0,0 1.50912,-10.939 3.96091,-18.672 2.4518,-7.733 3.3951,-11.316 3.3951,-11.316 0,0 -4.90362,-25.085 -4.5268,-27.726 0.3768,-2.64 13.9571,-4.149 13.9571,-4.149 z" fill="#ff5f5f" stroke="#263238" stroke-miterlimit="10" stroke-linecap="round" stroke-linejoin="round" id="path326" style="stroke-width:0.826151" />
    <path d="m 336.89306,504.61521 c 0,0 7.3904,2.112 7.3904,3.318 0,1.207 0.3016,2.866 -4.6755,6.335 -4.977,3.468 -8.5967,6.636 -8.8983,10.859 -0.3015,4.222 3.9212,15.383 4.826,19.002 0.9048,3.62 0.4527,8.899 -2.4133,9.653 -2.8653,0.754 -1.9606,0.302 -1.659,-1.357 0.3016,-1.659 -1.3574,-8.597 -6.3345,-10.859 -4.9771,-2.263 -10.3706,-5.888 -11.462,-12.669 -1.13944,-7.078 -0.68142,-17.315 6.636,-22.924 7.4028,-5.675 16.5902,-1.358 16.5902,-1.358 z" fill="#263238" stroke="#263238" stroke-miterlimit="10" stroke-linecap="round" stroke-linejoin="round" id="path328" style="stroke-width:0.826151" />
    <path d="m 323.24416,553.55121 1.8859,17.352 1.1317,0.377 v 0.944 l 1.1317,0.566 0.5658,0.754 26.2167,-2.452 c 0,0 6.0353,-0.754 7.167,-0.754 1.1317,0 5.4694,-0.566 5.4694,-0.566 0,0 -0.5658,1.697 -1.5091,1.886 -0.9433,0.188 -5.8469,1.886 -5.8469,1.886 0,0 -3.206,1.697 -5.281,1.697 -2.0744,0 -5.281,0.189 -5.281,0.189 0,0 -13.7687,3.772 -18.1064,4.527 -4.3384,0.754 -7.9219,2.451 -9.4304,1.886 -1.5091,-0.566 -3.3951,-2.075 -3.9609,-4.15 -0.5659,-2.075 -3.0176,-14.9 -3.0176,-14.9 0,0 -3.01767,-13.014 -3.01767,-16.221 0,-3.206 4.33777,-4.904 8.29867,-2.829" fill="#ff5f5f" id="path330" style="stroke-width:0.826151" />
    <path d="m 323.24416,553.55121 1.8859,17.352 1.1317,0.377 v 0.944 l 1.1317,0.566 0.5658,0.754 26.2167,-2.452 c 0,0 6.0353,-0.754 7.167,-0.754 1.1317,0 5.4694,-0.566 5.4694,-0.566 0,0 -0.5658,1.697 -1.5091,1.886 -0.9433,0.188 -5.8469,1.886 -5.8469,1.886 0,0 -3.206,1.697 -5.281,1.697 -2.0744,0 -5.281,0.189 -5.281,0.189 0,0 -13.7687,3.772 -18.1064,4.527 -4.3384,0.754 -7.9219,2.451 -9.4304,1.886 -1.5091,-0.566 -3.3951,-2.075 -3.9609,-4.15 -0.5659,-2.075 -3.0176,-14.9 -3.0176,-14.9 0,0 -3.01767,-13.014 -3.01767,-16.221 0,-3.206 4.33777,-4.904 8.29867,-2.829" stroke="#263238" stroke-miterlimit="10" stroke-linecap="round" stroke-linejoin="round" id="path332" style="stroke-width:0.826151" />
    <path d="m 327.35436,580.74221 2.0098,-7.33 24.8118,-2.32 c 0,0 6.0353,-0.754 7.167,-0.754 1.1317,0 5.4694,-0.566 5.4694,-0.566 0,0 -0.5658,1.698 -1.5091,1.886 -0.9433,0.188 -5.8469,1.886 -5.8469,1.886 0,0 -3.206,1.697 -5.281,1.697 -2.0744,0 -5.281,0.189 -5.281,0.189 0,0 -13.7687,3.772 -18.1064,4.527 -1.2141,0.211 -2.3659,0.496 -3.4336,0.785 z" fill="#ffffff" stroke="#263238" stroke-miterlimit="10" stroke-linecap="round" stroke-linejoin="round" id="path334" style="stroke-width:0.826151" />
    <path d="m 324.58676,578.52321 -0.5878,0.868" stroke="#263238" stroke-miterlimit="10" stroke-linecap="round" stroke-linejoin="round" id="path336" style="stroke-width:0.826151" />
    <path d="m 327.95986,573.54421 -2.6545,3.918" stroke="#263238" stroke-miterlimit="10" stroke-linecap="round" stroke-linejoin="round" id="path338" style="stroke-width:0.826151" />
    <path d="m 326.26156,572.22321 -3.7725,2.641" stroke="#263238" stroke-miterlimit="10" stroke-linecap="round" stroke-linejoin="round" id="path340" style="stroke-width:0.826151" />
    <path d="m 365.66296,570.05021 c 0,0 -0.2619,0.96 -1.2212,1.047 -0.9598,0.087 -3.7517,1.658 -4.013,1.658" stroke="#263238" stroke-miterlimit="10" stroke-linecap="round" stroke-linejoin="round" id="path342" style="stroke-width:0.826151" />
    <path d="m 362.52136,570.31221 c 0,0 -0.8728,0.785 -1.6579,0.96 -0.785,0.174 -3.315,1.309 -3.315,1.309" stroke="#263238" stroke-miterlimit="10" stroke-linecap="round" stroke-linejoin="round" id="path344" style="stroke-width:0.826151" />
    <path d="m 349.26046,571.88221 c 0,0 3.8993,-1.319 4.218,-1.227 0.3188,0.093 1.4529,0.093 2.7617,-0.082 1.3089,-0.174 2.0939,1.309 1.047,1.745 -1.047,0.436 -1.9192,0.262 -2.2681,0.262 -0.349,0 -1.396,0.349 -1.6579,0.349" fill="#ffffff" id="path346" style="stroke-width:0.826151" />
    <path d="m 349.26046,571.88221 c 0,0 3.8993,-1.319 4.218,-1.227 0.3188,0.093 1.4529,0.093 2.7617,-0.082 1.3089,-0.174 2.0939,1.309 1.047,1.745 -1.047,0.436 -1.9192,0.262 -2.2681,0.262 -0.349,0 -1.396,0.349 -1.6579,0.349" stroke="#263238" stroke-miterlimit="10" stroke-linecap="round" stroke-linejoin="round" id="path348" style="stroke-width:0.826151" />
    <path d="m 379.88876,567.83821 -36.7557,4.135 0.115,-1.264 36.87,-3.905 z" fill="#ffffff" stroke="#263238" stroke-miterlimit="10" stroke-linecap="round" stroke-linejoin="round" id="path350" style="stroke-width:0.826151" />
    <path d="m 380.11806,566.80421 7.2363,-19.067 -20.6749,1.723 -6.7766,19.642 z" fill="#ffffff" stroke="#263238" stroke-miterlimit="10" stroke-linecap="round" stroke-linejoin="round" id="path352" style="stroke-width:0.826151" />
    <path d="m 359.90256,569.10221 v 0.985 l -16.7697,1.886 0.1149,-1.263 16.672,-1.766 z" fill="#263238" stroke="#263238" stroke-miterlimit="10" stroke-linecap="round" stroke-linejoin="round" id="path354" style="stroke-width:0.826151" />
  </g>
</svg>
