<?xml version="1.0" encoding="UTF-8" standalone="no"?>
<svg width="60" height="50" viewBox="0 0 60 50" fill="none" version="1.1" id="svg12" sodipodi:docname="favicon.svg" inkscape:version="1.2.2 (732a01da63, 2022-12-09)" xmlns:inkscape="http://www.inkscape.org/namespaces/inkscape" xmlns:sodipodi="http://sodipodi.sourceforge.net/DTD/sodipodi-0.dtd" xmlns="http://www.w3.org/2000/svg" xmlns:svg="http://www.w3.org/2000/svg">
  <defs id="defs16" />
  <sodipodi:namedview id="namedview14" pagecolor="#505050" bordercolor="#eeeeee" borderopacity="1" inkscape:showpageshadow="0" inkscape:pageopacity="0" inkscape:pagecheckerboard="0" inkscape:deskcolor="#505050" showgrid="false" inkscape:zoom="5.25" inkscape:cx="-69.142857" inkscape:cy="34.190476" inkscape:window-width="1920" inkscape:window-height="1001" inkscape:window-x="-9" inkscape:window-y="-9" inkscape:window-maximized="1" inkscape:current-layer="svg12" />
  <g id="g2131" transform="matrix(1.0058359,0,0,1,4.999999,5.0000001)" style="stroke-width:0.997095">
    <g id="g2138" style="stroke-width:0.997095">
      <path d="M 9.49625,30 H 3 V 29.5188 L 4.92481,28.5263 12.6241,10 h 1.3534 l 7.5789,18.4361 2.015,1.0827 V 30 h -7.4586 v -0.4812 l 2.6466,-1.0226 -2.2556,-5.5639 H 9.19549 l -2.22555,5.5639 2.52631,1.0226 z M 12.8647,13.8797 9.88723,21.2782 h 5.95487 z" fill="#666666" id="path2" style="fill:#ffffff;fill-opacity:1;stroke-width:0.997095" />
      <path d="M 29.5294,28.7647 C 30.9804,29.5882 32.7059,30 34.7059,30 c 1.0784,0 2,-0.0588 2.7648,-0.1765 0.7647,-0.1176 1.4451,-0.2843 2.0412,-0.5 0.5999,-0.2157 1.1842,-0.4706 1.7529,-0.7647 l 0.3235,-4.6765 h -0.5 l -1.7647,3.1471 C 38.755,27.4019 38.102,27.7392 37.3648,28.0412 36.6314,28.347 35.7256,28.5 34.6471,28.5 c -1.2745,0 -2.4372,-0.349 -3.4882,-1.0471 -1.0471,-0.6941 -1.8804,-1.7019 -2.5,-3.0235 -0.6157,-1.3255 -0.9235,-2.9196 -0.9235,-4.7824 0,-1.5882 0.3176,-2.996 0.9529,-4.2235 0.6392,-1.2235 1.5118,-2.1882 2.6177,-2.8941 1.1098,-0.7059 2.3705,-1.0588 3.7823,-1.0588 0.7059,0 1.3372,0.1176 1.8941,0.3529 0.5608,0.2353 1.2137,0.6177 1.9588,1.1471 l 1.7942,3.5882 h 0.5294 l -0.1472,-5.147 c -0.549,-0.2746 -1.0941,-0.5157 -1.6353,-0.7236 -0.5372,-0.2039 -1.149,-0.3706 -1.8352,-0.5 C 36.9608,10.0627 36.1274,10 35.147,10 c -1.3725,0 -2.6725,0.2843 -3.8999,0.8529 -1.2236,0.5687 -2.302,1.3432 -3.2353,2.3236 -0.9294,0.9804 -1.6647,2.1019 -2.2059,3.3647 C 25.2686,17.8078 25,19.1372 25,20.5294 c 0,1.8235 0.3922,3.4451 1.1765,4.8647 0.7843,1.4235 1.9019,2.5471 3.3529,3.3706 z" fill="#666666" id="path4" style="fill:#ffffff;fill-opacity:1;stroke-width:0.997095" />
      <path d="M 3.33369,18.2757 17.1272,9.06477 C 17.7281,8.66353 17.8904,7.85058 17.4885,7.24904 17.0873,6.64815 16.275,6.48515 15.6727,6.8877 L 1.87925,16.0987 C 0.702344,16.8841 0,18.1985 0,19.6136 c 0,1.4152 0.702344,2.7295 1.87925,3.515 l 13.79345,9.211 c 0.2231,0.1492 0.4759,0.2205 0.726,0.2205 0.4228,0 0.8378,-0.2042 1.0898,-0.5819 0.4019,-0.6015 0.2397,-1.4145 -0.3613,-1.8157 L 3.33369,20.9509 C 2.87942,20.6472 2.61824,20.1602 2.61824,19.613 c 0,-0.5466 0.26121,-1.0336 0.71545,-1.3373 z" fill="#c9c9c9" fill-opacity="0.2" id="path6" style="stroke-width:0.994198" />
      <path d="M 47.8307,16.0984 34.0365,6.88742 C 33.4356,6.48552 32.622,6.64785 32.2208,7.24873 31.8189,7.85027 31.9811,8.66322 32.5821,9.06447 l 13.7935,9.21093 c 0.4543,0.3037 0.7155,0.7907 0.7155,1.3373 0,0.5465 -0.2605,1.0342 -0.7155,1.3379 l -13.7928,9.2116 c -0.6009,0.4012 -0.7632,1.2142 -0.3613,1.8157 0.252,0.3777 0.6669,0.582 1.0898,0.582 0.2495,0 0.5027,-0.0714 0.7259,-0.2206 l 13.7935,-9.211 c 1.1769,-0.7854 1.8792,-2.0998 1.8792,-3.515 0,-1.4151 -0.7023,-2.7295 -1.8792,-3.5149 z" fill="#c9c9c9" fill-opacity="0.2" id="path8" style="stroke-width:0.994198" />
      <path d="M 29.6378,0.0621205 C 28.9492,-0.157159 28.2129,0.222491 27.9929,0.911092 L 16.0623,38.2929 c -0.2198,0.6886 0.1604,1.425 0.8489,1.6449 0.1321,0.0419 0.2665,0.0622 0.398,0.0622 0.5544,0 1.0689,-0.3548 1.247,-0.9118 L 30.4868,1.70703 c 0.2201,-0.6886 -0.1604,-1.424978 -0.849,-1.6449095 z" fill="#c9c9c9" fill-opacity="0.2" id="path10" style="stroke-width:0.994198" />
    </g>
  </g>
</svg>
