<svg width="140" height="32" viewBox="0 0 140 32" fill="none" xmlns="http://www.w3.org/2000/svg">
<mask id="mask0_342_690" style="mask-type:luminance" maskUnits="userSpaceOnUse" x="0" y="9" width="105" height="14">
<path d="M104.262 9.0639H0.539612V22.936H104.262V9.0639Z" fill="white"/>
</mask>
<g mask="url(#mask0_342_690)">
<mask id="mask1_342_690" style="mask-type:luminance" maskUnits="userSpaceOnUse" x="0" y="9" width="105" height="14">
<path d="M104.262 9.0639H0.539612V22.936H104.262V9.0639Z" fill="white"/>
</mask>
<g mask="url(#mask1_342_690)">
<mask id="mask2_342_690" style="mask-type:luminance" maskUnits="userSpaceOnUse" x="0" y="9" width="105" height="14">
<path d="M104.262 9.0639H0.539612V22.936H104.262V9.0639Z" fill="white"/>
</mask>
<g mask="url(#mask2_342_690)">
<mask id="mask3_342_690" style="mask-type:luminance" maskUnits="userSpaceOnUse" x="0" y="9" width="105" height="14">
<path d="M104.262 9.0639H0.539612V22.936H104.262V9.0639Z" fill="white"/>
</mask>
<g mask="url(#mask3_342_690)">
<path d="M0.543335 22.7485L5.75474 9.4388H7.74182L12.9157 22.7485H10.7037L9.29775 19.1305H4.16132L2.77412 22.7485H0.543335ZM4.53625 17.5746H8.88533L6.74828 11.7446L4.53625 17.5746ZM19.8143 12.8693V14.7252C19.0145 14.7377 18.3046 14.9189 17.6847 15.2688C17.0674 15.6187 16.6275 16.1124 16.365 16.7498V22.7485H14.3029V12.9443H16.215V15.1376C16.5525 14.4627 16.9961 13.9216 17.546 13.5142C18.0959 13.1093 18.677 12.8881 19.2894 12.8506C19.4144 12.8506 19.5168 12.8506 19.5968 12.8506C19.6793 12.8506 19.7518 12.8568 19.8143 12.8693ZM26.8253 12.8693V14.7252C26.0255 14.7377 25.3156 14.9189 24.6958 15.2688C24.0784 15.6187 23.6385 16.1124 23.376 16.7498V22.7485H21.314V12.9443H23.2261V15.1376C23.5635 14.4627 24.0072 13.9216 24.557 13.5142C25.1069 13.1093 25.6881 12.8881 26.3004 12.8506C26.4254 12.8506 26.5279 12.8506 26.6079 12.8506C26.6903 12.8506 26.7628 12.8568 26.8253 12.8693ZM32.5579 22.936C31.783 22.936 31.0894 22.801 30.477 22.531C29.8647 22.2636 29.3373 21.8924 28.8949 21.4175C28.45 20.9426 28.1088 20.4015 27.8713 19.7941C27.6339 19.1892 27.5152 18.5431 27.5152 17.8558C27.5152 17.1684 27.6339 16.5186 27.8713 15.9062C28.1088 15.2938 28.45 14.7527 28.8949 14.2828C29.3373 13.8154 29.8684 13.4467 30.4883 13.1768C31.1057 12.9093 31.7955 12.7756 32.5579 12.7756C33.3202 12.7756 34.0113 12.9093 34.6312 13.1768C35.2485 13.4467 35.7797 13.8154 36.2246 14.2828C36.667 14.7527 37.0069 15.2938 37.2444 15.9062C37.4818 16.5186 37.6006 17.1684 37.6006 17.8558C37.6006 18.5431 37.4818 19.1892 37.2444 19.7941C37.0069 20.4015 36.667 20.9426 36.2246 21.4175C35.7797 21.8924 35.2485 22.2636 34.6312 22.531C34.0113 22.801 33.3202 22.936 32.5579 22.936ZM29.6335 17.8745C29.6335 18.4994 29.7647 19.0618 30.0271 19.5617C30.2896 20.0616 30.6395 20.4552 31.0769 20.7427C31.5143 21.0301 32.008 21.1738 32.5579 21.1738C33.0952 21.1738 33.5864 21.0264 34.0313 20.7314C34.4737 20.439 34.8261 20.0391 35.0886 19.5317C35.351 19.0268 35.4822 18.4681 35.4822 17.8558C35.4822 17.2309 35.351 16.6685 35.0886 16.1686C34.8261 15.6687 34.4737 15.2713 34.0313 14.9764C33.5864 14.6839 33.0952 14.5377 32.5579 14.5377C32.008 14.5377 31.5143 14.6877 31.0769 14.9876C30.6395 15.2876 30.2896 15.6837 30.0271 16.1761C29.7647 16.671 29.6335 17.2372 29.6335 17.8745ZM48.1921 20.7427L51.3227 12.9443H53.291L49.1669 22.7485H47.4047L45.6426 18.3244L43.8805 22.7485H42.1184L37.9755 12.9443H39.9438L43.0931 20.7427L44.4804 17.1247L42.7932 12.9631H44.5366L45.6426 16.0187L46.7299 12.9631H48.4733L46.8049 17.1247L48.1921 20.7427ZM58.1837 15.9999C58.1837 15.1876 58.3275 14.3903 58.6149 13.6079C58.9023 12.8281 59.3235 12.1157 59.8784 11.4709C60.4358 10.8285 61.1131 10.3161 61.9105 9.9337C62.7128 9.5538 63.6188 9.3638 64.6286 9.3638C65.8309 9.3638 66.8694 9.6362 67.7442 10.1811C68.619 10.7235 69.2689 11.4196 69.6938 12.2694L68.0442 13.3755C67.7942 12.8381 67.478 12.4132 67.0956 12.1007C66.7157 11.7883 66.3033 11.5696 65.8584 11.4446C65.416 11.3196 64.9823 11.2572 64.5574 11.2572C63.855 11.2572 63.2427 11.3971 62.7203 11.6771C62.1954 11.9595 61.7542 12.3319 61.3968 12.7943C61.0419 13.2567 60.7732 13.7754 60.5907 14.3503C60.4083 14.9251 60.317 15.5 60.317 16.0749C60.317 16.7123 60.4245 17.3271 60.6395 17.9195C60.8519 18.5144 61.1481 19.0393 61.528 19.4942C61.908 19.9516 62.3616 20.3115 62.889 20.574C63.4139 20.8364 63.9888 20.9676 64.6136 20.9676C65.0385 20.9676 65.4822 20.8926 65.9446 20.7427C66.407 20.5927 66.8344 20.3578 67.2268 20.0378C67.6218 19.7204 67.9317 19.2992 68.1566 18.7743L69.9 19.7679C69.6251 20.4302 69.1964 20.9926 68.614 21.455C68.0342 21.9174 67.3843 22.2674 66.6645 22.5048C65.9471 22.7423 65.2373 22.861 64.5349 22.861C63.5976 22.861 62.7428 22.6635 61.9704 22.2686C61.1956 21.8762 60.527 21.3513 59.9646 20.6939C59.4022 20.0391 58.9648 19.3017 58.6524 18.4819C58.3399 17.6646 58.1837 16.8372 58.1837 15.9999ZM75.97 22.936C75.1952 22.936 74.5016 22.801 73.8892 22.531C73.2768 22.2636 72.7494 21.8924 72.307 21.4175C71.8621 20.9426 71.5209 20.4015 71.2835 19.7941C71.046 19.1892 70.9273 18.5431 70.9273 17.8558C70.9273 17.1684 71.046 16.5186 71.2835 15.9062C71.5209 15.2938 71.8621 14.7527 72.307 14.2828C72.7494 13.8154 73.2806 13.4467 73.9004 13.1768C74.5178 12.9093 75.2077 12.7756 75.97 12.7756C76.7323 12.7756 77.4234 12.9093 78.0433 13.1768C78.6607 13.4467 79.1918 13.8154 79.6367 14.2828C80.0791 14.7527 80.4191 15.2938 80.6565 15.9062C80.894 16.5186 81.0127 17.1684 81.0127 17.8558C81.0127 18.5431 80.894 19.1892 80.6565 19.7941C80.4191 20.4015 80.0791 20.9426 79.6367 21.4175C79.1918 21.8924 78.6607 22.2636 78.0433 22.531C77.4234 22.801 76.7323 22.936 75.97 22.936ZM73.0456 17.8745C73.0456 18.4994 73.1768 19.0618 73.4393 19.5617C73.7017 20.0616 74.0517 20.4552 74.4891 20.7427C74.9265 21.0301 75.4201 21.1738 75.97 21.1738C76.5074 21.1738 76.9985 21.0264 77.4434 20.7314C77.8859 20.439 78.2383 20.0391 78.5007 19.5317C78.7632 19.0268 78.8944 18.4681 78.8944 17.8558C78.8944 17.2309 78.7632 16.6685 78.5007 16.1686C78.2383 15.6687 77.8859 15.2713 77.4434 14.9764C76.9985 14.6839 76.5074 14.5377 75.97 14.5377C75.4201 14.5377 74.9265 14.6877 74.4891 14.9876C74.0517 15.2876 73.7017 15.6837 73.4393 16.1761C73.1768 16.671 73.0456 17.2372 73.0456 17.8745ZM82.2312 17.8558C82.2312 16.9185 82.4224 16.0649 82.8048 15.2951C83.1847 14.5277 83.7059 13.9154 84.3682 13.4579C85.0306 13.003 85.7929 12.7756 86.6553 12.7756C87.4051 12.7756 88.0837 12.9693 88.6911 13.3567C89.296 13.7441 89.7671 14.2253 90.1045 14.8002V9.0639H92.1666V20.424C92.1666 20.6614 92.2103 20.8302 92.2978 20.9301C92.3853 21.0301 92.529 21.0863 92.729 21.0988V22.7485C92.3416 22.811 92.0416 22.8422 91.8292 22.8422C91.4418 22.8422 91.1143 22.7298 90.8469 22.5048C90.5769 22.2798 90.4357 22.0112 90.4232 21.6987L90.4045 20.9676C90.0296 21.5925 89.5234 22.0761 88.886 22.4186C88.2487 22.7635 87.5863 22.936 86.899 22.936C86.2241 22.936 85.603 22.8047 85.0356 22.5423C84.4657 22.2798 83.9721 21.9112 83.5547 21.4363C83.1347 20.9614 82.8098 20.4177 82.5799 19.8054C82.3474 19.193 82.2312 18.5431 82.2312 17.8558ZM90.1045 19.2242V16.656C89.9671 16.2561 89.7459 15.8962 89.4409 15.5763C89.1335 15.2588 88.7898 15.0064 88.4099 14.8189C88.0275 14.6315 87.6488 14.5377 87.2739 14.5377C86.8365 14.5377 86.4403 14.6315 86.0854 14.8189C85.728 15.0064 85.4218 15.2563 85.1668 15.5688C84.9094 15.8812 84.7119 16.2374 84.5744 16.6373C84.437 17.0372 84.3682 17.4559 84.3682 17.8933C84.3682 18.3432 84.4432 18.7643 84.5932 19.1568C84.7432 19.5517 84.9594 19.9016 85.2418 20.2065C85.5217 20.514 85.8467 20.7514 86.2166 20.9189C86.584 21.0888 86.9864 21.1738 87.4239 21.1738C87.6988 21.1738 87.9775 21.1238 88.2599 21.0239C88.5399 20.9239 88.8086 20.7864 89.066 20.6114C89.321 20.4365 89.5397 20.2303 89.7221 19.9928C89.9021 19.7554 90.0296 19.4992 90.1045 19.2242ZM99.2339 22.936C98.4715 22.936 97.7804 22.801 97.1606 22.531C96.5432 22.2636 96.0096 21.8949 95.5596 21.425C95.1097 20.9576 94.7623 20.4202 94.5174 19.8129C94.2749 19.208 94.1537 18.5619 94.1537 17.8745C94.1537 16.9497 94.3661 16.1024 94.7911 15.3326C95.216 14.5652 95.8096 13.9466 96.5719 13.4767C97.3343 13.0093 98.2278 12.7756 99.2526 12.7756C100.277 12.7756 101.161 13.0093 101.904 13.4767C102.649 13.9466 103.227 14.5627 103.64 15.3251C104.052 16.0874 104.258 16.906 104.258 17.7808C104.258 17.9308 104.252 18.0707 104.239 18.2007C104.227 18.3332 104.214 18.4432 104.202 18.5306H96.347C96.3845 19.1055 96.5432 19.6079 96.8231 20.0378C97.1056 20.4702 97.4655 20.8077 97.9029 21.0501C98.3403 21.2951 98.809 21.4175 99.3089 21.4175C99.8587 21.4175 100.38 21.2801 100.873 21.0051C101.368 20.7302 101.703 20.3677 101.877 19.9178L103.64 20.424C103.427 20.8989 103.105 21.3263 102.672 21.7062C102.242 22.0886 101.734 22.3886 101.146 22.606C100.559 22.826 99.9212 22.936 99.2339 22.936ZM96.2907 17.1622H102.215C102.177 16.5998 102.017 16.1024 101.735 15.67C101.455 15.2401 101.099 14.9026 100.666 14.6577C100.236 14.4152 99.7588 14.294 99.2339 14.294C98.7215 14.294 98.2491 14.4152 97.8167 14.6577C97.3868 14.9026 97.0343 15.2401 96.7594 15.67C96.4845 16.1024 96.3282 16.5998 96.2907 17.1622Z" fill="#F0EDEA"/>
</g>
</g>
</g>
</g>
<mask id="mask4_342_690" style="mask-type:luminance" maskUnits="userSpaceOnUse" x="109" y="0" width="31" height="32">
<path d="M139.457 0.900269H109.257V31.0997H139.457V0.900269Z" fill="white"/>
</mask>
<g mask="url(#mask4_342_690)">
<mask id="mask5_342_690" style="mask-type:luminance" maskUnits="userSpaceOnUse" x="109" y="0" width="31" height="32">
<path d="M139.457 0.900269H109.257V31.0997H139.457V0.900269Z" fill="white"/>
</mask>
<g mask="url(#mask5_342_690)">
<mask id="mask6_342_690" style="mask-type:luminance" maskUnits="userSpaceOnUse" x="117" y="10" width="15" height="12">
<path d="M131.475 10.9941H117.239V21.006H131.475V10.9941Z" fill="white"/>
</mask>
<g mask="url(#mask6_342_690)">
<mask id="mask7_342_690" style="mask-type:luminance" maskUnits="userSpaceOnUse" x="117" y="10" width="15" height="12">
<path d="M131.475 10.9941H117.239V21.006H131.475V10.9941Z" fill="white"/>
</mask>
<g mask="url(#mask7_342_690)">
<path d="M118.074 15.6075L121.526 13.3021C121.676 13.2016 121.717 12.9981 121.616 12.8476C121.516 12.6972 121.313 12.6564 121.162 12.7571L117.71 15.0626C117.415 15.2592 117.239 15.5882 117.239 15.9424C117.239 16.2966 117.415 16.6256 117.71 16.8222L121.162 19.1276C121.218 19.165 121.281 19.1829 121.343 19.1829C121.449 19.1829 121.553 19.1317 121.616 19.0372C121.717 18.8867 121.676 18.6832 121.526 18.5827L118.074 16.2771C117.96 16.2011 117.894 16.0792 117.894 15.9422C117.894 15.8054 117.96 15.6836 118.074 15.6075Z" fill="#898989"/>
<path d="M131.005 15.0626L127.552 12.7571C127.402 12.6565 127.198 12.6972 127.097 12.8475C126.997 12.9981 127.038 13.2016 127.188 13.302L130.64 15.6075C130.754 15.6835 130.82 15.8054 130.82 15.9422C130.82 16.079 130.755 16.201 130.64 16.277L127.188 18.5827C127.038 18.6831 126.998 18.8866 127.098 19.0372C127.161 19.1317 127.265 19.1828 127.371 19.1828C127.433 19.1828 127.496 19.165 127.552 19.1276L131.005 16.8221C131.299 16.6256 131.475 16.2965 131.475 15.9424C131.475 15.5881 131.299 15.2592 131.005 15.0626Z" fill="#898989"/>
<path d="M125.95 11.0097C125.777 10.9548 125.593 11.0498 125.538 11.2222L122.552 20.5787C122.497 20.751 122.592 20.9353 122.765 20.9904C122.798 21.0009 122.831 21.006 122.864 21.006C123.003 21.006 123.132 20.9172 123.176 20.7777L126.162 11.4214C126.217 11.249 126.122 11.0647 125.95 11.0097Z" fill="#898989"/>
</g>
</g>
<path d="M111.554 12.6624L109.558 10.9353L109.679 10.5903L112.315 10.5084L112.179 10.8927L111.463 10.9156L111.147 11.8102L111.692 12.2734L111.554 12.6624ZM110.899 11.6494L111.167 10.891L110.02 10.9046L110.899 11.6494Z" fill="#898989"/>
<path d="M112.345 6.91272L112.627 7.10539C112.546 7.22862 112.5 7.35546 112.49 7.48598C112.478 7.61679 112.508 7.73533 112.578 7.84147L113.493 8.46556L113.278 8.78134L111.781 7.76084L111.981 7.46913L112.315 7.69712C112.248 7.57497 112.212 7.45126 112.206 7.3258C112.202 7.19956 112.229 7.08758 112.286 6.98956C112.3 6.97013 112.31 6.95424 112.319 6.94191C112.327 6.92957 112.336 6.91983 112.345 6.91272Z" fill="#898989"/>
<path d="M114.735 4.41089L114.966 4.66289C114.859 4.76419 114.785 4.87733 114.746 5.00214C114.705 5.1268 114.706 5.24893 114.75 5.36839L115.499 6.18497L115.217 6.44312L113.993 5.10818L114.254 4.86944L114.527 5.16767C114.49 5.03355 114.483 4.90479 114.506 4.78155C114.531 4.65768 114.582 4.55448 114.661 4.47243C114.678 4.45649 114.693 4.44355 114.703 4.4333C114.714 4.4232 114.725 4.41562 114.735 4.41089Z" fill="#898989"/>
<path d="M118.331 4.29568C118.204 4.36243 118.079 4.39967 117.956 4.40756C117.832 4.41671 117.714 4.40156 117.602 4.36164C117.488 4.32235 117.385 4.26318 117.294 4.18412C117.204 4.10602 117.128 4.01055 117.069 3.89788C117.01 3.78616 116.974 3.66972 116.96 3.549C116.946 3.42813 116.955 3.31026 116.988 3.19507C117.019 3.08051 117.075 2.97479 117.153 2.87791C117.232 2.78102 117.333 2.69991 117.457 2.63459C117.582 2.56878 117.706 2.53139 117.83 2.52208C117.954 2.51229 118.072 2.52666 118.186 2.56515C118.298 2.60397 118.4 2.66346 118.492 2.7433C118.584 2.82331 118.658 2.91924 118.717 3.03096C118.777 3.14363 118.813 3.25961 118.826 3.37858C118.84 3.4985 118.831 3.61622 118.799 3.73173C118.767 3.84771 118.712 3.95422 118.634 4.0511C118.557 4.14846 118.456 4.23004 118.331 4.29568ZM117.418 3.71832C117.471 3.82056 117.541 3.90136 117.627 3.96037C117.713 4.02033 117.803 4.05458 117.9 4.06325C117.996 4.07319 118.089 4.05458 118.179 4.00723C118.267 3.96084 118.334 3.89473 118.381 3.80857C118.429 3.72289 118.453 3.62711 118.451 3.52123C118.45 3.41646 118.424 3.31373 118.371 3.21337C118.317 3.11112 118.248 3.03033 118.162 2.97131C118.077 2.9123 117.985 2.87774 117.886 2.8678C117.789 2.85739 117.696 2.87522 117.608 2.92161C117.518 2.96895 117.45 3.03585 117.405 3.12264C117.359 3.20974 117.336 3.30474 117.336 3.40762C117.335 3.5105 117.363 3.61417 117.418 3.71832Z" fill="#898989"/>
<path d="M122.581 2.57746L122.91 1.06107L123.269 1L122.821 2.91309L122.5 2.96737L122.043 2.21612L121.858 3.07625L121.538 3.13053L120.48 1.47307L120.838 1.41247L121.654 2.73479L121.793 2.03371L121.358 1.32758L121.676 1.27362L121.972 1.7967L122.075 1.20592L122.393 1.15196L122.218 1.96176L122.581 2.57746Z" fill="#898989"/>
<path d="M128.3 2.08106C128.351 1.93999 128.425 1.81029 128.525 1.6921C128.623 1.57391 128.741 1.47623 128.878 1.39891C129.015 1.3216 129.164 1.27442 129.327 1.25753C129.49 1.24065 129.66 1.26337 129.835 1.32601C130.043 1.40049 130.207 1.51221 130.325 1.66117C130.444 1.81029 130.514 1.97218 130.536 2.14702L130.18 2.23665C130.17 2.12745 130.142 2.03372 130.095 1.95545C130.047 1.87735 129.989 1.81391 129.92 1.76547C129.85 1.71561 129.779 1.67758 129.705 1.65123C129.583 1.60768 129.468 1.59427 129.358 1.61099C129.25 1.62708 129.15 1.66417 129.059 1.72255C128.969 1.78125 128.891 1.85494 128.823 1.94362C128.756 2.03199 128.704 2.12603 128.669 2.22576C128.629 2.33669 128.609 2.45061 128.61 2.56785C128.61 2.68399 128.629 2.7935 128.666 2.89654C128.704 2.99989 128.761 3.09063 128.836 3.16873C128.911 3.24653 129.003 3.30475 129.111 3.34357C129.185 3.36977 129.267 3.38428 129.357 3.38681C129.447 3.38933 129.536 3.37513 129.625 3.3442C129.712 3.31327 129.793 3.25931 129.865 3.18262L130.105 3.46286C130.017 3.56085 129.908 3.63217 129.779 3.67699C129.648 3.72133 129.513 3.74184 129.373 3.73853C129.233 3.73521 129.103 3.71202 128.982 3.66894C128.818 3.61071 128.682 3.52314 128.571 3.40653C128.46 3.28976 128.376 3.15705 128.32 3.00826C128.262 2.85946 128.232 2.70371 128.229 2.54118C128.224 2.37961 128.249 2.22623 128.3 2.08106Z" fill="#898989"/>
<path d="M132.285 5.49007C132.169 5.4047 132.081 5.30829 132.021 5.20099C131.959 5.09385 131.922 4.98086 131.909 4.86189C131.895 4.74228 131.903 4.62425 131.935 4.5078C131.967 4.39229 132.019 4.28326 132.096 4.18101C132.171 4.07954 132.26 3.99623 132.362 3.93122C132.465 3.86621 132.576 3.82344 132.693 3.80277C132.81 3.78147 132.929 3.78526 133.051 3.81382C133.172 3.84238 133.289 3.89855 133.402 3.98203C133.515 4.06613 133.603 4.16175 133.665 4.26874C133.728 4.37651 133.766 4.48965 133.781 4.60847C133.795 4.7265 133.785 4.84422 133.753 4.96162C133.721 5.07885 133.667 5.18821 133.592 5.28967C133.516 5.39207 133.427 5.47476 133.326 5.53819C133.224 5.60241 133.114 5.64549 132.996 5.66759C132.878 5.68904 132.758 5.68541 132.637 5.65686C132.516 5.62971 132.398 5.57417 132.285 5.49007ZM132.409 4.41675C132.34 4.50969 132.297 4.60736 132.281 4.71009C132.264 4.8136 132.273 4.91064 132.307 5.00122C132.34 5.09195 132.397 5.16769 132.479 5.22813C132.559 5.28746 132.648 5.31933 132.745 5.32391C132.844 5.3299 132.94 5.30955 133.035 5.26253C133.129 5.21645 133.21 5.14765 133.277 5.05644C133.346 4.9635 133.388 4.86583 133.405 4.76327C133.421 4.6607 133.412 4.56287 133.378 4.46993C133.345 4.37762 133.289 4.30187 133.209 4.24255C133.127 4.18195 133.038 4.15024 132.94 4.14724C132.841 4.14361 132.746 4.16396 132.653 4.2083C132.56 4.25281 132.479 4.32223 132.409 4.41675Z" fill="#898989"/>
<path d="M135.118 6.84781C135.257 6.74367 135.404 6.67755 135.559 6.64915C135.715 6.62012 135.864 6.62911 136.005 6.67582C136.145 6.72331 136.263 6.81073 136.358 6.93821C136.441 7.04868 136.488 7.17035 136.498 7.30338C136.509 7.43558 136.49 7.55869 136.442 7.67259L137.289 7.0364L137.518 7.34063L135.84 8.60061C135.805 8.62697 135.784 8.652 135.78 8.67571C135.775 8.69953 135.783 8.72697 135.804 8.7582L135.56 8.94142C135.507 8.89106 135.469 8.8502 135.445 8.81849C135.402 8.76121 135.382 8.70032 135.387 8.63575C135.39 8.57137 135.415 8.52089 135.459 8.4846L135.564 8.3997C135.431 8.41438 135.304 8.39356 135.182 8.33724C135.061 8.28171 134.961 8.20294 134.884 8.10119C134.81 8.00191 134.761 7.89559 134.737 7.78211C134.712 7.6685 134.712 7.55442 134.736 7.44003C134.76 7.32559 134.804 7.21734 134.869 7.11511C134.933 7.01336 135.016 6.92437 135.118 6.84781ZM135.789 8.16317L136.168 7.8779C136.212 7.81303 136.241 7.74017 136.254 7.65948C136.266 7.57885 136.266 7.50026 136.251 7.42421C136.237 7.34659 136.209 7.27986 136.168 7.22414C136.12 7.15994 136.061 7.11198 135.993 7.08009C135.926 7.04838 135.856 7.03117 135.781 7.02816C135.706 7.02437 135.632 7.03478 135.558 7.05939C135.484 7.08322 135.414 7.1192 135.35 7.16752C135.283 7.2177 135.229 7.27577 135.188 7.34153C135.146 7.40748 135.118 7.47806 135.103 7.55315C135.089 7.62921 135.091 7.70334 135.106 7.77609C135.123 7.8495 135.155 7.91827 135.203 7.98254C135.234 8.02351 135.272 8.05919 135.317 8.08934C135.364 8.1196 135.415 8.1441 135.469 8.16239C135.523 8.18068 135.577 8.19049 135.633 8.19157C135.688 8.19175 135.74 8.1823 135.789 8.16317Z" fill="#898989"/>
<path d="M136.753 11.5684C136.704 11.4368 136.684 11.3085 136.692 11.1837C136.698 11.0593 136.728 10.9434 136.781 10.8361C136.834 10.7279 136.905 10.6334 136.994 10.5529C137.083 10.4719 137.188 10.4095 137.308 10.3654C137.467 10.3067 137.627 10.2895 137.788 10.3137C137.948 10.3392 138.093 10.403 138.222 10.5046C138.353 10.6073 138.451 10.7476 138.516 10.9254C138.581 11.1023 138.597 11.2704 138.563 11.4299C138.529 11.5883 138.459 11.7275 138.354 11.8473C138.247 11.9674 138.118 12.0552 137.967 12.1109C137.941 12.1202 137.917 12.128 137.893 12.1346C137.869 12.1411 137.849 12.1461 137.834 12.1496L137.333 10.7873C137.236 10.8309 137.159 10.8905 137.103 10.966C137.046 11.0428 137.009 11.1268 136.995 11.2177C136.981 11.3095 136.99 11.3987 137.021 11.4851C137.056 11.5806 137.114 11.6622 137.194 11.7297C137.272 11.7977 137.356 11.8325 137.446 11.8337L137.469 12.1723C137.373 12.1665 137.279 12.1378 137.186 12.0865C137.092 12.0364 137.008 11.9674 136.932 11.8788C136.857 11.7914 136.796 11.6879 136.753 11.5684ZM137.568 10.6908L137.945 11.7169C138.04 11.6751 138.116 11.616 138.172 11.5394C138.229 11.4638 138.265 11.3805 138.28 11.2892C138.295 11.1993 138.286 11.1087 138.252 11.0173C138.219 10.9289 138.168 10.8552 138.099 10.7965C138.028 10.737 137.947 10.6974 137.855 10.6773C137.763 10.6565 137.667 10.661 137.568 10.6908Z" fill="#898989"/>
<path d="M109.824 20.0573L112.537 20.1418L112.663 20.4973L110.612 22.2701L110.471 21.8738L111.029 21.3923L110.701 20.4727L109.966 20.455L109.824 20.0573ZM111.004 20.4417L111.281 21.2192L112.186 20.4658L111.004 20.4417Z" fill="#898989"/>
<path d="M113.907 24.1734L113.617 24.3719C113.529 24.2478 113.425 24.1558 113.303 24.096C113.182 24.0378 113.057 24.022 112.929 24.0488L111.989 24.6915L111.768 24.3682L113.304 23.3176L113.509 23.6171L113.165 23.8519C113.308 23.8323 113.44 23.8441 113.563 23.8872C113.685 23.9293 113.783 23.9965 113.854 24.0885C113.868 24.108 113.879 24.1244 113.888 24.1376C113.897 24.1499 113.903 24.1619 113.907 24.1734Z" fill="#898989"/>
<path d="M116.006 26.3311L115.768 26.5902C115.655 26.4891 115.533 26.4231 115.401 26.3925C115.269 26.3633 115.144 26.3762 115.025 26.4315L114.256 27.2703L113.967 27.0055L115.224 25.6343L115.492 25.8795L115.211 26.1859C115.345 26.1347 115.477 26.1162 115.607 26.1303C115.735 26.1437 115.845 26.1871 115.936 26.2603C115.953 26.2762 115.968 26.2896 115.98 26.3005C115.99 26.3106 115.999 26.3209 116.006 26.3311Z" fill="#898989"/>
<path d="M117.429 29.4872C117.299 29.4187 117.195 29.335 117.115 29.2361C117.036 29.1367 116.981 29.0275 116.948 28.9087C116.916 28.7887 116.906 28.6677 116.92 28.5453C116.935 28.4221 116.972 28.3027 117.033 28.1873C117.093 28.0717 117.171 27.9734 117.265 27.8922C117.359 27.8099 117.464 27.7494 117.58 27.7101C117.696 27.6709 117.818 27.656 117.945 27.6649C118.073 27.6754 118.201 27.7143 118.329 27.7817C118.458 27.8496 118.562 27.9331 118.641 28.032C118.722 28.1323 118.778 28.2416 118.811 28.3595C118.844 28.4771 118.853 28.5981 118.84 28.7228C118.825 28.846 118.788 28.9653 118.727 29.081C118.666 29.1965 118.589 29.2948 118.495 29.3761C118.401 29.4559 118.296 29.5165 118.18 29.558C118.063 29.5981 117.94 29.6134 117.812 29.6039C117.686 29.594 117.558 29.555 117.429 29.4872ZM117.386 28.3788C117.331 28.483 117.303 28.5889 117.303 28.6966C117.303 28.8044 117.327 28.9016 117.374 28.9882C117.423 29.0755 117.493 29.1433 117.584 29.1918C117.676 29.2397 117.771 29.2585 117.871 29.2483C117.972 29.2385 118.066 29.2027 118.156 29.1411C118.245 29.079 118.316 28.9961 118.37 28.8929C118.425 28.7887 118.453 28.683 118.454 28.5759C118.454 28.4682 118.43 28.37 118.381 28.2813C118.333 28.1931 118.264 28.1251 118.173 28.0771C118.081 28.0287 117.985 28.0101 117.885 28.0213C117.785 28.0329 117.692 28.0687 117.603 28.1285C117.515 28.1884 117.442 28.2718 117.386 28.3788Z" fill="#898989"/>
<path d="M122.406 30.5938L123.24 29.2342L123.609 29.297L122.524 31L122.193 30.9436L122.005 30.0598L121.535 30.8314L121.204 30.7752L120.741 28.8088L121.11 28.8716L121.452 30.4314L121.826 29.7982L121.643 28.9655L121.969 29.0211L122.079 29.6278L122.381 29.0911L122.706 29.1466L122.26 29.8719L122.406 30.5938Z" fill="#898989"/>
<path d="M128.008 29.3888C127.957 29.2435 127.932 29.0917 127.934 28.9332C127.936 28.7757 127.966 28.6219 128.025 28.4719C128.084 28.3206 128.173 28.1856 128.292 28.0675C128.411 27.9482 128.561 27.8567 128.741 27.7928C128.956 27.7167 129.16 27.7 129.351 27.7426C129.541 27.7841 129.702 27.8676 129.832 27.9929L129.607 28.2955C129.528 28.2147 129.444 28.1585 129.357 28.1268C129.268 28.0946 129.181 28.0816 129.093 28.0875C129.006 28.0932 128.925 28.1096 128.848 28.1366C128.723 28.1808 128.622 28.2449 128.546 28.3285C128.47 28.4121 128.415 28.5066 128.381 28.6117C128.347 28.717 128.331 28.827 128.334 28.9416C128.338 29.0561 128.358 29.1646 128.395 29.2675C128.435 29.3816 128.493 29.4848 128.569 29.5773C128.644 29.6697 128.731 29.7449 128.827 29.8024C128.925 29.8598 129.029 29.8957 129.14 29.91C129.25 29.9233 129.361 29.91 129.473 29.8704C129.549 29.8436 129.623 29.8026 129.697 29.747C129.77 29.6906 129.832 29.6216 129.882 29.5402C129.933 29.4577 129.962 29.3624 129.968 29.2543L130.344 29.3226C130.336 29.4581 130.295 29.5856 130.22 29.7051C130.145 29.8245 130.051 29.9282 129.938 30.0159C129.824 30.104 129.705 30.1701 129.58 30.2144C129.412 30.2736 129.246 30.2925 129.082 30.2711C128.919 30.2504 128.766 30.1988 128.623 30.1164C128.481 30.035 128.356 29.931 128.249 29.8043C128.141 29.6767 128.061 29.5381 128.008 29.3888Z" fill="#898989"/>
<path d="M133.39 28.1666C133.272 28.2536 133.151 28.3115 133.027 28.3402C132.904 28.3675 132.781 28.3699 132.66 28.3478C132.538 28.3247 132.425 28.2804 132.321 28.2149C132.216 28.1485 132.125 28.0628 132.048 27.9575C131.97 27.8525 131.915 27.7399 131.883 27.6203C131.85 27.4998 131.841 27.3786 131.856 27.2569C131.871 27.1353 131.911 27.0191 131.974 26.9086C132.039 26.7983 132.13 26.7001 132.246 26.6144C132.364 26.5281 132.484 26.4705 132.607 26.4417C132.733 26.4132 132.856 26.4097 132.977 26.4312C133.097 26.4531 133.21 26.4975 133.316 26.5641C133.421 26.6305 133.512 26.7162 133.589 26.8212C133.667 26.9264 133.722 27.0389 133.754 27.1585C133.785 27.2779 133.794 27.3991 133.781 27.5219C133.766 27.6445 133.727 27.7612 133.662 27.8725C133.598 27.9822 133.507 28.0803 133.39 28.1666ZM132.373 27.7234C132.443 27.8182 132.527 27.8889 132.624 27.9358C132.721 27.9826 132.819 28.0036 132.917 27.9986C133.017 27.993 133.109 27.9594 133.192 27.8979C133.275 27.837 133.334 27.7594 133.367 27.6648C133.402 27.5698 133.412 27.4687 133.395 27.3614C133.378 27.2546 133.334 27.1544 133.265 27.0603C133.195 26.9655 133.112 26.8945 133.016 26.847C132.919 26.8001 132.82 26.7794 132.719 26.7848C132.619 26.7895 132.527 26.8224 132.444 26.8833C132.361 26.9448 132.302 27.0232 132.269 27.1185C132.236 27.2131 132.227 27.3133 132.243 27.4188C132.258 27.5246 132.302 27.626 132.373 27.7234Z" fill="#898989"/>
<path d="M135.08 25.3046C134.938 25.1976 134.831 25.0711 134.758 24.9254C134.685 24.7798 134.652 24.6308 134.66 24.4784C134.666 24.3263 134.719 24.1847 134.817 24.0541C134.903 23.9404 135.009 23.8595 135.138 23.8111C135.265 23.7642 135.392 23.748 135.518 23.7625L134.649 23.1067L134.885 22.7941L136.606 24.0932C136.642 24.1203 136.672 24.1328 136.698 24.1308C136.724 24.1295 136.748 24.1142 136.774 24.0847L137.023 24.2734C136.988 24.3393 136.958 24.3887 136.934 24.4211C136.889 24.4801 136.835 24.5167 136.771 24.5311C136.705 24.5462 136.648 24.537 136.6 24.5031L136.487 24.4216C136.538 24.5503 136.554 24.6827 136.533 24.8186C136.512 24.9545 136.462 25.0745 136.384 25.1788C136.307 25.2814 136.216 25.3604 136.112 25.4161C136.007 25.4722 135.894 25.505 135.774 25.5149C135.654 25.5239 135.535 25.5108 135.416 25.4756C135.296 25.4403 135.184 25.3833 135.08 25.3046ZM136.188 24.2685L135.8 23.9753C135.724 23.9501 135.644 23.942 135.561 23.9515C135.477 23.9623 135.399 23.9854 135.327 24.0208C135.255 24.0575 135.198 24.1042 135.155 24.1606C135.105 24.2272 135.074 24.298 135.061 24.3731C135.05 24.4488 135.052 24.5241 135.07 24.5989C135.088 24.6728 135.119 24.7433 135.163 24.8103C135.209 24.8766 135.264 24.935 135.331 24.9854C135.399 25.0369 135.471 25.0739 135.547 25.0962C135.624 25.1182 135.703 25.1256 135.782 25.1184C135.86 25.1105 135.933 25.0884 136 25.0523C136.069 25.0152 136.128 24.9639 136.177 24.8981C136.209 24.8563 136.233 24.8082 136.25 24.7539C136.267 24.6996 136.277 24.6431 136.28 24.5847C136.283 24.5254 136.277 24.4686 136.261 24.4141C136.246 24.3597 136.222 24.3111 136.188 24.2685Z" fill="#898989"/>
<path d="M138.529 21.2264C138.478 21.3629 138.409 21.4771 138.322 21.5691C138.232 21.6617 138.132 21.7326 138.019 21.782C137.905 21.8314 137.786 21.8575 137.662 21.8607C137.539 21.864 137.416 21.843 137.293 21.7976C137.129 21.7367 136.991 21.643 136.882 21.5168C136.774 21.39 136.703 21.2434 136.67 21.0769C136.637 20.9106 136.654 20.7361 136.722 20.5536C136.79 20.3708 136.89 20.2288 137.022 20.127C137.154 20.0254 137.302 19.963 137.464 19.9401C137.627 19.917 137.787 19.9345 137.943 19.9924C137.969 20.002 137.994 20.0121 138.016 20.0229C138.039 20.0349 138.058 20.0446 138.072 20.0521L137.554 21.4506C137.659 21.4815 137.759 21.4863 137.855 21.4646C137.95 21.4427 138.033 21.4011 138.105 21.3398C138.178 21.278 138.232 21.2022 138.265 21.1131C138.301 21.0157 138.31 20.9138 138.294 20.8071C138.277 20.7015 138.235 20.6184 138.165 20.5577L138.372 20.2765C138.443 20.3459 138.497 20.4312 138.538 20.5329C138.578 20.6355 138.597 20.7461 138.596 20.8644C138.597 20.9832 138.575 21.104 138.529 21.2264ZM137.307 21.3694L137.697 20.3154C137.596 20.2847 137.497 20.2801 137.401 20.3017C137.306 20.3237 137.222 20.365 137.149 20.4259C137.078 20.4862 137.025 20.563 136.99 20.6563C136.956 20.7476 136.947 20.8399 136.961 20.9332C136.978 21.0258 137.014 21.1109 137.072 21.1884C137.131 21.2661 137.209 21.3264 137.307 21.3694Z" fill="#898989"/>
<path d="M109.257 16.0523C109.257 15.5191 109.689 15.0869 110.223 15.0869C110.756 15.0869 111.188 15.5191 111.188 16.0523C111.188 16.5855 110.756 17.0177 110.223 17.0177C109.689 17.0177 109.257 16.5855 109.257 16.0523Z" fill="#898989"/>
<path d="M137.526 16.0523C137.526 15.5191 137.958 15.0869 138.491 15.0869C139.025 15.0869 139.457 15.5191 139.457 16.0523C139.457 16.5855 139.025 17.0177 138.491 17.0177C137.958 17.0177 137.526 16.5855 137.526 16.0523Z" fill="#898989"/>
</g>
</g>
</svg>
