<?xml version="1.0" encoding="UTF-8" standalone="no"?>
<svg width="140" height="32" viewBox="0 0 140 32" fill="none" version="1.1" id="svg90" sodipodi:docname="logo-7-dark-mode.svg" inkscape:version="1.2.2 (732a01da63, 2022-12-09)" xmlns:inkscape="http://www.inkscape.org/namespaces/inkscape" xmlns:sodipodi="http://sodipodi.sourceforge.net/DTD/sodipodi-0.dtd" xmlns="http://www.w3.org/2000/svg" xmlns:svg="http://www.w3.org/2000/svg">
  <defs id="defs94" />
  <sodipodi:namedview id="namedview92" pagecolor="#505050" bordercolor="#eeeeee" borderopacity="1" inkscape:showpageshadow="0" inkscape:pageopacity="0" inkscape:pagecheckerboard="0" inkscape:deskcolor="#505050" showgrid="false" inkscape:zoom="3.3537065" inkscape:cx="19.679719" inkscape:cy="-0.7454439" inkscape:window-width="1920" inkscape:window-height="1001" inkscape:window-x="-9" inkscape:window-y="-9" inkscape:window-maximized="1" inkscape:current-layer="svg90" />
  <mask id="mask0_342_690" style="mask-type:luminance" maskUnits="userSpaceOnUse" x="0" y="9" width="105" height="14">
    <path d="M104.262 9.0639H0.539612V22.936H104.262V9.0639Z" fill="white" id="path2" />
  </mask>
  <mask id="mask4_342_690" style="mask-type:luminance" maskUnits="userSpaceOnUse" x="109" y="0" width="31" height="32">
    <path d="M139.457 0.900269H109.257V31.0997H139.457V0.900269Z" fill="white" id="path24" />
  </mask>
  <g id="g922" transform="translate(-1.675e-4)">
    <g mask="url(#mask0_342_690)" id="g22">
      <mask id="mask1_342_690" maskUnits="userSpaceOnUse" x="0" y="9" width="105" height="14">
        <path d="M 104.262,9.0639 H 0.539612 V 22.936 H 104.262 Z" fill="#ffffff" id="path5" />
      </mask>
      <g mask="url(#mask1_342_690)" id="g20">
        <mask id="mask2_342_690" maskUnits="userSpaceOnUse" x="0" y="9" width="105" height="14">
          <path d="M 104.262,9.0639 H 0.539612 V 22.936 H 104.262 Z" fill="#ffffff" id="path8" />
        </mask>
        <g mask="url(#mask2_342_690)" id="g18">
          <mask id="mask3_342_690" maskUnits="userSpaceOnUse" x="0" y="9" width="105" height="14">
            <path d="M 104.262,9.0639 H 0.539612 V 22.936 H 104.262 Z" fill="#ffffff" id="path11" />
          </mask>
          <g mask="url(#mask3_342_690)" id="g16">
            <path d="M 0.543335,22.7485 5.75474,9.4388 h 1.98708 l 5.17388,13.3097 h -2.212 L 9.29775,19.1305 H 4.16132 l -1.3872,3.618 z M 4.53625,17.5746 h 4.34908 l -2.13705,-5.83 z M 19.8143,12.8693 v 1.8559 c -0.7998,0.0125 -1.5097,0.1937 -2.1296,0.5436 -0.6173,0.3499 -1.0572,0.8436 -1.3197,1.481 v 5.9987 h -2.0621 v -9.8042 h 1.9121 v 2.1933 c 0.3375,-0.6749 0.7811,-1.216 1.331,-1.6234 0.5499,-0.4049 1.131,-0.6261 1.7434,-0.6636 0.125,0 0.2274,0 0.3074,0 0.0825,0 0.155,0.0062 0.2175,0.0187 z m 7.011,0 v 1.8559 c -0.7998,0.0125 -1.5097,0.1937 -2.1295,0.5436 -0.6174,0.3499 -1.0573,0.8436 -1.3198,1.481 v 5.9987 h -2.062 v -9.8042 h 1.9121 v 2.1933 c 0.3374,-0.6749 0.7811,-1.216 1.3309,-1.6234 0.5499,-0.4049 1.1311,-0.6261 1.7434,-0.6636 0.125,0 0.2275,0 0.3075,0 0.0824,0 0.1549,0.0062 0.2174,0.0187 z m 5.7326,10.0667 c -0.7749,0 -1.4685,-0.135 -2.0809,-0.405 -0.6123,-0.2674 -1.1397,-0.6386 -1.5821,-1.1135 -0.4449,-0.4749 -0.7861,-1.016 -1.0236,-1.6234 -0.2374,-0.6049 -0.3561,-1.251 -0.3561,-1.9383 0,-0.6874 0.1187,-1.3372 0.3561,-1.9496 0.2375,-0.6124 0.5787,-1.1535 1.0236,-1.6234 0.4424,-0.4674 0.9735,-0.8361 1.5934,-1.106 0.6174,-0.2675 1.3072,-0.4012 2.0696,-0.4012 0.7623,0 1.4534,0.1337 2.0733,0.4012 0.6173,0.2699 1.1485,0.6386 1.5934,1.106 0.4424,0.4699 0.7823,1.011 1.0198,1.6234 0.2374,0.6124 0.3562,1.2622 0.3562,1.9496 0,0.6873 -0.1188,1.3334 -0.3562,1.9383 -0.2375,0.6074 -0.5774,1.1485 -1.0198,1.6234 -0.4449,0.4749 -0.9761,0.8461 -1.5934,1.1135 -0.6199,0.27 -1.311,0.405 -2.0733,0.405 z m -2.9244,-5.0615 c 0,0.6249 0.1312,1.1873 0.3936,1.6872 0.2625,0.4999 0.6124,0.8935 1.0498,1.181 0.4374,0.2874 0.9311,0.4311 1.481,0.4311 0.5373,0 1.0285,-0.1474 1.4734,-0.4424 0.4424,-0.2924 0.7948,-0.6923 1.0573,-1.1997 0.2624,-0.5049 0.3936,-1.0636 0.3936,-1.6759 0,-0.6249 -0.1312,-1.1873 -0.3936,-1.6872 -0.2625,-0.4999 -0.6149,-0.8973 -1.0573,-1.1922 -0.4449,-0.2925 -0.9361,-0.4387 -1.4734,-0.4387 -0.5499,0 -1.0436,0.15 -1.481,0.4499 -0.4374,0.3 -0.7873,0.6961 -1.0498,1.1885 -0.2624,0.4949 -0.3936,1.0611 -0.3936,1.6984 z m 18.5586,2.8682 3.1306,-7.7984 h 1.9683 l -4.1241,9.8042 h -1.7622 l -1.7621,-4.4241 -1.7621,4.4241 h -1.7621 l -4.1429,-9.8042 h 1.9683 l 3.1493,7.7984 1.3873,-3.618 -1.6872,-4.1616 h 1.7434 l 1.106,3.0556 1.0873,-3.0556 h 1.7434 l -1.6684,4.1616 z m 9.9916,-4.7428 c 0,-0.8123 0.1438,-1.6096 0.4312,-2.392 0.2874,-0.7798 0.7086,-1.4922 1.2635,-2.137 0.5574,-0.6424 1.2347,-1.1548 2.0321,-1.5372 0.8023,-0.3799 1.7083,-0.5699 2.7181,-0.5699 1.2023,0 2.2408,0.2724 3.1156,0.8173 0.8748,0.5424 1.5247,1.2385 1.9496,2.0883 l -1.6496,1.1061 c -0.25,-0.5374 -0.5662,-0.9623 -0.9486,-1.2748 -0.3799,-0.3124 -0.7923,-0.5311 -1.2372,-0.6561 -0.4424,-0.125 -0.8761,-0.1874 -1.301,-0.1874 -0.7024,0 -1.3147,0.1399 -1.8371,0.4199 -0.5249,0.2824 -0.9661,0.6548 -1.3235,1.1172 -0.3549,0.4624 -0.6236,0.9811 -0.8061,1.556 -0.1824,0.5748 -0.2737,1.1497 -0.2737,1.7246 0,0.6374 0.1075,1.2522 0.3225,1.8446 0.2124,0.5949 0.5086,1.1198 0.8885,1.5747 0.38,0.4574 0.8336,0.8173 1.361,1.0798 0.5249,0.2624 1.0998,0.3936 1.7246,0.3936 0.4249,0 0.8686,-0.075 1.331,-0.2249 0.4624,-0.15 0.8898,-0.3849 1.2822,-0.7049 0.395,-0.3174 0.7049,-0.7386 0.9298,-1.2635 L 69.9,19.7679 c -0.2749,0.6623 -0.7036,1.2247 -1.286,1.6871 -0.5798,0.4624 -1.2297,0.8124 -1.9495,1.0498 -0.7174,0.2375 -1.4272,0.3562 -2.1296,0.3562 -0.9373,0 -1.7921,-0.1975 -2.5645,-0.5924 -0.7748,-0.3924 -1.4434,-0.9173 -2.0058,-1.5747 -0.5624,-0.6548 -0.9998,-1.3922 -1.3122,-2.212 -0.3125,-0.8173 -0.4687,-1.6447 -0.4687,-2.482 z M 75.97,22.936 c -0.7748,0 -1.4684,-0.135 -2.0808,-0.405 -0.6124,-0.2674 -1.1398,-0.6386 -1.5822,-1.1135 -0.4449,-0.4749 -0.7861,-1.016 -1.0235,-1.6234 -0.2375,-0.6049 -0.3562,-1.251 -0.3562,-1.9383 0,-0.6874 0.1187,-1.3372 0.3562,-1.9496 0.2374,-0.6124 0.5786,-1.1535 1.0235,-1.6234 0.4424,-0.4674 0.9736,-0.8361 1.5934,-1.106 0.6174,-0.2675 1.3073,-0.4012 2.0696,-0.4012 0.7623,0 1.4534,0.1337 2.0733,0.4012 0.6174,0.2699 1.1485,0.6386 1.5934,1.106 0.4424,0.4699 0.7824,1.011 1.0198,1.6234 0.2375,0.6124 0.3562,1.2622 0.3562,1.9496 0,0.6873 -0.1187,1.3334 -0.3562,1.9383 -0.2374,0.6074 -0.5774,1.1485 -1.0198,1.6234 -0.4449,0.4749 -0.976,0.8461 -1.5934,1.1135 -0.6199,0.27 -1.311,0.405 -2.0733,0.405 z m -2.9244,-5.0615 c 0,0.6249 0.1312,1.1873 0.3937,1.6872 0.2624,0.4999 0.6124,0.8935 1.0498,1.181 0.4374,0.2874 0.931,0.4311 1.4809,0.4311 0.5374,0 1.0285,-0.1474 1.4734,-0.4424 0.4425,-0.2924 0.7949,-0.6923 1.0573,-1.1997 0.2625,-0.5049 0.3937,-1.0636 0.3937,-1.6759 0,-0.6249 -0.1312,-1.1873 -0.3937,-1.6872 -0.2624,-0.4999 -0.6148,-0.8973 -1.0573,-1.1922 -0.4449,-0.2925 -0.936,-0.4387 -1.4734,-0.4387 -0.5499,0 -1.0435,0.15 -1.4809,0.4499 -0.4374,0.3 -0.7874,0.6961 -1.0498,1.1885 -0.2625,0.4949 -0.3937,1.0611 -0.3937,1.6984 z m 9.1856,-0.0187 c 0,-0.9373 0.1912,-1.7909 0.5736,-2.5607 0.3799,-0.7674 0.9011,-1.3797 1.5634,-1.8372 0.6624,-0.4549 1.4247,-0.6823 2.2871,-0.6823 0.7498,0 1.4284,0.1937 2.0358,0.5811 0.6049,0.3874 1.076,0.8686 1.4134,1.4435 V 9.0639 h 2.0621 V 20.424 c 0,0.2374 0.0437,0.4062 0.1312,0.5061 0.0875,0.1 0.2312,0.1562 0.4312,0.1687 v 1.6497 c -0.3874,0.0625 -0.6874,0.0937 -0.8998,0.0937 -0.3874,0 -0.7149,-0.1124 -0.9823,-0.3374 -0.27,-0.225 -0.4112,-0.4936 -0.4237,-0.8061 l -0.0187,-0.7311 c -0.3749,0.6249 -0.8811,1.1085 -1.5185,1.451 -0.6373,0.3449 -1.2997,0.5174 -1.987,0.5174 -0.6749,0 -1.296,-0.1313 -1.8634,-0.3937 -0.5699,-0.2625 -1.0635,-0.6311 -1.4809,-1.106 -0.42,-0.4749 -0.7449,-1.0186 -0.9748,-1.6309 -0.2325,-0.6124 -0.3487,-1.2623 -0.3487,-1.9496 z m 7.8733,1.3684 V 16.656 c -0.1374,-0.3999 -0.3586,-0.7598 -0.6636,-1.0797 -0.3074,-0.3175 -0.6511,-0.5699 -1.031,-0.7574 -0.3824,-0.1874 -0.7611,-0.2812 -1.136,-0.2812 -0.4374,0 -0.8336,0.0938 -1.1885,0.2812 -0.3574,0.1875 -0.6636,0.4374 -0.9186,0.7499 -0.2574,0.3124 -0.4549,0.6686 -0.5924,1.0685 -0.1374,0.3999 -0.2062,0.8186 -0.2062,1.256 0,0.4499 0.075,0.871 0.225,1.2635 0.15,0.3949 0.3662,0.7448 0.6486,1.0497 0.2799,0.3075 0.6049,0.5449 0.9748,0.7124 0.3674,0.1699 0.7698,0.2549 1.2073,0.2549 0.2749,0 0.5536,-0.05 0.836,-0.1499 0.28,-0.1 0.5487,-0.2375 0.8061,-0.4125 0.255,-0.1749 0.4737,-0.3811 0.6561,-0.6186 0.18,-0.2374 0.3075,-0.4936 0.3824,-0.7686 z m 9.1294,3.7118 c -0.7624,0 -1.4535,-0.135 -2.0733,-0.405 -0.6174,-0.2674 -1.151,-0.6361 -1.601,-1.106 -0.4499,-0.4674 -0.7973,-1.0048 -1.0422,-1.6121 -0.2425,-0.6049 -0.3637,-1.251 -0.3637,-1.9384 0,-0.9248 0.2124,-1.7721 0.6374,-2.5419 0.4249,-0.7674 1.0185,-1.386 1.7808,-1.8559 0.7624,-0.4674 1.6559,-0.7011 2.6807,-0.7011 1.0244,0 1.9084,0.2337 2.6514,0.7011 0.745,0.4699 1.323,1.086 1.736,1.8484 0.412,0.7623 0.618,1.5809 0.618,2.4557 0,0.15 -0.006,0.2899 -0.019,0.4199 -0.012,0.1325 -0.025,0.2425 -0.037,0.3299 h -7.855 c 0.0375,0.5749 0.1962,1.0773 0.4761,1.5072 0.2825,0.4324 0.6424,0.7699 1.0798,1.0123 0.4374,0.245 0.9061,0.3674 1.406,0.3674 0.5498,0 1.0711,-0.1374 1.5641,-0.4124 0.495,-0.2749 0.83,-0.6374 1.004,-1.0873 l 1.763,0.5062 c -0.213,0.4749 -0.535,0.9023 -0.968,1.2822 -0.43,0.3824 -0.938,0.6824 -1.526,0.8998 -0.587,0.22 -1.2248,0.33 -1.9121,0.33 z m -2.9432,-5.7738 h 5.9243 c -0.038,-0.5624 -0.198,-1.0598 -0.48,-1.4922 -0.28,-0.4299 -0.636,-0.7674 -1.069,-1.0123 -0.43,-0.2425 -0.9072,-0.3637 -1.4321,-0.3637 -0.5124,0 -0.9848,0.1212 -1.4172,0.3637 -0.4299,0.2449 -0.7824,0.5824 -1.0573,1.0123 -0.2749,0.4324 -0.4312,0.9298 -0.4687,1.4922 z" fill="#f0edea" id="path14" />
          </g>
        </g>
      </g>
    </g>
    <g mask="url(#mask4_342_690)" id="g88">
      <mask id="mask5_342_690" maskUnits="userSpaceOnUse" x="109" y="0" width="31" height="32">
        <path d="m 139.457,0.900269 h -30.2 V 31.0997 h 30.2 z" fill="#ffffff" id="path27" />
      </mask>
      <g mask="url(#mask5_342_690)" id="g86">
        <mask id="mask6_342_690" maskUnits="userSpaceOnUse" x="117" y="10" width="15" height="12">
          <path d="M 131.475,10.9941 H 117.239 V 21.006 h 14.236 z" fill="#ffffff" id="path30" />
        </mask>
        <g mask="url(#mask6_342_690)" id="g44">
          <mask id="mask7_342_690" maskUnits="userSpaceOnUse" x="117" y="10" width="15" height="12">
            <path d="M 131.475,10.9941 H 117.239 V 21.006 h 14.236 z" fill="#ffffff" id="path33" />
          </mask>
          <g mask="url(#mask7_342_690)" id="g42">
            <path d="m 118.074,15.6075 3.452,-2.3054 c 0.15,-0.1005 0.191,-0.304 0.09,-0.4545 -0.1,-0.1504 -0.303,-0.1912 -0.454,-0.0905 l -3.452,2.3055 c -0.295,0.1966 -0.471,0.5256 -0.471,0.8798 0,0.3542 0.176,0.6832 0.471,0.8798 l 3.452,2.3054 c 0.056,0.0374 0.119,0.0553 0.181,0.0553 0.106,0 0.21,-0.0512 0.273,-0.1457 0.101,-0.1505 0.06,-0.354 -0.09,-0.4545 l -3.452,-2.3056 c -0.114,-0.076 -0.18,-0.1979 -0.18,-0.3349 0,-0.1368 0.066,-0.2586 0.18,-0.3347 z" fill="#898989" id="path36" />
            <path d="m 131.005,15.0626 -3.453,-2.3055 c -0.15,-0.1006 -0.354,-0.0599 -0.455,0.0904 -0.1,0.1506 -0.059,0.3541 0.091,0.4545 l 3.452,2.3055 c 0.114,0.076 0.18,0.1979 0.18,0.3347 0,0.1368 -0.065,0.2588 -0.18,0.3348 l -3.452,2.3057 c -0.15,0.1004 -0.19,0.3039 -0.09,0.4545 0.063,0.0945 0.167,0.1456 0.273,0.1456 0.062,0 0.125,-0.0178 0.181,-0.0552 l 3.453,-2.3055 c 0.294,-0.1965 0.47,-0.5256 0.47,-0.8797 0,-0.3543 -0.176,-0.6832 -0.47,-0.8798 z" fill="#898989" id="path38" />
            <path d="m 125.95,11.0097 c -0.173,-0.0549 -0.357,0.0401 -0.412,0.2125 l -2.986,9.3565 c -0.055,0.1723 0.04,0.3566 0.213,0.4117 0.033,0.0105 0.066,0.0156 0.099,0.0156 0.139,0 0.268,-0.0888 0.312,-0.2283 l 2.986,-9.3563 c 0.055,-0.1724 -0.04,-0.3567 -0.212,-0.4117 z" fill="#898989" id="path40" />
          </g>
        </g>
        <path d="m 111.554,12.6624 -1.996,-1.7271 0.121,-0.345 2.636,-0.0819 -0.136,0.3843 -0.716,0.0229 -0.316,0.8946 0.545,0.4632 z m -0.655,-1.013 0.268,-0.7584 -1.147,0.0136 z" fill="#898989" id="path46" />
        <path d="m 112.345,6.91272 0.282,0.19267 c -0.081,0.12323 -0.127,0.25007 -0.137,0.38059 -0.012,0.13081 0.018,0.24935 0.088,0.35549 l 0.915,0.62409 -0.215,0.31578 -1.497,-1.0205 0.2,-0.29171 0.334,0.22799 c -0.067,-0.12215 -0.103,-0.24586 -0.109,-0.37132 -0.004,-0.12624 0.023,-0.23822 0.08,-0.33624 0.014,-0.01943 0.024,-0.03532 0.033,-0.04765 0.008,-0.01234 0.017,-0.02208 0.026,-0.02919 z" fill="#898989" id="path48" />
        <path d="m 114.735,4.41089 0.231,0.252 c -0.107,0.1013 -0.181,0.21444 -0.22,0.33925 -0.041,0.12466 -0.04,0.24679 0.004,0.36625 l 0.749,0.81658 -0.282,0.25815 -1.224,-1.33494 0.261,-0.23874 0.273,0.29823 c -0.037,-0.13412 -0.044,-0.26288 -0.021,-0.38612 0.025,-0.12387 0.076,-0.22707 0.155,-0.30912 0.017,-0.01594 0.032,-0.02888 0.042,-0.03913 0.011,-0.0101 0.022,-0.01768 0.032,-0.02241 z" fill="#898989" id="path50" />
        <path d="m 118.331,4.29568 c -0.127,0.06675 -0.252,0.10399 -0.375,0.11188 -0.124,0.00915 -0.242,-0.006 -0.354,-0.04592 -0.114,-0.03929 -0.217,-0.09846 -0.308,-0.17752 -0.09,-0.0781 -0.166,-0.17357 -0.225,-0.28624 -0.059,-0.11172 -0.095,-0.22816 -0.109,-0.34888 -0.014,-0.12087 -0.005,-0.23874 0.028,-0.35393 0.031,-0.11456 0.087,-0.22028 0.165,-0.31716 0.079,-0.09689 0.18,-0.178 0.304,-0.24332 0.125,-0.06581 0.249,-0.1032 0.373,-0.11251 0.124,-0.00979 0.242,0.00458 0.356,0.04307 0.112,0.03882 0.214,0.09831 0.306,0.17815 0.092,0.08001 0.166,0.17594 0.225,0.28766 0.06,0.11267 0.096,0.22865 0.109,0.34762 0.014,0.11992 0.005,0.23764 -0.027,0.35315 -0.032,0.11598 -0.087,0.22249 -0.165,0.31937 -0.077,0.09736 -0.178,0.17894 -0.303,0.24458 z m -0.913,-0.57736 c 0.053,0.10224 0.123,0.18304 0.209,0.24205 0.086,0.05996 0.176,0.09421 0.273,0.10288 0.096,0.00994 0.189,-0.00867 0.279,-0.05602 0.088,-0.04639 0.155,-0.1125 0.202,-0.19866 0.048,-0.08568 0.072,-0.18146 0.07,-0.28734 -10e-4,-0.10477 -0.027,-0.2075 -0.08,-0.30786 -0.054,-0.10225 -0.123,-0.18304 -0.209,-0.24206 -0.085,-0.05901 -0.177,-0.09357 -0.276,-0.10351 -0.097,-0.01041 -0.19,0.00742 -0.278,0.05381 -0.09,0.04734 -0.158,0.11424 -0.203,0.20103 -0.046,0.0871 -0.069,0.1821 -0.069,0.28498 -0.001,0.10288 0.027,0.20655 0.082,0.3107 z" fill="#898989" id="path52" />
        <path d="M 122.581,2.57746 122.91,1.06107 123.269,1 l -0.448,1.91309 -0.321,0.05428 -0.457,-0.75125 -0.185,0.86013 -0.32,0.05428 -1.058,-1.65746 0.358,-0.0606 0.816,1.32232 0.139,-0.70108 -0.435,-0.70613 0.318,-0.05396 0.296,0.52308 0.103,-0.59078 0.318,-0.05396 -0.175,0.8098 z" fill="#898989" id="path54" />
        <path d="m 128.3,2.08106 c 0.051,-0.14107 0.125,-0.27077 0.225,-0.38896 0.098,-0.11819 0.216,-0.21587 0.353,-0.29319 0.137,-0.07731 0.286,-0.12449 0.449,-0.14138 0.163,-0.01688 0.333,0.00584 0.508,0.06848 0.208,0.07448 0.372,0.1862 0.49,0.33516 0.119,0.14912 0.189,0.31101 0.211,0.48585 l -0.356,0.08963 c -0.01,-0.1092 -0.038,-0.20293 -0.085,-0.2812 -0.048,-0.0781 -0.106,-0.14154 -0.175,-0.18998 -0.07,-0.04986 -0.141,-0.08789 -0.215,-0.11424 -0.122,-0.04355 -0.237,-0.05696 -0.347,-0.04024 -0.108,0.01609 -0.208,0.05318 -0.299,0.11156 -0.09,0.0587 -0.168,0.13239 -0.236,0.22107 -0.067,0.08837 -0.119,0.18241 -0.154,0.28214 -0.04,0.11093 -0.06,0.22485 -0.059,0.34209 0,0.11614 0.019,0.22565 0.056,0.32869 0.038,0.10335 0.095,0.19409 0.17,0.27219 0.075,0.0778 0.167,0.13602 0.275,0.17484 0.074,0.0262 0.156,0.04071 0.246,0.04324 0.09,0.00252 0.179,-0.01168 0.268,-0.04261 0.087,-0.03093 0.168,-0.08489 0.24,-0.16158 l 0.24,0.28024 c -0.088,0.09799 -0.197,0.16931 -0.326,0.21413 -0.131,0.04434 -0.266,0.06485 -0.406,0.06154 -0.14,-0.00332 -0.27,-0.02651 -0.391,-0.06959 -0.164,-0.05823 -0.3,-0.1458 -0.411,-0.26241 -0.111,-0.11677 -0.195,-0.24948 -0.251,-0.39827 -0.058,-0.1488 -0.088,-0.30455 -0.091,-0.46708 -0.005,-0.16157 0.02,-0.31495 0.071,-0.46012 z" fill="#898989" id="path56" />
        <path d="m 132.285,5.49007 c -0.116,-0.08537 -0.204,-0.18178 -0.264,-0.28908 -0.062,-0.10714 -0.099,-0.22013 -0.112,-0.3391 -0.014,-0.11961 -0.006,-0.23764 0.026,-0.35409 0.032,-0.11551 0.084,-0.22454 0.161,-0.32679 0.075,-0.10147 0.164,-0.18478 0.266,-0.24979 0.103,-0.06501 0.214,-0.10778 0.331,-0.12845 0.117,-0.0213 0.236,-0.01751 0.358,0.01105 0.121,0.02856 0.238,0.08473 0.351,0.16821 0.113,0.0841 0.201,0.17972 0.263,0.28671 0.063,0.10777 0.101,0.22091 0.116,0.33973 0.014,0.11803 0.004,0.23575 -0.028,0.35315 -0.032,0.11723 -0.086,0.22659 -0.161,0.32805 -0.076,0.1024 -0.165,0.18509 -0.266,0.24852 -0.102,0.06422 -0.212,0.1073 -0.33,0.1294 -0.118,0.02145 -0.238,0.01782 -0.359,-0.01073 -0.121,-0.02715 -0.239,-0.08269 -0.352,-0.16679 z m 0.124,-1.07332 c -0.069,0.09294 -0.112,0.19061 -0.128,0.29334 -0.017,0.10351 -0.008,0.20055 0.026,0.29113 0.033,0.09073 0.09,0.16647 0.172,0.22691 0.08,0.05933 0.169,0.0912 0.266,0.09578 0.099,0.00599 0.195,-0.01436 0.29,-0.06138 0.094,-0.04608 0.175,-0.11488 0.242,-0.20609 0.069,-0.09294 0.111,-0.19061 0.128,-0.29317 0.016,-0.10257 0.007,-0.2004 -0.027,-0.29334 -0.033,-0.09231 -0.089,-0.16806 -0.169,-0.22738 -0.082,-0.0606 -0.171,-0.09231 -0.269,-0.09531 -0.099,-0.00363 -0.194,0.01672 -0.287,0.06106 -0.093,0.04451 -0.174,0.11393 -0.244,0.20845 z" fill="#898989" id="path58" />
        <path d="m 135.118,6.84781 c 0.139,-0.10414 0.286,-0.17026 0.441,-0.19866 0.156,-0.02903 0.305,-0.02004 0.446,0.02667 0.14,0.04749 0.258,0.13491 0.353,0.26239 0.083,0.11047 0.13,0.23214 0.14,0.36517 0.011,0.1322 -0.008,0.25531 -0.056,0.36921 l 0.847,-0.63619 0.229,0.30423 -1.678,1.25998 c -0.035,0.02636 -0.056,0.05139 -0.06,0.0751 -0.005,0.02382 0.003,0.05126 0.024,0.08249 l -0.244,0.18322 c -0.053,-0.05036 -0.091,-0.09122 -0.115,-0.12293 -0.043,-0.05728 -0.063,-0.11817 -0.058,-0.18274 0.003,-0.06438 0.028,-0.11486 0.072,-0.15115 l 0.105,-0.0849 c -0.133,0.01468 -0.26,-0.00614 -0.382,-0.06246 -0.121,-0.05553 -0.221,-0.1343 -0.298,-0.23605 -0.074,-0.09928 -0.123,-0.2056 -0.147,-0.31908 -0.025,-0.11361 -0.025,-0.22769 -0.001,-0.34208 0.024,-0.11444 0.068,-0.22269 0.133,-0.32492 0.064,-0.10175 0.147,-0.19074 0.249,-0.2673 z m 0.671,1.31536 0.379,-0.28527 c 0.044,-0.06487 0.073,-0.13773 0.086,-0.21842 0.012,-0.08063 0.012,-0.15922 -0.003,-0.23527 -0.014,-0.07762 -0.042,-0.14435 -0.083,-0.20007 -0.048,-0.0642 -0.107,-0.11216 -0.175,-0.14405 -0.067,-0.03171 -0.137,-0.04892 -0.212,-0.05193 -0.075,-0.00379 -0.149,0.00662 -0.223,0.03123 -0.074,0.02383 -0.144,0.05981 -0.208,0.10813 -0.067,0.05018 -0.121,0.10825 -0.162,0.17401 -0.042,0.06595 -0.07,0.13653 -0.085,0.21162 -0.014,0.07606 -0.012,0.15019 0.003,0.22294 0.017,0.07341 0.049,0.14218 0.097,0.20645 0.031,0.04097 0.069,0.07665 0.114,0.1068 0.047,0.03026 0.098,0.05476 0.152,0.07305 0.054,0.01829 0.108,0.0281 0.164,0.02918 0.055,1.8e-4 0.107,-0.00927 0.156,-0.0284 z" fill="#898989" id="path60" />
        <path d="m 136.753,11.5684 c -0.049,-0.1316 -0.069,-0.2599 -0.061,-0.3847 0.006,-0.1244 0.036,-0.2403 0.089,-0.3476 0.053,-0.1082 0.124,-0.2027 0.213,-0.2832 0.089,-0.081 0.194,-0.1434 0.314,-0.1875 0.159,-0.0587 0.319,-0.0759 0.48,-0.0517 0.16,0.0255 0.305,0.0893 0.434,0.1909 0.131,0.1027 0.229,0.243 0.294,0.4208 0.065,0.1769 0.081,0.345 0.047,0.5045 -0.034,0.1584 -0.104,0.2976 -0.209,0.4174 -0.107,0.1201 -0.236,0.2079 -0.387,0.2636 -0.026,0.0093 -0.05,0.0171 -0.074,0.0237 -0.024,0.0065 -0.044,0.0115 -0.059,0.015 l -0.501,-1.3623 c -0.097,0.0436 -0.174,0.1032 -0.23,0.1787 -0.057,0.0768 -0.094,0.1608 -0.108,0.2517 -0.014,0.0918 -0.005,0.181 0.026,0.2674 0.035,0.0955 0.093,0.1771 0.173,0.2446 0.078,0.068 0.162,0.1028 0.252,0.104 l 0.023,0.3386 c -0.096,-0.0058 -0.19,-0.0345 -0.283,-0.0858 -0.094,-0.0501 -0.178,-0.1191 -0.254,-0.2077 -0.075,-0.0874 -0.136,-0.1909 -0.179,-0.3104 z m 0.815,-0.8776 0.377,1.0261 c 0.095,-0.0418 0.171,-0.1009 0.227,-0.1775 0.057,-0.0756 0.093,-0.1589 0.108,-0.2502 0.015,-0.0899 0.006,-0.1805 -0.028,-0.2719 -0.033,-0.0884 -0.084,-0.1621 -0.153,-0.2208 -0.071,-0.0595 -0.152,-0.0991 -0.244,-0.1192 -0.092,-0.0208 -0.188,-0.0163 -0.287,0.0135 z" fill="#898989" id="path62" />
        <path d="m 109.824,20.0573 2.713,0.0845 0.126,0.3555 -2.051,1.7728 -0.141,-0.3963 0.558,-0.4815 -0.328,-0.9196 -0.735,-0.0177 z m 1.18,0.3844 0.277,0.7775 0.905,-0.7534 z" fill="#898989" id="path64" />
        <path d="m 113.907,24.1734 -0.29,0.1985 c -0.088,-0.1241 -0.192,-0.2161 -0.314,-0.2759 -0.121,-0.0582 -0.246,-0.074 -0.374,-0.0472 l -0.94,0.6427 -0.221,-0.3233 1.536,-1.0506 0.205,0.2995 -0.344,0.2348 c 0.143,-0.0196 0.275,-0.0078 0.398,0.0353 0.122,0.0421 0.22,0.1093 0.291,0.2013 0.014,0.0195 0.025,0.0359 0.034,0.0491 0.009,0.0123 0.015,0.0243 0.019,0.0358 z" fill="#898989" id="path66" />
        <path d="m 116.006,26.3311 -0.238,0.2591 c -0.113,-0.1011 -0.235,-0.1671 -0.367,-0.1977 -0.132,-0.0292 -0.257,-0.0163 -0.376,0.039 l -0.769,0.8388 -0.289,-0.2648 1.257,-1.3712 0.268,0.2452 -0.281,0.3064 c 0.134,-0.0512 0.266,-0.0697 0.396,-0.0556 0.128,0.0134 0.238,0.0568 0.329,0.13 0.017,0.0159 0.032,0.0293 0.044,0.0402 0.01,0.0101 0.019,0.0204 0.026,0.0306 z" fill="#898989" id="path68" />
        <path d="m 117.429,29.4872 c -0.13,-0.0685 -0.234,-0.1522 -0.314,-0.2511 -0.079,-0.0994 -0.134,-0.2086 -0.167,-0.3274 -0.032,-0.12 -0.042,-0.241 -0.028,-0.3634 0.015,-0.1232 0.052,-0.2426 0.113,-0.358 0.06,-0.1156 0.138,-0.2139 0.232,-0.2951 0.094,-0.0823 0.199,-0.1428 0.315,-0.1821 0.116,-0.0392 0.238,-0.0541 0.365,-0.0452 0.128,0.0105 0.256,0.0494 0.384,0.1168 0.129,0.0679 0.233,0.1514 0.312,0.2503 0.081,0.1003 0.137,0.2096 0.17,0.3275 0.033,0.1176 0.042,0.2386 0.029,0.3633 -0.015,0.1232 -0.052,0.2425 -0.113,0.3582 -0.061,0.1155 -0.138,0.2138 -0.232,0.2951 -0.094,0.0798 -0.199,0.1404 -0.315,0.1819 -0.117,0.0401 -0.24,0.0554 -0.368,0.0459 -0.126,-0.0099 -0.254,-0.0489 -0.383,-0.1167 z m -0.043,-1.1084 c -0.055,0.1042 -0.083,0.2101 -0.083,0.3178 0,0.1078 0.024,0.205 0.071,0.2916 0.049,0.0873 0.119,0.1551 0.21,0.2036 0.092,0.0479 0.187,0.0667 0.287,0.0565 0.101,-0.0098 0.195,-0.0456 0.285,-0.1072 0.089,-0.0621 0.16,-0.145 0.214,-0.2482 0.055,-0.1042 0.083,-0.2099 0.084,-0.317 0,-0.1077 -0.024,-0.2059 -0.073,-0.2946 -0.048,-0.0882 -0.117,-0.1562 -0.208,-0.2042 -0.092,-0.0484 -0.188,-0.067 -0.288,-0.0558 -0.1,0.0116 -0.193,0.0474 -0.282,0.1072 -0.088,0.0599 -0.161,0.1433 -0.217,0.2503 z" fill="#898989" id="path70" />
        <path d="m 122.406,30.5938 0.834,-1.3596 0.369,0.0628 -1.085,1.703 -0.331,-0.0564 -0.188,-0.8838 -0.47,0.7716 -0.331,-0.0562 -0.463,-1.9664 0.369,0.0628 0.342,1.5598 0.374,-0.6332 -0.183,-0.8327 0.326,0.0556 0.11,0.6067 0.302,-0.5367 0.325,0.0555 -0.446,0.7253 z" fill="#898989" id="path72" />
        <path d="m 128.008,29.3888 c -0.051,-0.1453 -0.076,-0.2971 -0.074,-0.4556 0.002,-0.1575 0.032,-0.3113 0.091,-0.4613 0.059,-0.1513 0.148,-0.2863 0.267,-0.4044 0.119,-0.1193 0.269,-0.2108 0.449,-0.2747 0.215,-0.0761 0.419,-0.0928 0.61,-0.0502 0.19,0.0415 0.351,0.125 0.481,0.2503 l -0.225,0.3026 c -0.079,-0.0808 -0.163,-0.137 -0.25,-0.1687 -0.089,-0.0322 -0.176,-0.0452 -0.264,-0.0393 -0.087,0.0057 -0.168,0.0221 -0.245,0.0491 -0.125,0.0442 -0.226,0.1083 -0.302,0.1919 -0.076,0.0836 -0.131,0.1781 -0.165,0.2832 -0.034,0.1053 -0.05,0.2153 -0.047,0.3299 0.004,0.1145 0.024,0.223 0.061,0.3259 0.04,0.1141 0.098,0.2173 0.174,0.3098 0.075,0.0924 0.162,0.1676 0.258,0.2251 0.098,0.0574 0.202,0.0933 0.313,0.1076 0.11,0.0133 0.221,0 0.333,-0.0396 0.076,-0.0268 0.15,-0.0678 0.224,-0.1234 0.073,-0.0564 0.135,-0.1254 0.185,-0.2068 0.051,-0.0825 0.08,-0.1778 0.086,-0.2859 l 0.376,0.0683 c -0.008,0.1355 -0.049,0.263 -0.124,0.3825 -0.075,0.1194 -0.169,0.2231 -0.282,0.3108 -0.114,0.0881 -0.233,0.1542 -0.358,0.1985 -0.168,0.0592 -0.334,0.0781 -0.498,0.0567 -0.163,-0.0207 -0.316,-0.0723 -0.459,-0.1547 -0.142,-0.0814 -0.267,-0.1854 -0.374,-0.3121 -0.108,-0.1276 -0.188,-0.2662 -0.241,-0.4155 z" fill="#898989" id="path74" />
        <path d="m 133.39,28.1666 c -0.118,0.087 -0.239,0.1449 -0.363,0.1736 -0.123,0.0273 -0.246,0.0297 -0.367,0.0076 -0.122,-0.0231 -0.235,-0.0674 -0.339,-0.1329 -0.105,-0.0664 -0.196,-0.1521 -0.273,-0.2574 -0.078,-0.105 -0.133,-0.2176 -0.165,-0.3372 -0.033,-0.1205 -0.042,-0.2417 -0.027,-0.3634 0.015,-0.1216 0.055,-0.2378 0.118,-0.3483 0.065,-0.1103 0.156,-0.2085 0.272,-0.2942 0.118,-0.0863 0.238,-0.1439 0.361,-0.1727 0.126,-0.0285 0.249,-0.032 0.37,-0.0105 0.12,0.0219 0.233,0.0663 0.339,0.1329 0.105,0.0664 0.196,0.1521 0.273,0.2571 0.078,0.1052 0.133,0.2177 0.165,0.3373 0.031,0.1194 0.04,0.2406 0.027,0.3634 -0.015,0.1226 -0.054,0.2393 -0.119,0.3506 -0.064,0.1097 -0.155,0.2078 -0.272,0.2941 z m -1.017,-0.4432 c 0.07,0.0948 0.154,0.1655 0.251,0.2124 0.097,0.0468 0.195,0.0678 0.293,0.0628 0.1,-0.0056 0.192,-0.0392 0.275,-0.1007 0.083,-0.0609 0.142,-0.1385 0.175,-0.2331 0.035,-0.095 0.045,-0.1961 0.028,-0.3034 -0.017,-0.1068 -0.061,-0.207 -0.13,-0.3011 -0.07,-0.0948 -0.153,-0.1658 -0.249,-0.2133 -0.097,-0.0469 -0.196,-0.0676 -0.297,-0.0622 -0.1,0.0047 -0.192,0.0376 -0.275,0.0985 -0.083,0.0615 -0.142,0.1399 -0.175,0.2352 -0.033,0.0946 -0.042,0.1948 -0.026,0.3003 0.015,0.1058 0.059,0.2072 0.13,0.3046 z" fill="#898989" id="path76" />
        <path d="m 135.08,25.3046 c -0.142,-0.107 -0.249,-0.2335 -0.322,-0.3792 -0.073,-0.1456 -0.106,-0.2946 -0.098,-0.447 0.006,-0.1521 0.059,-0.2937 0.157,-0.4243 0.086,-0.1137 0.192,-0.1946 0.321,-0.243 0.127,-0.0469 0.254,-0.0631 0.38,-0.0486 l -0.869,-0.6558 0.236,-0.3126 1.721,1.2991 c 0.036,0.0271 0.066,0.0396 0.092,0.0376 0.026,-0.0013 0.05,-0.0166 0.076,-0.0461 l 0.249,0.1887 c -0.035,0.0659 -0.065,0.1153 -0.089,0.1477 -0.045,0.059 -0.099,0.0956 -0.163,0.11 -0.066,0.0151 -0.123,0.0059 -0.171,-0.028 l -0.113,-0.0815 c 0.051,0.1287 0.067,0.2611 0.046,0.397 -0.021,0.1359 -0.071,0.2559 -0.149,0.3602 -0.077,0.1026 -0.168,0.1816 -0.272,0.2373 -0.105,0.0561 -0.218,0.0889 -0.338,0.0988 -0.12,0.009 -0.239,-0.0041 -0.358,-0.0393 -0.12,-0.0353 -0.232,-0.0923 -0.336,-0.171 z m 1.108,-1.0361 -0.388,-0.2932 c -0.076,-0.0252 -0.156,-0.0333 -0.239,-0.0238 -0.084,0.0108 -0.162,0.0339 -0.234,0.0693 -0.072,0.0367 -0.129,0.0834 -0.172,0.1398 -0.05,0.0666 -0.081,0.1374 -0.094,0.2125 -0.011,0.0757 -0.009,0.151 0.009,0.2258 0.018,0.0739 0.049,0.1444 0.093,0.2114 0.046,0.0663 0.101,0.1247 0.168,0.1751 0.068,0.0515 0.14,0.0885 0.216,0.1108 0.077,0.022 0.156,0.0294 0.235,0.0222 0.078,-0.0079 0.151,-0.03 0.218,-0.0661 0.069,-0.0371 0.128,-0.0884 0.177,-0.1542 0.032,-0.0418 0.056,-0.0899 0.073,-0.1442 0.017,-0.0543 0.027,-0.1108 0.03,-0.1692 0.003,-0.0593 -0.003,-0.1161 -0.019,-0.1706 -0.015,-0.0544 -0.039,-0.103 -0.073,-0.1456 z" fill="#898989" id="path78" />
        <path d="m 138.529,21.2264 c -0.051,0.1365 -0.12,0.2507 -0.207,0.3427 -0.09,0.0926 -0.19,0.1635 -0.303,0.2129 -0.114,0.0494 -0.233,0.0755 -0.357,0.0787 -0.123,0.0033 -0.246,-0.0177 -0.369,-0.0631 -0.164,-0.0609 -0.302,-0.1546 -0.411,-0.2808 -0.108,-0.1268 -0.179,-0.2734 -0.212,-0.4399 -0.033,-0.1663 -0.016,-0.3408 0.052,-0.5233 0.068,-0.1828 0.168,-0.3248 0.3,-0.4266 0.132,-0.1016 0.28,-0.164 0.442,-0.1869 0.163,-0.0231 0.323,-0.0056 0.479,0.0523 0.026,0.0096 0.051,0.0197 0.073,0.0305 0.023,0.012 0.042,0.0217 0.056,0.0292 l -0.518,1.3985 c 0.105,0.0309 0.205,0.0357 0.301,0.014 0.095,-0.0219 0.178,-0.0635 0.25,-0.1248 0.073,-0.0618 0.127,-0.1376 0.16,-0.2267 0.036,-0.0974 0.045,-0.1993 0.029,-0.306 -0.017,-0.1056 -0.059,-0.1887 -0.129,-0.2494 l 0.207,-0.2812 c 0.071,0.0694 0.125,0.1547 0.166,0.2564 0.04,0.1026 0.059,0.2132 0.058,0.3315 0.001,0.1188 -0.021,0.2396 -0.067,0.362 z m -1.222,0.143 0.39,-1.054 c -0.101,-0.0307 -0.2,-0.0353 -0.296,-0.0137 -0.095,0.022 -0.179,0.0633 -0.252,0.1242 -0.071,0.0603 -0.124,0.1371 -0.159,0.2304 -0.034,0.0913 -0.043,0.1836 -0.029,0.2769 0.017,0.0926 0.053,0.1777 0.111,0.2552 0.059,0.0777 0.137,0.138 0.235,0.181 z" fill="#898989" id="path80" />
        <path d="m 109.257,16.0523 c 0,-0.5332 0.432,-0.9654 0.966,-0.9654 0.533,0 0.965,0.4322 0.965,0.9654 0,0.5332 -0.432,0.9654 -0.965,0.9654 -0.534,0 -0.966,-0.4322 -0.966,-0.9654 z" fill="#898989" id="path82" />
        <path d="m 137.526,16.0523 c 0,-0.5332 0.432,-0.9654 0.965,-0.9654 0.534,0 0.966,0.4322 0.966,0.9654 0,0.5332 -0.432,0.9654 -0.966,0.9654 -0.533,0 -0.965,-0.4322 -0.965,-0.9654 z" fill="#898989" id="path84" />
      </g>
    </g>
  </g>
</svg>
